<?xml version="1.0" encoding="UTF-8"?><svg xmlns="http://www.w3.org/2000/svg" xmlns:latexdraw="http://latexdraw.sourceforge.net/namespaces/latexdraw" version="1.1" baseProfile="full">
    <g>
        <g latexdraw:type="joinedLines" id="id1612553927">
            <polyline points="468.0,45.0 532.9999999999994,45.0 513.0000000000036,540.0000000000005 468.00000000000364,540.0000000000005 " stroke-width="3.0" stroke="black" fill="url(#pattern1612553927)" latexdraw:rotationAngle="0.0"/>
        </g>
        <g latexdraw:type="joinedLines" id="id924433">
            <polyline points="533.8888888888888,231.85185185185173 533.8888888888888,540.7407407407406 " stroke-width="1.0" stroke="black" latexdraw:rotationAngle="0.0" marker-start="url(#arrow0-924433)" marker-end="url(#arrow1-924433)"/>
        </g>
        <g latexdraw:type="rectangle" id="id706761794">
            <rect x="41.5" y="43.5" width="417.0" height="497.0" latexdraw:borderPos="outer" stroke-width="3.0" stroke="black" fill="url(#pattern706761794)"/>
        </g>
        <g latexdraw:type="bezierCurve" id="id1388938103">
            <path d="M 10.0 280.0 C 145.65217391304336 280.0 247.3913043478258 320.0 315.217391304348 280.0 C 383.0434782608702 240.0 459.3478260869557 280.0 595.0000000000001 280.0 " stroke-width="8.0" stroke="#999999" fill="none" stroke-dasharray="8.819444444444445, 5.291666666666667" latexdraw:rotationAngle="0.0"/>
            <path d="M 10.0 280.0 C 145.65217391304336 280.0 247.3913043478258 320.0 315.217391304348 280.0 C 383.0434782608702 240.0 459.3478260869557 280.0 595.0000000000001 280.0 " stroke="white" stroke-width="5.0" fill="none" latexdraw:type="dbleborders"/>
        </g>
        <g latexdraw:type="rectangle" id="id23028234">
            <rect x="60.259259259259245" y="341.74074074074065" width="17.62962962962967" height="12.814814814814838" latexdraw:borderPos="outer" stroke-width="2.0" stroke="#333333" fill="url(#pattern23028234)"/>
        </g>
        <g latexdraw:type="rectangle" id="id1805488035">
            <rect x="150.25925925925912" y="341.74074074074065" width="17.629629629629733" height="12.814814814814838" latexdraw:borderPos="outer" stroke-width="2.0" stroke="#333333" fill="url(#pattern1805488035)"/>
        </g>
        <g latexdraw:type="rectangle" id="id1628462724">
            <rect x="170.25925925925924" y="341.74074074074065" width="17.629629629629676" height="12.814814814814838" latexdraw:borderPos="outer" stroke-width="2.0" stroke="#333333" fill="url(#pattern1628462724)"/>
        </g>
        <g latexdraw:type="rectangle" id="id404415864">
            <rect x="250.25925925925912" y="321.74074074074065" width="17.629629629629733" height="12.814814814814838" latexdraw:borderPos="outer" stroke-width="2.0" stroke="#333333" fill="url(#pattern404415864)"/>
        </g>
        <g latexdraw:type="rectangle" id="id1233926760">
            <rect x="330.2592592592591" y="341.74074074074065" width="17.629629629629733" height="12.814814814814838" latexdraw:borderPos="outer" stroke-width="2.0" stroke="#333333" fill="url(#pattern1233926760)"/>
        </g>
        <g latexdraw:type="rectangle" id="id1978747391">
            <rect x="350.25925925925924" y="341.74074074074065" width="17.629629629629676" height="12.814814814814838" latexdraw:borderPos="outer" stroke-width="2.0" stroke="#333333" fill="url(#pattern1978747391)"/>
        </g>
        <g latexdraw:type="rectangle" id="id710212217">
            <rect x="420.25925925925924" y="341.74074074074065" width="17.629629629629676" height="12.814814814814838" latexdraw:borderPos="outer" stroke-width="2.0" stroke="#333333" fill="url(#pattern710212217)"/>
        </g>
        <g latexdraw:type="rectangle" id="id361621397">
            <rect x="370.2592592592591" y="491.74074074074065" width="17.629629629629733" height="12.814814814814781" latexdraw:borderPos="outer" stroke-width="2.0" stroke="#333333" fill="url(#pattern361621397)"/>
        </g>
        <g latexdraw:type="rectangle" id="id79801566">
            <rect x="390.25925925925924" y="491.74074074074065" width="17.629629629629676" height="12.814814814814781" latexdraw:borderPos="outer" stroke-width="2.0" stroke="#333333" fill="url(#pattern79801566)"/>
        </g>
        <g latexdraw:type="rectangle" id="id1936148174">
            <rect x="190.25925925925912" y="491.74074074074065" width="17.629629629629733" height="12.814814814814838" latexdraw:borderPos="outer" stroke-width="2.0" stroke="#333333" fill="url(#pattern1936148174)"/>
        </g>
        <g latexdraw:type="rectangle" id="id722911539">
            <rect x="210.25925925925924" y="491.74074074074065" width="17.629629629629676" height="12.814814814814838" latexdraw:borderPos="outer" stroke-width="2.0" stroke="#333333" fill="url(#pattern722911539)"/>
        </g>
        <g latexdraw:type="rectangle" id="id235372378">
            <rect x="300.25925925925924" y="491.74074074074065" width="17.629629629629676" height="12.814814814814781" latexdraw:borderPos="outer" stroke-width="2.0" stroke="#333333" fill="url(#pattern235372378)"/>
        </g>
        <g latexdraw:type="rectangle" id="id1890182333">
            <rect x="110.25925925925924" y="491.74074074074065" width="17.629629629629676" height="12.814814814814838" latexdraw:borderPos="outer" stroke-width="2.0" stroke="#333333" fill="url(#pattern1890182333)"/>
        </g>
        <g latexdraw:type="rectangle" id="id2059641957">
            <rect x="60.25925925925924" y="491.74074074074065" width="17.629629629629676" height="12.814814814814838" latexdraw:borderPos="outer" stroke-width="2.0" stroke="#333333" fill="url(#pattern2059641957)"/>
        </g>
        <g latexdraw:type="rectangle" id="id1972391189">
            <rect x="60.25925925925924" y="81.74074074074065" width="17.629629629629676" height="12.814814814814838" latexdraw:borderPos="outer" stroke-width="2.0" stroke="#333333" fill="url(#pattern1972391189)"/>
        </g>
        <g latexdraw:type="rectangle" id="id49784038">
            <rect x="150.25925925925912" y="81.74074074074065" width="17.629629629629733" height="12.814814814814838" latexdraw:borderPos="outer" stroke-width="2.0" stroke="#333333" fill="url(#pattern49784038)"/>
        </g>
        <g latexdraw:type="rectangle" id="id564687800">
            <rect x="170.25925925925924" y="81.74074074074065" width="17.629629629629676" height="12.814814814814838" latexdraw:borderPos="outer" stroke-width="2.0" stroke="#333333" fill="url(#pattern564687800)"/>
        </g>
        <g latexdraw:type="rectangle" id="id2104603345">
            <rect x="250.25925925925912" y="61.74074074074065" width="17.629629629629733" height="12.814814814814838" latexdraw:borderPos="outer" stroke-width="2.0" stroke="#333333" fill="url(#pattern2104603345)"/>
        </g>
        <g latexdraw:type="rectangle" id="id1917337215">
            <rect x="330.2592592592591" y="81.74074074074065" width="17.629629629629733" height="12.814814814814838" latexdraw:borderPos="outer" stroke-width="2.0" stroke="#333333" fill="url(#pattern1917337215)"/>
        </g>
        <g latexdraw:type="rectangle" id="id931389985">
            <rect x="350.25925925925924" y="81.74074074074065" width="17.629629629629676" height="12.814814814814838" latexdraw:borderPos="outer" stroke-width="2.0" stroke="#333333" fill="url(#pattern931389985)"/>
        </g>
        <g latexdraw:type="rectangle" id="id1772801241">
            <rect x="420.25925925925924" y="81.74074074074065" width="17.629629629629676" height="12.814814814814838" latexdraw:borderPos="outer" stroke-width="2.0" stroke="#333333" fill="url(#pattern1772801241)"/>
        </g>
        <g latexdraw:type="rectangle" id="id668725908">
            <rect x="370.2592592592591" y="231.74074074074065" width="17.629629629629733" height="12.814814814814781" latexdraw:borderPos="outer" stroke-width="2.0" stroke="#333333" fill="url(#pattern668725908)"/>
        </g>
        <g latexdraw:type="rectangle" id="id1460984336">
            <rect x="390.25925925925924" y="231.74074074074065" width="17.629629629629676" height="12.814814814814781" latexdraw:borderPos="outer" stroke-width="2.0" stroke="#333333" fill="url(#pattern1460984336)"/>
        </g>
        <g latexdraw:type="rectangle" id="id740059265">
            <rect x="190.25925925925912" y="231.74074074074065" width="17.629629629629733" height="12.814814814814781" latexdraw:borderPos="outer" stroke-width="2.0" stroke="#333333" fill="url(#pattern740059265)"/>
        </g>
        <g latexdraw:type="rectangle" id="id232845844">
            <rect x="210.25925925925924" y="231.74074074074065" width="17.629629629629676" height="12.814814814814781" latexdraw:borderPos="outer" stroke-width="2.0" stroke="#333333" fill="url(#pattern232845844)"/>
        </g>
        <g latexdraw:type="rectangle" id="id1294856499">
            <rect x="300.25925925925924" y="231.74074074074065" width="17.629629629629676" height="12.814814814814781" latexdraw:borderPos="outer" stroke-width="2.0" stroke="#333333" fill="url(#pattern1294856499)"/>
        </g>
        <g latexdraw:type="rectangle" id="id273400065">
            <rect x="110.25925925925924" y="231.74074074074065" width="17.629629629629676" height="12.814814814814781" latexdraw:borderPos="outer" stroke-width="2.0" stroke="#333333" fill="url(#pattern273400065)"/>
        </g>
        <g latexdraw:type="rectangle" id="id1726972331">
            <rect x="60.25925925925924" y="231.74074074074065" width="17.629629629629676" height="12.814814814814781" latexdraw:borderPos="outer" stroke-width="2.0" stroke="#333333" fill="url(#pattern1726972331)"/>
        </g>
        <g latexdraw:type="joinedLines" id="id1028046910">
            <polyline points="407.40740740740733,232.44 538.5185185185182,232.44 " stroke-width="0.5" stroke="#666666" latexdraw:rotationAngle="0.0"/>
        </g>
        <g latexdraw:type="joinedLines" id="id704255068">
            <polyline points="408.41,491.7 548.9655555555555,491.7 " stroke-width="0.5" stroke="#666666" latexdraw:rotationAngle="0.0"/>
        </g>
        <g latexdraw:type="joinedLines" id="id191903049">
            <polyline points="439.4100000000001,341.7 548.9877109421514,341.7 " stroke-width="0.5" stroke="#666666" latexdraw:rotationAngle="0.0"/>
        </g>
        <g latexdraw:type="joinedLines" id="id1346047147">
            <polyline points="543.8888888888888,341.85185185185173 543.8888888888888,490.74074074074065 " stroke-width="1.0" stroke="black" latexdraw:rotationAngle="0.0" marker-start="url(#arrow0-1346047147)" marker-end="url(#arrow1-1346047147)"/>
        </g>
        <g latexdraw:type="joinedLines" id="id950524740">
            <polyline points="458.41,541.7 548.9655555555555,541.7 " stroke-width="0.5" stroke="#666666" latexdraw:rotationAngle="0.0"/>
        </g>
        <g latexdraw:type="joinedLines" id="id1287542951">
            <polyline points="543.8888888888888,491.85185185185173 543.8888888888888,540.7407407407406 " stroke-width="1.0" stroke="black" latexdraw:rotationAngle="0.0" marker-start="url(#arrow0-1287542951)" marker-end="url(#arrow1-1287542951)"/>
        </g>
        <g latexdraw:type="joinedLines" id="id1131045785">
            <polyline points="459.3749999999995,542.1874999999993 459.3749999999995,549.9999999999993 " stroke-width="0.5" stroke="#999999" latexdraw:rotationAngle="0.0"/>
        </g>
        <g latexdraw:type="joinedLines" id="id2073506990">
            <polyline points="40.0,540.0 40.37,549.9999999999993 " stroke-width="0.5" stroke="#999999" latexdraw:rotationAngle="0.0"/>
        </g>
        <g latexdraw:type="joinedLines" id="id566673427">
            <polyline points="41.46341463414618,550.78 458.5365853658519,550.78 " stroke-width="1.0" stroke="black" latexdraw:rotationAngle="0.0" marker-start="url(#arrow0-566673427)" marker-end="url(#arrow1-566673427)"/>
        </g>
        <g latexdraw:type="text" id="id1494468625" fill="black" latexdraw:position="t">
            <text x="246.20689655172316" y="555.1724137931005">\textsf{3 m}</text>
        </g>
        <g latexdraw:type="text" id="id345199446" fill="black" latexdraw:position="l">
            <text x="554.6068965517233" y="515.1724137931005">\textsf{0.3 m}</text>
        </g>
        <g latexdraw:type="text" id="id1899271013" fill="black" latexdraw:position="l">
            <text x="554.6068965517233" y="415.17241379310053">\textsf{1.6 m}</text>
        </g>
        <g latexdraw:type="text" id="id242800230" fill="black" latexdraw:position="l">
            <text x="554.6068965517233" y="253.9724137931007">\textsf{10 m}</text>
        </g>
        <g latexdraw:type="arc" id="id1728347603">
            <path d="M 488.0 44.499999999999666 A 44.99999999999966 44.99999999999966 0.0 0 0 529.0779915763551 89.32876141412787 " latexdraw:borderPos="outer" stroke-width="0.5" stroke="#999999" fill="none" latexdraw:rotationAngle="0.0"/>
        </g>
        <g latexdraw:type="text" id="id1969180569" fill="black" latexdraw:position="">
            <text x="512.2424242424273" y="63.59090909091029">\textsf{85$^\circ$}</text>
        </g>
        <g latexdraw:type="text" id="id877537566" fill="#999999" latexdraw:position="bl">
            <text x="50.99999999999967" y="532.9999999999969">\textsf{Front}</text>
        </g>
        <g latexdraw:type="text" id="id909988783" fill="#999999" latexdraw:position="bl">
            <text x="473.99999999999966" y="533.9999999999969">\textsf{Side}</text>
        </g>
        <g latexdraw:type="joinedLines" id="id580588766">
            <polyline points="405.7999999999976,399.1999999999999 93.79999999999946,399.1999999999999 " stroke-width="3.2" stroke="#66cc00" latexdraw:rotationAngle="0.0" marker-start="url(#arrow0-580588766)" marker-end="url(#arrow1-580588766)"/>
        </g>
        <g latexdraw:type="joinedLines" id="id2045822147">
            <polyline points="405.7999999999976,442.6 93.79999999999946,442.6 " stroke-width="3.2" stroke="#cc0000" latexdraw:rotationAngle="0.0" marker-start="url(#arrow0-2045822147)" marker-end="url(#arrow1-2045822147)"/>
        </g>
        <g latexdraw:type="text" id="id349346505" fill="#66cc00" latexdraw:position="b">
            <text x="254.2099999999985" y="396.2">\textsf{Way In}</text>
        </g>
        <g latexdraw:type="text" id="id1558174760" fill="#cc0000" latexdraw:position="b">
            <text x="254.2099999999985" y="438.6">\textsf{Way Out}</text>
        </g>
        <g latexdraw:type="text" id="id797883484" fill="black" latexdraw:position="bl">
            <text x="78.39999999999938" y="334.3999999999983">$\mathsf{T_h}$</text>
        </g>
        <g latexdraw:type="text" id="id978097069" fill="black" latexdraw:position="bl">
            <text x="77.59999999999945" y="79.99999999999972">$\mathsf{T_h'}$</text>
        </g>
        <g latexdraw:type="text" id="id477168709" fill="black" latexdraw:position="bl">
            <text x="79.5999999999992" y="489.19999999999754">$\mathsf{T_f}$</text>
        </g>
        <g latexdraw:type="text" id="id1529337617" fill="black" latexdraw:position="bl">
            <text x="77.99999999999955" y="226.799999999999">$\mathsf{T_f'}$</text>
        </g>
    </g>
    <defs>
        <pattern latexdraw:type="vlines" latexdraw:rotationAngle="0.0" latexdraw:size="20.45" patternUnits="userSpaceOnUse" id="pattern1612553927" x="0" y="0" width="532" height="540">
            <g stroke="#cccccc" stroke-width="0.5" stroke-dasharray="none">
                <path d="M 468.0 45.0 L 468.0 540.0000000000005 M 488.95 45.0 L 488.95 540.0000000000005 M 509.9 45.0 L 509.9 540.0000000000005 M 530.85 45.0 L 530.85 540.0000000000005 "/>
            </g>
        </pattern>
        <marker overflow="visible" orient="auto" id="arrow0-924433">
            <path d="M 0.0 0.0 L 6.504166666666667 2.322916666666667 L 6.504166666666667 0.0 L 6.504166666666667 -2.322916666666667 z " latexdraw:arrSizeNum="2.0" fill="black"/>
        </marker>
        <marker overflow="visible" orient="auto" id="arrow1-924433">
            <path d="M 0.0 0.0 L -6.504166666666667 2.322916666666667 L -6.504166666666667 0.0 L -6.504166666666667 -2.322916666666667 z " latexdraw:arrSizeNum="2.0" fill="black"/>
        </marker>
        <pattern latexdraw:type="crosshatch" latexdraw:rotationAngle="0.0" latexdraw:size="20.45" patternUnits="userSpaceOnUse" id="pattern706761794" x="0" y="0" width="460" height="542">
            <g stroke="#cccccc" stroke-width="0.5" stroke-dasharray="none">
                <path d="M 40.0 42.0 L 40.0 542.0 M 60.95 42.0 L 60.95 542.0 M 81.9 42.0 L 81.9 542.0 M 102.85000000000001 42.0 L 102.85000000000001 542.0 M 123.80000000000001 42.0 L 123.80000000000001 542.0 M 144.75 42.0 L 144.75 542.0 M 165.7 42.0 L 165.7 542.0 M 186.64999999999998 42.0 L 186.64999999999998 542.0 M 207.59999999999997 42.0 L 207.59999999999997 542.0 M 228.54999999999995 42.0 L 228.54999999999995 542.0 M 249.49999999999994 42.0 L 249.49999999999994 542.0 M 270.44999999999993 42.0 L 270.44999999999993 542.0 M 291.3999999999999 42.0 L 291.3999999999999 542.0 M 312.3499999999999 42.0 L 312.3499999999999 542.0 M 333.2999999999999 42.0 L 333.2999999999999 542.0 M 354.2499999999999 42.0 L 354.2499999999999 542.0 M 375.1999999999999 42.0 L 375.1999999999999 542.0 M 396.14999999999986 42.0 L 396.14999999999986 542.0 M 417.09999999999985 42.0 L 417.09999999999985 542.0 M 438.04999999999984 42.0 L 438.04999999999984 542.0 M 458.99999999999983 42.0 L 458.99999999999983 542.0 M 40.0 42.0 L 460.0 42.0 M 40.0 62.95 L 460.0 62.95 M 40.0 83.9 L 460.0 83.9 M 40.0 104.85000000000001 L 460.0 104.85000000000001 M 40.0 125.80000000000001 L 460.0 125.80000000000001 M 40.0 146.75 L 460.0 146.75 M 40.0 167.7 L 460.0 167.7 M 40.0 188.64999999999998 L 460.0 188.64999999999998 M 40.0 209.59999999999997 L 460.0 209.59999999999997 M 40.0 230.54999999999995 L 460.0 230.54999999999995 M 40.0 251.49999999999994 L 460.0 251.49999999999994 M 40.0 272.44999999999993 L 460.0 272.44999999999993 M 40.0 293.3999999999999 L 460.0 293.3999999999999 M 40.0 314.3499999999999 L 460.0 314.3499999999999 M 40.0 335.2999999999999 L 460.0 335.2999999999999 M 40.0 356.2499999999999 L 460.0 356.2499999999999 M 40.0 377.1999999999999 L 460.0 377.1999999999999 M 40.0 398.14999999999986 L 460.0 398.14999999999986 M 40.0 419.09999999999985 L 460.0 419.09999999999985 M 40.0 440.04999999999984 L 460.0 440.04999999999984 M 40.0 460.99999999999983 L 460.0 460.99999999999983 M 40.0 481.9499999999998 L 460.0 481.9499999999998 M 40.0 502.8999999999998 L 460.0 502.8999999999998 M 40.0 523.8499999999998 L 460.0 523.8499999999998 "/>
            </g>
        </pattern>
        <pattern latexdraw:type="crosshatch" latexdraw:rotationAngle="0.0" latexdraw:size="2.0" patternUnits="userSpaceOnUse" id="pattern23028234" x="0" y="0" width="78" height="355">
            <g stroke="black" stroke-width="0.5" stroke-dasharray="none">
                <path d="M 59.259259259259245 340.74074074074065 L 59.259259259259245 355.5555555555555 M 61.759259259259245 340.74074074074065 L 61.759259259259245 355.5555555555555 M 64.25925925925924 340.74074074074065 L 64.25925925925924 355.5555555555555 M 66.75925925925924 340.74074074074065 L 66.75925925925924 355.5555555555555 M 69.25925925925924 340.74074074074065 L 69.25925925925924 355.5555555555555 M 71.75925925925924 340.74074074074065 L 71.75925925925924 355.5555555555555 M 74.25925925925924 340.74074074074065 L 74.25925925925924 355.5555555555555 M 76.75925925925924 340.74074074074065 L 76.75925925925924 355.5555555555555 M 59.259259259259245 340.74074074074065 L 78.88888888888891 340.74074074074065 M 59.259259259259245 343.24074074074065 L 78.88888888888891 343.24074074074065 M 59.259259259259245 345.74074074074065 L 78.88888888888891 345.74074074074065 M 59.259259259259245 348.24074074074065 L 78.88888888888891 348.24074074074065 M 59.259259259259245 350.74074074074065 L 78.88888888888891 350.74074074074065 M 59.259259259259245 353.24074074074065 L 78.88888888888891 353.24074074074065 "/>
            </g>
        </pattern>
        <pattern latexdraw:type="crosshatch" latexdraw:rotationAngle="0.0" latexdraw:size="2.0" patternUnits="userSpaceOnUse" id="pattern1805488035" x="0" y="0" width="168" height="355">
            <g stroke="black" stroke-width="0.5" stroke-dasharray="none">
                <path d="M 149.25925925925912 340.74074074074065 L 149.25925925925912 355.5555555555555 M 151.75925925925912 340.74074074074065 L 151.75925925925912 355.5555555555555 M 154.25925925925912 340.74074074074065 L 154.25925925925912 355.5555555555555 M 156.75925925925912 340.74074074074065 L 156.75925925925912 355.5555555555555 M 159.25925925925912 340.74074074074065 L 159.25925925925912 355.5555555555555 M 161.75925925925912 340.74074074074065 L 161.75925925925912 355.5555555555555 M 164.25925925925912 340.74074074074065 L 164.25925925925912 355.5555555555555 M 166.75925925925912 340.74074074074065 L 166.75925925925912 355.5555555555555 M 149.25925925925912 340.74074074074065 L 168.88888888888886 340.74074074074065 M 149.25925925925912 343.24074074074065 L 168.88888888888886 343.24074074074065 M 149.25925925925912 345.74074074074065 L 168.88888888888886 345.74074074074065 M 149.25925925925912 348.24074074074065 L 168.88888888888886 348.24074074074065 M 149.25925925925912 350.74074074074065 L 168.88888888888886 350.74074074074065 M 149.25925925925912 353.24074074074065 L 168.88888888888886 353.24074074074065 "/>
            </g>
        </pattern>
        <pattern latexdraw:type="crosshatch" latexdraw:rotationAngle="0.0" latexdraw:size="2.0" patternUnits="userSpaceOnUse" id="pattern1628462724" x="0" y="0" width="188" height="355">
            <g stroke="black" stroke-width="0.5" stroke-dasharray="none">
                <path d="M 169.25925925925924 340.74074074074065 L 169.25925925925924 355.5555555555555 M 171.75925925925924 340.74074074074065 L 171.75925925925924 355.5555555555555 M 174.25925925925924 340.74074074074065 L 174.25925925925924 355.5555555555555 M 176.75925925925924 340.74074074074065 L 176.75925925925924 355.5555555555555 M 179.25925925925924 340.74074074074065 L 179.25925925925924 355.5555555555555 M 181.75925925925924 340.74074074074065 L 181.75925925925924 355.5555555555555 M 184.25925925925924 340.74074074074065 L 184.25925925925924 355.5555555555555 M 186.75925925925924 340.74074074074065 L 186.75925925925924 355.5555555555555 M 169.25925925925924 340.74074074074065 L 188.8888888888889 340.74074074074065 M 169.25925925925924 343.24074074074065 L 188.8888888888889 343.24074074074065 M 169.25925925925924 345.74074074074065 L 188.8888888888889 345.74074074074065 M 169.25925925925924 348.24074074074065 L 188.8888888888889 348.24074074074065 M 169.25925925925924 350.74074074074065 L 188.8888888888889 350.74074074074065 M 169.25925925925924 353.24074074074065 L 188.8888888888889 353.24074074074065 "/>
            </g>
        </pattern>
        <pattern latexdraw:type="crosshatch" latexdraw:rotationAngle="0.0" latexdraw:size="2.0" patternUnits="userSpaceOnUse" id="pattern404415864" x="0" y="0" width="268" height="335">
            <g stroke="black" stroke-width="0.5" stroke-dasharray="none">
                <path d="M 249.25925925925912 320.74074074074065 L 249.25925925925912 335.5555555555555 M 251.75925925925912 320.74074074074065 L 251.75925925925912 335.5555555555555 M 254.25925925925912 320.74074074074065 L 254.25925925925912 335.5555555555555 M 256.7592592592591 320.74074074074065 L 256.7592592592591 335.5555555555555 M 259.2592592592591 320.74074074074065 L 259.2592592592591 335.5555555555555 M 261.7592592592591 320.74074074074065 L 261.7592592592591 335.5555555555555 M 264.2592592592591 320.74074074074065 L 264.2592592592591 335.5555555555555 M 266.7592592592591 320.74074074074065 L 266.7592592592591 335.5555555555555 M 249.25925925925912 320.74074074074065 L 268.88888888888886 320.74074074074065 M 249.25925925925912 323.24074074074065 L 268.88888888888886 323.24074074074065 M 249.25925925925912 325.74074074074065 L 268.88888888888886 325.74074074074065 M 249.25925925925912 328.24074074074065 L 268.88888888888886 328.24074074074065 M 249.25925925925912 330.74074074074065 L 268.88888888888886 330.74074074074065 M 249.25925925925912 333.24074074074065 L 268.88888888888886 333.24074074074065 "/>
            </g>
        </pattern>
        <pattern latexdraw:type="crosshatch" latexdraw:rotationAngle="0.0" latexdraw:size="2.0" patternUnits="userSpaceOnUse" id="pattern1233926760" x="0" y="0" width="348" height="355">
            <g stroke="black" stroke-width="0.5" stroke-dasharray="none">
                <path d="M 329.2592592592591 340.74074074074065 L 329.2592592592591 355.5555555555555 M 331.7592592592591 340.74074074074065 L 331.7592592592591 355.5555555555555 M 334.2592592592591 340.74074074074065 L 334.2592592592591 355.5555555555555 M 336.7592592592591 340.74074074074065 L 336.7592592592591 355.5555555555555 M 339.2592592592591 340.74074074074065 L 339.2592592592591 355.5555555555555 M 341.7592592592591 340.74074074074065 L 341.7592592592591 355.5555555555555 M 344.2592592592591 340.74074074074065 L 344.2592592592591 355.5555555555555 M 346.7592592592591 340.74074074074065 L 346.7592592592591 355.5555555555555 M 329.2592592592591 340.74074074074065 L 348.88888888888886 340.74074074074065 M 329.2592592592591 343.24074074074065 L 348.88888888888886 343.24074074074065 M 329.2592592592591 345.74074074074065 L 348.88888888888886 345.74074074074065 M 329.2592592592591 348.24074074074065 L 348.88888888888886 348.24074074074065 M 329.2592592592591 350.74074074074065 L 348.88888888888886 350.74074074074065 M 329.2592592592591 353.24074074074065 L 348.88888888888886 353.24074074074065 "/>
            </g>
        </pattern>
        <pattern latexdraw:type="crosshatch" latexdraw:rotationAngle="0.0" latexdraw:size="2.0" patternUnits="userSpaceOnUse" id="pattern1978747391" x="0" y="0" width="368" height="355">
            <g stroke="black" stroke-width="0.5" stroke-dasharray="none">
                <path d="M 349.25925925925924 340.74074074074065 L 349.25925925925924 355.5555555555555 M 351.75925925925924 340.74074074074065 L 351.75925925925924 355.5555555555555 M 354.25925925925924 340.74074074074065 L 354.25925925925924 355.5555555555555 M 356.75925925925924 340.74074074074065 L 356.75925925925924 355.5555555555555 M 359.25925925925924 340.74074074074065 L 359.25925925925924 355.5555555555555 M 361.75925925925924 340.74074074074065 L 361.75925925925924 355.5555555555555 M 364.25925925925924 340.74074074074065 L 364.25925925925924 355.5555555555555 M 366.75925925925924 340.74074074074065 L 366.75925925925924 355.5555555555555 M 349.25925925925924 340.74074074074065 L 368.8888888888889 340.74074074074065 M 349.25925925925924 343.24074074074065 L 368.8888888888889 343.24074074074065 M 349.25925925925924 345.74074074074065 L 368.8888888888889 345.74074074074065 M 349.25925925925924 348.24074074074065 L 368.8888888888889 348.24074074074065 M 349.25925925925924 350.74074074074065 L 368.8888888888889 350.74074074074065 M 349.25925925925924 353.24074074074065 L 368.8888888888889 353.24074074074065 "/>
            </g>
        </pattern>
        <pattern latexdraw:type="crosshatch" latexdraw:rotationAngle="0.0" latexdraw:size="2.0" patternUnits="userSpaceOnUse" id="pattern710212217" x="0" y="0" width="438" height="355">
            <g stroke="black" stroke-width="0.5" stroke-dasharray="none">
                <path d="M 419.25925925925924 340.74074074074065 L 419.25925925925924 355.5555555555555 M 421.75925925925924 340.74074074074065 L 421.75925925925924 355.5555555555555 M 424.25925925925924 340.74074074074065 L 424.25925925925924 355.5555555555555 M 426.75925925925924 340.74074074074065 L 426.75925925925924 355.5555555555555 M 429.25925925925924 340.74074074074065 L 429.25925925925924 355.5555555555555 M 431.75925925925924 340.74074074074065 L 431.75925925925924 355.5555555555555 M 434.25925925925924 340.74074074074065 L 434.25925925925924 355.5555555555555 M 436.75925925925924 340.74074074074065 L 436.75925925925924 355.5555555555555 M 419.25925925925924 340.74074074074065 L 438.8888888888889 340.74074074074065 M 419.25925925925924 343.24074074074065 L 438.8888888888889 343.24074074074065 M 419.25925925925924 345.74074074074065 L 438.8888888888889 345.74074074074065 M 419.25925925925924 348.24074074074065 L 438.8888888888889 348.24074074074065 M 419.25925925925924 350.74074074074065 L 438.8888888888889 350.74074074074065 M 419.25925925925924 353.24074074074065 L 438.8888888888889 353.24074074074065 "/>
            </g>
        </pattern>
        <pattern latexdraw:type="crosshatch" latexdraw:rotationAngle="0.0" latexdraw:size="2.0" patternUnits="userSpaceOnUse" id="pattern361621397" x="0" y="0" width="388" height="505">
            <g stroke="black" stroke-width="0.5" stroke-dasharray="none">
                <path d="M 369.2592592592591 490.74074074074065 L 369.2592592592591 505.55555555555543 M 371.7592592592591 490.74074074074065 L 371.7592592592591 505.55555555555543 M 374.2592592592591 490.74074074074065 L 374.2592592592591 505.55555555555543 M 376.7592592592591 490.74074074074065 L 376.7592592592591 505.55555555555543 M 379.2592592592591 490.74074074074065 L 379.2592592592591 505.55555555555543 M 381.7592592592591 490.74074074074065 L 381.7592592592591 505.55555555555543 M 384.2592592592591 490.74074074074065 L 384.2592592592591 505.55555555555543 M 386.7592592592591 490.74074074074065 L 386.7592592592591 505.55555555555543 M 369.2592592592591 490.74074074074065 L 388.88888888888886 490.74074074074065 M 369.2592592592591 493.24074074074065 L 388.88888888888886 493.24074074074065 M 369.2592592592591 495.74074074074065 L 388.88888888888886 495.74074074074065 M 369.2592592592591 498.24074074074065 L 388.88888888888886 498.24074074074065 M 369.2592592592591 500.74074074074065 L 388.88888888888886 500.74074074074065 M 369.2592592592591 503.24074074074065 L 388.88888888888886 503.24074074074065 "/>
            </g>
        </pattern>
        <pattern latexdraw:type="crosshatch" latexdraw:rotationAngle="0.0" latexdraw:size="2.0" patternUnits="userSpaceOnUse" id="pattern79801566" x="0" y="0" width="408" height="505">
            <g stroke="black" stroke-width="0.5" stroke-dasharray="none">
                <path d="M 389.25925925925924 490.74074074074065 L 389.25925925925924 505.55555555555543 M 391.75925925925924 490.74074074074065 L 391.75925925925924 505.55555555555543 M 394.25925925925924 490.74074074074065 L 394.25925925925924 505.55555555555543 M 396.75925925925924 490.74074074074065 L 396.75925925925924 505.55555555555543 M 399.25925925925924 490.74074074074065 L 399.25925925925924 505.55555555555543 M 401.75925925925924 490.74074074074065 L 401.75925925925924 505.55555555555543 M 404.25925925925924 490.74074074074065 L 404.25925925925924 505.55555555555543 M 406.75925925925924 490.74074074074065 L 406.75925925925924 505.55555555555543 M 389.25925925925924 490.74074074074065 L 408.8888888888889 490.74074074074065 M 389.25925925925924 493.24074074074065 L 408.8888888888889 493.24074074074065 M 389.25925925925924 495.74074074074065 L 408.8888888888889 495.74074074074065 M 389.25925925925924 498.24074074074065 L 408.8888888888889 498.24074074074065 M 389.25925925925924 500.74074074074065 L 408.8888888888889 500.74074074074065 M 389.25925925925924 503.24074074074065 L 408.8888888888889 503.24074074074065 "/>
            </g>
        </pattern>
        <pattern latexdraw:type="crosshatch" latexdraw:rotationAngle="0.0" latexdraw:size="2.0" patternUnits="userSpaceOnUse" id="pattern1936148174" x="0" y="0" width="208" height="505">
            <g stroke="black" stroke-width="0.5" stroke-dasharray="none">
                <path d="M 189.25925925925912 490.74074074074065 L 189.25925925925912 505.5555555555555 M 191.75925925925912 490.74074074074065 L 191.75925925925912 505.5555555555555 M 194.25925925925912 490.74074074074065 L 194.25925925925912 505.5555555555555 M 196.75925925925912 490.74074074074065 L 196.75925925925912 505.5555555555555 M 199.25925925925912 490.74074074074065 L 199.25925925925912 505.5555555555555 M 201.75925925925912 490.74074074074065 L 201.75925925925912 505.5555555555555 M 204.25925925925912 490.74074074074065 L 204.25925925925912 505.5555555555555 M 206.75925925925912 490.74074074074065 L 206.75925925925912 505.5555555555555 M 189.25925925925912 490.74074074074065 L 208.88888888888886 490.74074074074065 M 189.25925925925912 493.24074074074065 L 208.88888888888886 493.24074074074065 M 189.25925925925912 495.74074074074065 L 208.88888888888886 495.74074074074065 M 189.25925925925912 498.24074074074065 L 208.88888888888886 498.24074074074065 M 189.25925925925912 500.74074074074065 L 208.88888888888886 500.74074074074065 M 189.25925925925912 503.24074074074065 L 208.88888888888886 503.24074074074065 "/>
            </g>
        </pattern>
        <pattern latexdraw:type="crosshatch" latexdraw:rotationAngle="0.0" latexdraw:size="2.0" patternUnits="userSpaceOnUse" id="pattern722911539" x="0" y="0" width="228" height="505">
            <g stroke="black" stroke-width="0.5" stroke-dasharray="none">
                <path d="M 209.25925925925924 490.74074074074065 L 209.25925925925924 505.5555555555555 M 211.75925925925924 490.74074074074065 L 211.75925925925924 505.5555555555555 M 214.25925925925924 490.74074074074065 L 214.25925925925924 505.5555555555555 M 216.75925925925924 490.74074074074065 L 216.75925925925924 505.5555555555555 M 219.25925925925924 490.74074074074065 L 219.25925925925924 505.5555555555555 M 221.75925925925924 490.74074074074065 L 221.75925925925924 505.5555555555555 M 224.25925925925924 490.74074074074065 L 224.25925925925924 505.5555555555555 M 226.75925925925924 490.74074074074065 L 226.75925925925924 505.5555555555555 M 209.25925925925924 490.74074074074065 L 228.8888888888889 490.74074074074065 M 209.25925925925924 493.24074074074065 L 228.8888888888889 493.24074074074065 M 209.25925925925924 495.74074074074065 L 228.8888888888889 495.74074074074065 M 209.25925925925924 498.24074074074065 L 228.8888888888889 498.24074074074065 M 209.25925925925924 500.74074074074065 L 228.8888888888889 500.74074074074065 M 209.25925925925924 503.24074074074065 L 228.8888888888889 503.24074074074065 "/>
            </g>
        </pattern>
        <pattern latexdraw:type="crosshatch" latexdraw:rotationAngle="0.0" latexdraw:size="2.0" patternUnits="userSpaceOnUse" id="pattern235372378" x="0" y="0" width="318" height="505">
            <g stroke="black" stroke-width="0.5" stroke-dasharray="none">
                <path d="M 299.25925925925924 490.74074074074065 L 299.25925925925924 505.55555555555543 M 301.75925925925924 490.74074074074065 L 301.75925925925924 505.55555555555543 M 304.25925925925924 490.74074074074065 L 304.25925925925924 505.55555555555543 M 306.75925925925924 490.74074074074065 L 306.75925925925924 505.55555555555543 M 309.25925925925924 490.74074074074065 L 309.25925925925924 505.55555555555543 M 311.75925925925924 490.74074074074065 L 311.75925925925924 505.55555555555543 M 314.25925925925924 490.74074074074065 L 314.25925925925924 505.55555555555543 M 316.75925925925924 490.74074074074065 L 316.75925925925924 505.55555555555543 M 299.25925925925924 490.74074074074065 L 318.8888888888889 490.74074074074065 M 299.25925925925924 493.24074074074065 L 318.8888888888889 493.24074074074065 M 299.25925925925924 495.74074074074065 L 318.8888888888889 495.74074074074065 M 299.25925925925924 498.24074074074065 L 318.8888888888889 498.24074074074065 M 299.25925925925924 500.74074074074065 L 318.8888888888889 500.74074074074065 M 299.25925925925924 503.24074074074065 L 318.8888888888889 503.24074074074065 "/>
            </g>
        </pattern>
        <pattern latexdraw:type="crosshatch" latexdraw:rotationAngle="0.0" latexdraw:size="2.0" patternUnits="userSpaceOnUse" id="pattern1890182333" x="0" y="0" width="128" height="505">
            <g stroke="black" stroke-width="0.5" stroke-dasharray="none">
                <path d="M 109.25925925925924 490.74074074074065 L 109.25925925925924 505.5555555555555 M 111.75925925925924 490.74074074074065 L 111.75925925925924 505.5555555555555 M 114.25925925925924 490.74074074074065 L 114.25925925925924 505.5555555555555 M 116.75925925925924 490.74074074074065 L 116.75925925925924 505.5555555555555 M 119.25925925925924 490.74074074074065 L 119.25925925925924 505.5555555555555 M 121.75925925925924 490.74074074074065 L 121.75925925925924 505.5555555555555 M 124.25925925925924 490.74074074074065 L 124.25925925925924 505.5555555555555 M 126.75925925925924 490.74074074074065 L 126.75925925925924 505.5555555555555 M 109.25925925925924 490.74074074074065 L 128.8888888888889 490.74074074074065 M 109.25925925925924 493.24074074074065 L 128.8888888888889 493.24074074074065 M 109.25925925925924 495.74074074074065 L 128.8888888888889 495.74074074074065 M 109.25925925925924 498.24074074074065 L 128.8888888888889 498.24074074074065 M 109.25925925925924 500.74074074074065 L 128.8888888888889 500.74074074074065 M 109.25925925925924 503.24074074074065 L 128.8888888888889 503.24074074074065 "/>
            </g>
        </pattern>
        <pattern latexdraw:type="crosshatch" latexdraw:rotationAngle="0.0" latexdraw:size="2.0" patternUnits="userSpaceOnUse" id="pattern2059641957" x="0" y="0" width="78" height="505">
            <g stroke="black" stroke-width="0.5" stroke-dasharray="none">
                <path d="M 59.25925925925924 490.74074074074065 L 59.25925925925924 505.5555555555555 M 61.75925925925924 490.74074074074065 L 61.75925925925924 505.5555555555555 M 64.25925925925924 490.74074074074065 L 64.25925925925924 505.5555555555555 M 66.75925925925924 490.74074074074065 L 66.75925925925924 505.5555555555555 M 69.25925925925924 490.74074074074065 L 69.25925925925924 505.5555555555555 M 71.75925925925924 490.74074074074065 L 71.75925925925924 505.5555555555555 M 74.25925925925924 490.74074074074065 L 74.25925925925924 505.5555555555555 M 76.75925925925924 490.74074074074065 L 76.75925925925924 505.5555555555555 M 59.25925925925924 490.74074074074065 L 78.88888888888891 490.74074074074065 M 59.25925925925924 493.24074074074065 L 78.88888888888891 493.24074074074065 M 59.25925925925924 495.74074074074065 L 78.88888888888891 495.74074074074065 M 59.25925925925924 498.24074074074065 L 78.88888888888891 498.24074074074065 M 59.25925925925924 500.74074074074065 L 78.88888888888891 500.74074074074065 M 59.25925925925924 503.24074074074065 L 78.88888888888891 503.24074074074065 "/>
            </g>
        </pattern>
        <pattern latexdraw:type="crosshatch" latexdraw:rotationAngle="0.0" latexdraw:size="2.0" patternUnits="userSpaceOnUse" id="pattern1972391189" x="0" y="0" width="78" height="95">
            <g stroke="black" stroke-width="0.5" stroke-dasharray="none">
                <path d="M 59.25925925925924 80.74074074074065 L 59.25925925925924 95.55555555555549 M 61.75925925925924 80.74074074074065 L 61.75925925925924 95.55555555555549 M 64.25925925925924 80.74074074074065 L 64.25925925925924 95.55555555555549 M 66.75925925925924 80.74074074074065 L 66.75925925925924 95.55555555555549 M 69.25925925925924 80.74074074074065 L 69.25925925925924 95.55555555555549 M 71.75925925925924 80.74074074074065 L 71.75925925925924 95.55555555555549 M 74.25925925925924 80.74074074074065 L 74.25925925925924 95.55555555555549 M 76.75925925925924 80.74074074074065 L 76.75925925925924 95.55555555555549 M 59.25925925925924 80.74074074074065 L 78.88888888888891 80.74074074074065 M 59.25925925925924 83.24074074074065 L 78.88888888888891 83.24074074074065 M 59.25925925925924 85.74074074074065 L 78.88888888888891 85.74074074074065 M 59.25925925925924 88.24074074074065 L 78.88888888888891 88.24074074074065 M 59.25925925925924 90.74074074074065 L 78.88888888888891 90.74074074074065 M 59.25925925925924 93.24074074074065 L 78.88888888888891 93.24074074074065 "/>
            </g>
        </pattern>
        <pattern latexdraw:type="crosshatch" latexdraw:rotationAngle="0.0" latexdraw:size="2.0" patternUnits="userSpaceOnUse" id="pattern49784038" x="0" y="0" width="168" height="95">
            <g stroke="black" stroke-width="0.5" stroke-dasharray="none">
                <path d="M 149.25925925925912 80.74074074074065 L 149.25925925925912 95.55555555555549 M 151.75925925925912 80.74074074074065 L 151.75925925925912 95.55555555555549 M 154.25925925925912 80.74074074074065 L 154.25925925925912 95.55555555555549 M 156.75925925925912 80.74074074074065 L 156.75925925925912 95.55555555555549 M 159.25925925925912 80.74074074074065 L 159.25925925925912 95.55555555555549 M 161.75925925925912 80.74074074074065 L 161.75925925925912 95.55555555555549 M 164.25925925925912 80.74074074074065 L 164.25925925925912 95.55555555555549 M 166.75925925925912 80.74074074074065 L 166.75925925925912 95.55555555555549 M 149.25925925925912 80.74074074074065 L 168.88888888888886 80.74074074074065 M 149.25925925925912 83.24074074074065 L 168.88888888888886 83.24074074074065 M 149.25925925925912 85.74074074074065 L 168.88888888888886 85.74074074074065 M 149.25925925925912 88.24074074074065 L 168.88888888888886 88.24074074074065 M 149.25925925925912 90.74074074074065 L 168.88888888888886 90.74074074074065 M 149.25925925925912 93.24074074074065 L 168.88888888888886 93.24074074074065 "/>
            </g>
        </pattern>
        <pattern latexdraw:type="crosshatch" latexdraw:rotationAngle="0.0" latexdraw:size="2.0" patternUnits="userSpaceOnUse" id="pattern564687800" x="0" y="0" width="188" height="95">
            <g stroke="black" stroke-width="0.5" stroke-dasharray="none">
                <path d="M 169.25925925925924 80.74074074074065 L 169.25925925925924 95.55555555555549 M 171.75925925925924 80.74074074074065 L 171.75925925925924 95.55555555555549 M 174.25925925925924 80.74074074074065 L 174.25925925925924 95.55555555555549 M 176.75925925925924 80.74074074074065 L 176.75925925925924 95.55555555555549 M 179.25925925925924 80.74074074074065 L 179.25925925925924 95.55555555555549 M 181.75925925925924 80.74074074074065 L 181.75925925925924 95.55555555555549 M 184.25925925925924 80.74074074074065 L 184.25925925925924 95.55555555555549 M 186.75925925925924 80.74074074074065 L 186.75925925925924 95.55555555555549 M 169.25925925925924 80.74074074074065 L 188.8888888888889 80.74074074074065 M 169.25925925925924 83.24074074074065 L 188.8888888888889 83.24074074074065 M 169.25925925925924 85.74074074074065 L 188.8888888888889 85.74074074074065 M 169.25925925925924 88.24074074074065 L 188.8888888888889 88.24074074074065 M 169.25925925925924 90.74074074074065 L 188.8888888888889 90.74074074074065 M 169.25925925925924 93.24074074074065 L 188.8888888888889 93.24074074074065 "/>
            </g>
        </pattern>
        <pattern latexdraw:type="crosshatch" latexdraw:rotationAngle="0.0" latexdraw:size="2.0" patternUnits="userSpaceOnUse" id="pattern2104603345" x="0" y="0" width="268" height="75">
            <g stroke="black" stroke-width="0.5" stroke-dasharray="none">
                <path d="M 249.25925925925912 60.74074074074065 L 249.25925925925912 75.55555555555549 M 251.75925925925912 60.74074074074065 L 251.75925925925912 75.55555555555549 M 254.25925925925912 60.74074074074065 L 254.25925925925912 75.55555555555549 M 256.7592592592591 60.74074074074065 L 256.7592592592591 75.55555555555549 M 259.2592592592591 60.74074074074065 L 259.2592592592591 75.55555555555549 M 261.7592592592591 60.74074074074065 L 261.7592592592591 75.55555555555549 M 264.2592592592591 60.74074074074065 L 264.2592592592591 75.55555555555549 M 266.7592592592591 60.74074074074065 L 266.7592592592591 75.55555555555549 M 249.25925925925912 60.74074074074065 L 268.88888888888886 60.74074074074065 M 249.25925925925912 63.24074074074065 L 268.88888888888886 63.24074074074065 M 249.25925925925912 65.74074074074065 L 268.88888888888886 65.74074074074065 M 249.25925925925912 68.24074074074065 L 268.88888888888886 68.24074074074065 M 249.25925925925912 70.74074074074065 L 268.88888888888886 70.74074074074065 M 249.25925925925912 73.24074074074065 L 268.88888888888886 73.24074074074065 "/>
            </g>
        </pattern>
        <pattern latexdraw:type="crosshatch" latexdraw:rotationAngle="0.0" latexdraw:size="2.0" patternUnits="userSpaceOnUse" id="pattern1917337215" x="0" y="0" width="348" height="95">
            <g stroke="black" stroke-width="0.5" stroke-dasharray="none">
                <path d="M 329.2592592592591 80.74074074074065 L 329.2592592592591 95.55555555555549 M 331.7592592592591 80.74074074074065 L 331.7592592592591 95.55555555555549 M 334.2592592592591 80.74074074074065 L 334.2592592592591 95.55555555555549 M 336.7592592592591 80.74074074074065 L 336.7592592592591 95.55555555555549 M 339.2592592592591 80.74074074074065 L 339.2592592592591 95.55555555555549 M 341.7592592592591 80.74074074074065 L 341.7592592592591 95.55555555555549 M 344.2592592592591 80.74074074074065 L 344.2592592592591 95.55555555555549 M 346.7592592592591 80.74074074074065 L 346.7592592592591 95.55555555555549 M 329.2592592592591 80.74074074074065 L 348.88888888888886 80.74074074074065 M 329.2592592592591 83.24074074074065 L 348.88888888888886 83.24074074074065 M 329.2592592592591 85.74074074074065 L 348.88888888888886 85.74074074074065 M 329.2592592592591 88.24074074074065 L 348.88888888888886 88.24074074074065 M 329.2592592592591 90.74074074074065 L 348.88888888888886 90.74074074074065 M 329.2592592592591 93.24074074074065 L 348.88888888888886 93.24074074074065 "/>
            </g>
        </pattern>
        <pattern latexdraw:type="crosshatch" latexdraw:rotationAngle="0.0" latexdraw:size="2.0" patternUnits="userSpaceOnUse" id="pattern931389985" x="0" y="0" width="368" height="95">
            <g stroke="black" stroke-width="0.5" stroke-dasharray="none">
                <path d="M 349.25925925925924 80.74074074074065 L 349.25925925925924 95.55555555555549 M 351.75925925925924 80.74074074074065 L 351.75925925925924 95.55555555555549 M 354.25925925925924 80.74074074074065 L 354.25925925925924 95.55555555555549 M 356.75925925925924 80.74074074074065 L 356.75925925925924 95.55555555555549 M 359.25925925925924 80.74074074074065 L 359.25925925925924 95.55555555555549 M 361.75925925925924 80.74074074074065 L 361.75925925925924 95.55555555555549 M 364.25925925925924 80.74074074074065 L 364.25925925925924 95.55555555555549 M 366.75925925925924 80.74074074074065 L 366.75925925925924 95.55555555555549 M 349.25925925925924 80.74074074074065 L 368.8888888888889 80.74074074074065 M 349.25925925925924 83.24074074074065 L 368.8888888888889 83.24074074074065 M 349.25925925925924 85.74074074074065 L 368.8888888888889 85.74074074074065 M 349.25925925925924 88.24074074074065 L 368.8888888888889 88.24074074074065 M 349.25925925925924 90.74074074074065 L 368.8888888888889 90.74074074074065 M 349.25925925925924 93.24074074074065 L 368.8888888888889 93.24074074074065 "/>
            </g>
        </pattern>
        <pattern latexdraw:type="crosshatch" latexdraw:rotationAngle="0.0" latexdraw:size="2.0" patternUnits="userSpaceOnUse" id="pattern1772801241" x="0" y="0" width="438" height="95">
            <g stroke="black" stroke-width="0.5" stroke-dasharray="none">
                <path d="M 419.25925925925924 80.74074074074065 L 419.25925925925924 95.55555555555549 M 421.75925925925924 80.74074074074065 L 421.75925925925924 95.55555555555549 M 424.25925925925924 80.74074074074065 L 424.25925925925924 95.55555555555549 M 426.75925925925924 80.74074074074065 L 426.75925925925924 95.55555555555549 M 429.25925925925924 80.74074074074065 L 429.25925925925924 95.55555555555549 M 431.75925925925924 80.74074074074065 L 431.75925925925924 95.55555555555549 M 434.25925925925924 80.74074074074065 L 434.25925925925924 95.55555555555549 M 436.75925925925924 80.74074074074065 L 436.75925925925924 95.55555555555549 M 419.25925925925924 80.74074074074065 L 438.8888888888889 80.74074074074065 M 419.25925925925924 83.24074074074065 L 438.8888888888889 83.24074074074065 M 419.25925925925924 85.74074074074065 L 438.8888888888889 85.74074074074065 M 419.25925925925924 88.24074074074065 L 438.8888888888889 88.24074074074065 M 419.25925925925924 90.74074074074065 L 438.8888888888889 90.74074074074065 M 419.25925925925924 93.24074074074065 L 438.8888888888889 93.24074074074065 "/>
            </g>
        </pattern>
        <pattern latexdraw:type="crosshatch" latexdraw:rotationAngle="0.0" latexdraw:size="2.0" patternUnits="userSpaceOnUse" id="pattern668725908" x="0" y="0" width="388" height="245">
            <g stroke="black" stroke-width="0.5" stroke-dasharray="none">
                <path d="M 369.2592592592591 230.74074074074065 L 369.2592592592591 245.55555555555543 M 371.7592592592591 230.74074074074065 L 371.7592592592591 245.55555555555543 M 374.2592592592591 230.74074074074065 L 374.2592592592591 245.55555555555543 M 376.7592592592591 230.74074074074065 L 376.7592592592591 245.55555555555543 M 379.2592592592591 230.74074074074065 L 379.2592592592591 245.55555555555543 M 381.7592592592591 230.74074074074065 L 381.7592592592591 245.55555555555543 M 384.2592592592591 230.74074074074065 L 384.2592592592591 245.55555555555543 M 386.7592592592591 230.74074074074065 L 386.7592592592591 245.55555555555543 M 369.2592592592591 230.74074074074065 L 388.88888888888886 230.74074074074065 M 369.2592592592591 233.24074074074065 L 388.88888888888886 233.24074074074065 M 369.2592592592591 235.74074074074065 L 388.88888888888886 235.74074074074065 M 369.2592592592591 238.24074074074065 L 388.88888888888886 238.24074074074065 M 369.2592592592591 240.74074074074065 L 388.88888888888886 240.74074074074065 M 369.2592592592591 243.24074074074065 L 388.88888888888886 243.24074074074065 "/>
            </g>
        </pattern>
        <pattern latexdraw:type="crosshatch" latexdraw:rotationAngle="0.0" latexdraw:size="2.0" patternUnits="userSpaceOnUse" id="pattern1460984336" x="0" y="0" width="408" height="245">
            <g stroke="black" stroke-width="0.5" stroke-dasharray="none">
                <path d="M 389.25925925925924 230.74074074074065 L 389.25925925925924 245.55555555555543 M 391.75925925925924 230.74074074074065 L 391.75925925925924 245.55555555555543 M 394.25925925925924 230.74074074074065 L 394.25925925925924 245.55555555555543 M 396.75925925925924 230.74074074074065 L 396.75925925925924 245.55555555555543 M 399.25925925925924 230.74074074074065 L 399.25925925925924 245.55555555555543 M 401.75925925925924 230.74074074074065 L 401.75925925925924 245.55555555555543 M 404.25925925925924 230.74074074074065 L 404.25925925925924 245.55555555555543 M 406.75925925925924 230.74074074074065 L 406.75925925925924 245.55555555555543 M 389.25925925925924 230.74074074074065 L 408.8888888888889 230.74074074074065 M 389.25925925925924 233.24074074074065 L 408.8888888888889 233.24074074074065 M 389.25925925925924 235.74074074074065 L 408.8888888888889 235.74074074074065 M 389.25925925925924 238.24074074074065 L 408.8888888888889 238.24074074074065 M 389.25925925925924 240.74074074074065 L 408.8888888888889 240.74074074074065 M 389.25925925925924 243.24074074074065 L 408.8888888888889 243.24074074074065 "/>
            </g>
        </pattern>
        <pattern latexdraw:type="crosshatch" latexdraw:rotationAngle="0.0" latexdraw:size="2.0" patternUnits="userSpaceOnUse" id="pattern740059265" x="0" y="0" width="208" height="245">
            <g stroke="black" stroke-width="0.5" stroke-dasharray="none">
                <path d="M 189.25925925925912 230.74074074074065 L 189.25925925925912 245.55555555555543 M 191.75925925925912 230.74074074074065 L 191.75925925925912 245.55555555555543 M 194.25925925925912 230.74074074074065 L 194.25925925925912 245.55555555555543 M 196.75925925925912 230.74074074074065 L 196.75925925925912 245.55555555555543 M 199.25925925925912 230.74074074074065 L 199.25925925925912 245.55555555555543 M 201.75925925925912 230.74074074074065 L 201.75925925925912 245.55555555555543 M 204.25925925925912 230.74074074074065 L 204.25925925925912 245.55555555555543 M 206.75925925925912 230.74074074074065 L 206.75925925925912 245.55555555555543 M 189.25925925925912 230.74074074074065 L 208.88888888888886 230.74074074074065 M 189.25925925925912 233.24074074074065 L 208.88888888888886 233.24074074074065 M 189.25925925925912 235.74074074074065 L 208.88888888888886 235.74074074074065 M 189.25925925925912 238.24074074074065 L 208.88888888888886 238.24074074074065 M 189.25925925925912 240.74074074074065 L 208.88888888888886 240.74074074074065 M 189.25925925925912 243.24074074074065 L 208.88888888888886 243.24074074074065 "/>
            </g>
        </pattern>
        <pattern latexdraw:type="crosshatch" latexdraw:rotationAngle="0.0" latexdraw:size="2.0" patternUnits="userSpaceOnUse" id="pattern232845844" x="0" y="0" width="228" height="245">
            <g stroke="black" stroke-width="0.5" stroke-dasharray="none">
                <path d="M 209.25925925925924 230.74074074074065 L 209.25925925925924 245.55555555555543 M 211.75925925925924 230.74074074074065 L 211.75925925925924 245.55555555555543 M 214.25925925925924 230.74074074074065 L 214.25925925925924 245.55555555555543 M 216.75925925925924 230.74074074074065 L 216.75925925925924 245.55555555555543 M 219.25925925925924 230.74074074074065 L 219.25925925925924 245.55555555555543 M 221.75925925925924 230.74074074074065 L 221.75925925925924 245.55555555555543 M 224.25925925925924 230.74074074074065 L 224.25925925925924 245.55555555555543 M 226.75925925925924 230.74074074074065 L 226.75925925925924 245.55555555555543 M 209.25925925925924 230.74074074074065 L 228.8888888888889 230.74074074074065 M 209.25925925925924 233.24074074074065 L 228.8888888888889 233.24074074074065 M 209.25925925925924 235.74074074074065 L 228.8888888888889 235.74074074074065 M 209.25925925925924 238.24074074074065 L 228.8888888888889 238.24074074074065 M 209.25925925925924 240.74074074074065 L 228.8888888888889 240.74074074074065 M 209.25925925925924 243.24074074074065 L 228.8888888888889 243.24074074074065 "/>
            </g>
        </pattern>
        <pattern latexdraw:type="crosshatch" latexdraw:rotationAngle="0.0" latexdraw:size="2.0" patternUnits="userSpaceOnUse" id="pattern1294856499" x="0" y="0" width="318" height="245">
            <g stroke="black" stroke-width="0.5" stroke-dasharray="none">
                <path d="M 299.25925925925924 230.74074074074065 L 299.25925925925924 245.55555555555543 M 301.75925925925924 230.74074074074065 L 301.75925925925924 245.55555555555543 M 304.25925925925924 230.74074074074065 L 304.25925925925924 245.55555555555543 M 306.75925925925924 230.74074074074065 L 306.75925925925924 245.55555555555543 M 309.25925925925924 230.74074074074065 L 309.25925925925924 245.55555555555543 M 311.75925925925924 230.74074074074065 L 311.75925925925924 245.55555555555543 M 314.25925925925924 230.74074074074065 L 314.25925925925924 245.55555555555543 M 316.75925925925924 230.74074074074065 L 316.75925925925924 245.55555555555543 M 299.25925925925924 230.74074074074065 L 318.8888888888889 230.74074074074065 M 299.25925925925924 233.24074074074065 L 318.8888888888889 233.24074074074065 M 299.25925925925924 235.74074074074065 L 318.8888888888889 235.74074074074065 M 299.25925925925924 238.24074074074065 L 318.8888888888889 238.24074074074065 M 299.25925925925924 240.74074074074065 L 318.8888888888889 240.74074074074065 M 299.25925925925924 243.24074074074065 L 318.8888888888889 243.24074074074065 "/>
            </g>
        </pattern>
        <pattern latexdraw:type="crosshatch" latexdraw:rotationAngle="0.0" latexdraw:size="2.0" patternUnits="userSpaceOnUse" id="pattern273400065" x="0" y="0" width="128" height="245">
            <g stroke="black" stroke-width="0.5" stroke-dasharray="none">
                <path d="M 109.25925925925924 230.74074074074065 L 109.25925925925924 245.55555555555543 M 111.75925925925924 230.74074074074065 L 111.75925925925924 245.55555555555543 M 114.25925925925924 230.74074074074065 L 114.25925925925924 245.55555555555543 M 116.75925925925924 230.74074074074065 L 116.75925925925924 245.55555555555543 M 119.25925925925924 230.74074074074065 L 119.25925925925924 245.55555555555543 M 121.75925925925924 230.74074074074065 L 121.75925925925924 245.55555555555543 M 124.25925925925924 230.74074074074065 L 124.25925925925924 245.55555555555543 M 126.75925925925924 230.74074074074065 L 126.75925925925924 245.55555555555543 M 109.25925925925924 230.74074074074065 L 128.8888888888889 230.74074074074065 M 109.25925925925924 233.24074074074065 L 128.8888888888889 233.24074074074065 M 109.25925925925924 235.74074074074065 L 128.8888888888889 235.74074074074065 M 109.25925925925924 238.24074074074065 L 128.8888888888889 238.24074074074065 M 109.25925925925924 240.74074074074065 L 128.8888888888889 240.74074074074065 M 109.25925925925924 243.24074074074065 L 128.8888888888889 243.24074074074065 "/>
            </g>
        </pattern>
        <pattern latexdraw:type="crosshatch" latexdraw:rotationAngle="0.0" latexdraw:size="2.0" patternUnits="userSpaceOnUse" id="pattern1726972331" x="0" y="0" width="78" height="245">
            <g stroke="black" stroke-width="0.5" stroke-dasharray="none">
                <path d="M 59.25925925925924 230.74074074074065 L 59.25925925925924 245.55555555555543 M 61.75925925925924 230.74074074074065 L 61.75925925925924 245.55555555555543 M 64.25925925925924 230.74074074074065 L 64.25925925925924 245.55555555555543 M 66.75925925925924 230.74074074074065 L 66.75925925925924 245.55555555555543 M 69.25925925925924 230.74074074074065 L 69.25925925925924 245.55555555555543 M 71.75925925925924 230.74074074074065 L 71.75925925925924 245.55555555555543 M 74.25925925925924 230.74074074074065 L 74.25925925925924 245.55555555555543 M 76.75925925925924 230.74074074074065 L 76.75925925925924 245.55555555555543 M 59.25925925925924 230.74074074074065 L 78.88888888888891 230.74074074074065 M 59.25925925925924 233.24074074074065 L 78.88888888888891 233.24074074074065 M 59.25925925925924 235.74074074074065 L 78.88888888888891 235.74074074074065 M 59.25925925925924 238.24074074074065 L 78.88888888888891 238.24074074074065 M 59.25925925925924 240.74074074074065 L 78.88888888888891 240.74074074074065 M 59.25925925925924 243.24074074074065 L 78.88888888888891 243.24074074074065 "/>
            </g>
        </pattern>
        <marker overflow="visible" orient="auto" id="arrow0-1346047147">
            <path d="M 0.0 0.0 L 6.504166666666667 2.322916666666667 L 6.504166666666667 0.0 L 6.504166666666667 -2.322916666666667 z " latexdraw:arrSizeNum="2.0" fill="black"/>
        </marker>
        <marker overflow="visible" orient="auto" id="arrow1-1346047147">
            <path d="M 0.0 0.0 L -6.504166666666667 2.322916666666667 L -6.504166666666667 0.0 L -6.504166666666667 -2.322916666666667 z " latexdraw:arrSizeNum="2.0" fill="black"/>
        </marker>
        <marker overflow="visible" orient="auto" id="arrow0-1287542951">
            <path d="M 0.0 0.0 L 6.504166666666667 2.322916666666667 L 6.504166666666667 0.0 L 6.504166666666667 -2.322916666666667 z " latexdraw:arrSizeNum="2.0" fill="black"/>
        </marker>
        <marker overflow="visible" orient="auto" id="arrow1-1287542951">
            <path d="M 0.0 0.0 L -6.504166666666667 2.322916666666667 L -6.504166666666667 0.0 L -6.504166666666667 -2.322916666666667 z " latexdraw:arrSizeNum="2.0" fill="black"/>
        </marker>
        <marker overflow="visible" orient="auto" id="arrow0-566673427">
            <path d="M 0.0 0.0 L 6.504166666666667 2.322916666666667 L 6.504166666666667 0.0 L 6.504166666666667 -2.322916666666667 z " latexdraw:arrSizeNum="2.0" fill="black"/>
        </marker>
        <marker overflow="visible" orient="auto" id="arrow1-566673427">
            <path d="M 0.0 0.0 L -6.504166666666667 2.322916666666667 L -6.504166666666667 0.0 L -6.504166666666667 -2.322916666666667 z " latexdraw:arrSizeNum="2.0" fill="black"/>
        </marker>
        <marker overflow="visible" orient="auto" id="arrow0-580588766">
            <circle r="1.125" latexdraw:dotSizeNum="2.0" fill="white" stroke="#66cc00" stroke-width="1.0"/>
        </marker>
        <marker overflow="visible" orient="auto" id="arrow1-580588766">
            <path d="M 0.0 0.0 L -5.5125 1.9687500000000004 L -5.5125 0.0 L -5.5125 -1.9687500000000004 z " latexdraw:arrSizeNum="3.0" fill="#66cc00"/>
        </marker>
        <marker overflow="visible" orient="auto" id="arrow0-2045822147">
            <circle r="1.625" latexdraw:dotSizeNum="2.0" fill="#cc0000"/>
        </marker>
        <marker overflow="visible" orient="auto" id="arrow1-2045822147">
            <path d="M -5.5125 0.0 L 0.0 1.9687500000000004 L 0.0 0.0 L 0.0 -1.9687500000000004 z " latexdraw:arrSizeNum="3.0" fill="#cc0000"/>
        </marker>
    </defs>
    <metadata>
        <latexdraw:metadata>
            <latexdraw:latexIncludes/>
            <latexdraw:displayXScale>true</latexdraw:displayXScale>
            <latexdraw:displayYScale>true</latexdraw:displayYScale>
            <latexdraw:unit>CM</latexdraw:unit>
            <latexdraw:zoom>1.2500000000000073</latexdraw:zoom>
            <latexdraw:magneticGridStyle>NONE</latexdraw:magneticGridStyle>
            <latexdraw:gridGap>10</latexdraw:gridGap>
            <latexdraw:magneticGrid>true</latexdraw:magneticGrid>
            <latexdraw:version>3.3.8</latexdraw:version>
            <latexdraw:size>
                <latexdraw:width>1680</latexdraw:width>
                <latexdraw:height>1002</latexdraw:height>
            </latexdraw:size>
            <latexdraw:position>
                <latexdraw:x>251.0</latexdraw:x>
                <latexdraw:y>54.0</latexdraw:y>
            </latexdraw:position>
        </latexdraw:metadata>
    </metadata>
</svg>
