<?xml version="1.0" encoding="UTF-8" standalone="no"?>
<svg
   xmlns:osb="http://www.openswatchbook.org/uri/2009/osb"
   xmlns:dc="http://purl.org/dc/elements/1.1/"
   xmlns:cc="http://creativecommons.org/ns#"
   xmlns:rdf="http://www.w3.org/1999/02/22-rdf-syntax-ns#"
   xmlns:svg="http://www.w3.org/2000/svg"
   xmlns="http://www.w3.org/2000/svg"
   xmlns:sodipodi="http://sodipodi.sourceforge.net/DTD/sodipodi-0.dtd"
   xmlns:inkscape="http://www.inkscape.org/namespaces/inkscape"
   version="1.1"
   id="Contours"
   x="0px"
   y="0px"
   width="502.54166"
   height="333.04727"
   viewBox="0 0 502.54165 333.04727"
   xml:space="preserve"
   inkscape:version="0.91 r13725"
   sodipodi:docname="climbing-shoe-with-instructions.svg"
   style="fill:none;stroke:#000000;stroke-linecap:round;stroke-linejoin:round"><metadata
     id="metadata205"><rdf:RDF><cc:Work
         rdf:about=""><dc:format>image/svg+xml</dc:format><dc:type
           rdf:resource="http://purl.org/dc/dcmitype/StillImage" /><dc:title></dc:title></cc:Work></rdf:RDF></metadata><defs
     id="defs203"><marker
       inkscape:stockid="Arrow2Mstart"
       orient="auto"
       refY="0.0"
       refX="0.0"
       id="Arrow2Mstart"
       style="overflow:visible"
       inkscape:isstock="true"><path
         id="path6264"
         style="fill-rule:evenodd;stroke-width:0.625;stroke-linejoin:round;stroke:#bc2233;stroke-opacity:1;fill:#bc2233;fill-opacity:1"
         d="M 8.7185878,4.0337352 L -2.2072895,0.016013256 L 8.7185884,-4.0017078 C 6.9730900,-1.6296469 6.9831476,1.6157441 8.7185878,4.0337352 z "
         transform="scale(0.6) translate(0,0)" /></marker><marker
       inkscape:stockid="TriangleInM"
       orient="auto"
       refY="0.0"
       refX="0.0"
       id="marker10624"
       style="overflow:visible"
       inkscape:isstock="true"><path
         id="path10626"
         d="M 5.77,0.0 L -2.88,5.0 L -2.88,-5.0 L 5.77,0.0 z "
         style="fill-rule:evenodd;stroke:#bc2233;stroke-width:1pt;stroke-opacity:1"
         transform="scale(-0.4)" /></marker><marker
       inkscape:stockid="TriangleInM"
       orient="auto"
       refY="0.0"
       refX="0.0"
       id="TriangleInM"
       style="overflow:visible"
       inkscape:isstock="true"><path
         id="path6376"
         d="M 5.77,0.0 L -2.88,5.0 L -2.88,-5.0 L 5.77,0.0 z "
         style="fill-rule:evenodd;stroke:#bc2233;stroke-width:1pt;stroke-opacity:1"
         transform="scale(-0.4)" /></marker><marker
       inkscape:stockid="Arrow2Lstart"
       orient="auto"
       refY="0.0"
       refX="0.0"
       id="marker10312"
       style="overflow:visible"
       inkscape:isstock="true"><path
         id="path10314"
         style="fill-rule:evenodd;stroke-width:0.625;stroke-linejoin:round;stroke:#bc2233;stroke-opacity:1"
         d="M 8.7185878,4.0337352 L -2.2072895,0.016013256 L 8.7185884,-4.0017078 C 6.9730900,-1.6296469 6.9831476,1.6157441 8.7185878,4.0337352 z "
         transform="scale(1.1) translate(1,0)" /></marker><marker
       inkscape:stockid="Arrow2Lend"
       orient="auto"
       refY="0.0"
       refX="0.0"
       id="marker9848"
       style="overflow:visible;"
       inkscape:isstock="true"><path
         id="path9850"
         style="fill-rule:evenodd;stroke-width:0.625;stroke-linejoin:round;stroke:#bc2233;stroke-opacity:1"
         d="M 8.7185878,4.0337352 L -2.2072895,0.016013256 L 8.7185884,-4.0017078 C 6.9730900,-1.6296469 6.9831476,1.6157441 8.7185878,4.0337352 z "
         transform="scale(1.1) rotate(180) translate(1,0)" /></marker><marker
       inkscape:stockid="Arrow1Mend"
       orient="auto"
       refY="0.0"
       refX="0.0"
       id="marker9721"
       style="overflow:visible;"
       inkscape:isstock="true"><path
         id="path9723"
         d="M 0.0,0.0 L 5.0,-5.0 L -12.5,0.0 L 5.0,5.0 L 0.0,0.0 z "
         style="fill-rule:evenodd;stroke:#bc2233;stroke-width:1pt;stroke-opacity:1"
         transform="scale(0.4) rotate(180) translate(10,0)" /></marker><marker
       inkscape:stockid="Arrow2Lstart"
       orient="auto"
       refY="0.0"
       refX="0.0"
       id="Arrow2Lstart"
       style="overflow:visible"
       inkscape:isstock="true"><path
         id="path6258"
         style="fill-rule:evenodd;stroke-width:0.625;stroke-linejoin:round;stroke:#bc2233;stroke-opacity:1"
         d="M 8.7185878,4.0337352 L -2.2072895,0.016013256 L 8.7185884,-4.0017078 C 6.9730900,-1.6296469 6.9831476,1.6157441 8.7185878,4.0337352 z "
         transform="scale(1.1) translate(1,0)" /></marker><marker
       inkscape:stockid="Arrow2Mend"
       orient="auto"
       refY="0"
       refX="0"
       id="marker9281"
       style="overflow:visible"
       inkscape:isstock="true"><path
         id="path9283"
         style="fill:#000000;fill-opacity:1;fill-rule:evenodd;stroke:#000000;stroke-width:0.625;stroke-linejoin:round;stroke-opacity:1"
         d="M 8.7185878,4.0337352 -2.2072895,0.01601326 8.7185884,-4.0017078 c -1.7454984,2.3720609 -1.7354408,5.6174519 -6e-7,8.035443 z"
         transform="scale(-0.6,-0.6)"
         inkscape:connector-curvature="0" /></marker><marker
       inkscape:stockid="Arrow1Send"
       orient="auto"
       refY="0"
       refX="0"
       id="Arrow1Send"
       style="overflow:visible"
       inkscape:isstock="true"><path
         id="path6255"
         d="M 0,0 5,-5 -12.5,0 5,5 0,0 Z"
         style="fill-rule:evenodd;stroke:#000000;stroke-width:1pt;stroke-opacity:1"
         transform="matrix(-0.2,0,0,-0.2,-1.2,0)"
         inkscape:connector-curvature="0" /></marker><marker
       style="overflow:visible"
       inkscape:stockid="InfiniteLineEnd"
       id="InfiniteLineEnd"
       refX="0"
       refY="0"
       orient="auto"
       inkscape:isstock="true"><g
         id="g6475"
         style="fill:#000000;fill-opacity:1;stroke:#000000;stroke-opacity:1"><circle
           id="circle6477"
           r="0.80000001"
           cy="0"
           cx="3"
           style="fill:#000000;fill-opacity:1;stroke:#000000;stroke-opacity:1" /><circle
           id="circle6479"
           r="0.80000001"
           cy="0"
           cx="6.5"
           style="fill:#000000;fill-opacity:1;stroke:#000000;stroke-opacity:1" /><circle
           id="circle6481"
           r="0.80000001"
           cy="0"
           cx="10"
           style="fill:#000000;fill-opacity:1;stroke:#000000;stroke-opacity:1" /></g></marker><marker
       inkscape:stockid="DotS"
       orient="auto"
       refY="0"
       refX="0"
       id="DotS"
       style="overflow:visible"
       inkscape:isstock="true"><path
         id="path6307"
         d="m -2.5,-1 c 0,2.76 -2.24,5 -5,5 -2.76,0 -5,-2.24 -5,-5 0,-2.76 2.24,-5 5,-5 2.76,0 5,2.24 5,5 z"
         style="fill-rule:evenodd;stroke:#000000;stroke-width:1pt;stroke-opacity:1"
         transform="matrix(0.2,0,0,0.2,1.48,0.2)"
         inkscape:connector-curvature="0" /></marker><marker
       inkscape:stockid="Arrow2Lend"
       orient="auto"
       refY="0"
       refX="0"
       id="marker8824"
       style="overflow:visible"
       inkscape:isstock="true"><path
         id="path8826"
         style="fill-rule:evenodd;stroke:#bc2233;stroke-width:0.625;stroke-linejoin:round;stroke-opacity:1"
         d="M 8.7185878,4.0337352 -2.2072895,0.01601326 8.7185884,-4.0017078 c -1.7454984,2.3720609 -1.7354408,5.6174519 -6e-7,8.035443 z"
         transform="matrix(-1.1,0,0,-1.1,-1.1,0)"
         inkscape:connector-curvature="0" /></marker><marker
       inkscape:stockid="TriangleOutM"
       orient="auto"
       refY="0"
       refX="0"
       id="TriangleOutM"
       style="overflow:visible"
       inkscape:isstock="true"><path
         id="path6385"
         d="m 5.77,0 -8.65,5 0,-10 8.65,5 z"
         style="fill-rule:evenodd;stroke:#000000;stroke-width:1pt;stroke-opacity:1"
         transform="scale(0.4,0.4)"
         inkscape:connector-curvature="0" /></marker><marker
       inkscape:stockid="TriangleOutS"
       orient="auto"
       refY="0"
       refX="0"
       id="TriangleOutS"
       style="overflow:visible"
       inkscape:isstock="true"><path
         id="path6388"
         d="m 5.77,0 -8.65,5 0,-10 8.65,5 z"
         style="fill-rule:evenodd;stroke:#000000;stroke-width:1pt;stroke-opacity:1"
         transform="scale(0.2,0.2)"
         inkscape:connector-curvature="0" /></marker><marker
       inkscape:stockid="Arrow1Mend"
       orient="auto"
       refY="0"
       refX="0"
       id="Arrow1Mend"
       style="overflow:visible"
       inkscape:isstock="true"><path
         id="path6249"
         d="M 0,0 5,-5 -12.5,0 5,5 0,0 Z"
         style="fill-rule:evenodd;stroke:#000000;stroke-width:1pt;stroke-opacity:1"
         transform="matrix(-0.4,0,0,-0.4,-4,0)"
         inkscape:connector-curvature="0" /></marker><marker
       inkscape:stockid="Arrow2Mend"
       orient="auto"
       refY="0"
       refX="0"
       id="Arrow2Mend"
       style="overflow:visible"
       inkscape:isstock="true"><path
         id="path6267"
         style="fill-rule:evenodd;stroke:#bc2233;stroke-width:0.625;stroke-linejoin:round;stroke-opacity:1;fill:#bc2233;fill-opacity:1"
         d="M 8.7185878,4.0337352 -2.2072895,0.01601326 8.7185884,-4.0017078 c -1.7454984,2.3720609 -1.7354408,5.6174519 -6e-7,8.035443 z"
         transform="scale(-0.6,-0.6)"
         inkscape:connector-curvature="0" /></marker><linearGradient
       id="linearGradient7066"
       osb:paint="solid"><stop
         style="stop-color:#000000;stop-opacity:1;"
         offset="0"
         id="stop7068" /></linearGradient><marker
       inkscape:stockid="EmptyTriangleOutM"
       orient="auto"
       refY="0"
       refX="0"
       id="EmptyTriangleOutM"
       style="overflow:visible"
       inkscape:isstock="true"><path
         id="path6403"
         d="m 5.77,0 -8.65,5 0,-10 8.65,5 z"
         style="fill:#ffffff;fill-rule:evenodd;stroke:#000000;stroke-width:1pt;stroke-opacity:1"
         transform="matrix(0.4,0,0,0.4,-1.8,0)"
         inkscape:connector-curvature="0" /></marker><marker
       inkscape:stockid="EmptyTriangleOutL"
       orient="auto"
       refY="0"
       refX="0"
       id="EmptyTriangleOutL"
       style="overflow:visible"
       inkscape:isstock="true"><path
         id="path6400"
         d="m 5.77,0 -8.65,5 0,-10 8.65,5 z"
         style="fill:#ffffff;fill-rule:evenodd;stroke:#000000;stroke-width:1pt;stroke-opacity:1"
         transform="matrix(0.8,0,0,0.8,-4.8,0)"
         inkscape:connector-curvature="0" /></marker><marker
       inkscape:stockid="TriangleOutL"
       orient="auto"
       refY="0"
       refX="0"
       id="TriangleOutL"
       style="overflow:visible"
       inkscape:isstock="true"><path
         id="path6382"
         d="m 5.77,0 -8.65,5 0,-10 8.65,5 z"
         style="fill:#bc2233;fill-opacity:1;fill-rule:evenodd;stroke:#bc2233;stroke-width:1pt;stroke-opacity:1"
         transform="scale(0.8,0.8)"
         inkscape:connector-curvature="0" /></marker><marker
       inkscape:stockid="Arrow2Lend"
       orient="auto"
       refY="0"
       refX="0"
       id="marker6544"
       style="overflow:visible"
       inkscape:isstock="true"><path
         id="path6546"
         style="fill-rule:evenodd;stroke:#000000;stroke-width:0.625;stroke-linejoin:round;stroke-opacity:1"
         d="M 8.7185878,4.0337352 -2.2072895,0.01601326 8.7185884,-4.0017078 c -1.7454984,2.3720609 -1.7354408,5.6174519 -6e-7,8.035443 z"
         transform="matrix(-1.1,0,0,-1.1,-1.1,0)"
         inkscape:connector-curvature="0" /></marker><marker
       inkscape:stockid="Arrow2Lend"
       orient="auto"
       refY="0"
       refX="0"
       id="marker6516"
       style="overflow:visible"
       inkscape:isstock="true"><path
         id="path6518"
         style="fill-rule:evenodd;stroke:#bc2233;stroke-width:0.625;stroke-linejoin:round;stroke-opacity:1"
         d="M 8.7185878,4.0337352 -2.2072895,0.01601326 8.7185884,-4.0017078 c -1.7454984,2.3720609 -1.7354408,5.6174519 -6e-7,8.035443 z"
         transform="matrix(-1.1,0,0,-1.1,-1.1,0)"
         inkscape:connector-curvature="0" /></marker><marker
       inkscape:stockid="Arrow2Lend"
       orient="auto"
       refY="0"
       refX="0"
       id="Arrow2Lend"
       style="overflow:visible"
       inkscape:isstock="true"><path
         id="path6261"
         style="fill-rule:evenodd;stroke:#bc2233;stroke-width:0.625;stroke-linejoin:round;stroke-opacity:1"
         d="M 8.7185878,4.0337352 -2.2072895,0.01601326 8.7185884,-4.0017078 c -1.7454984,2.3720609 -1.7354408,5.6174519 -6e-7,8.035443 z"
         transform="matrix(-1.1,0,0,-1.1,-1.1,0)"
         inkscape:connector-curvature="0" /></marker></defs><sodipodi:namedview
     pagecolor="#ffffff"
     bordercolor="#666666"
     borderopacity="1"
     objecttolerance="10"
     gridtolerance="10"
     guidetolerance="10"
     inkscape:pageopacity="0"
     inkscape:pageshadow="2"
     inkscape:window-width="2042"
     inkscape:window-height="1270"
     id="namedview201"
     showgrid="false"
     inkscape:zoom="1.5330061"
     inkscape:cx="342.01156"
     inkscape:cy="65.037289"
     inkscape:window-x="0"
     inkscape:window-y="0"
     inkscape:window-maximized="0"
     inkscape:current-layer="Contours"
     fit-margin-top="0"
     fit-margin-left="0"
     fit-margin-right="0"
     fit-margin-bottom="0" /><desc
     id="desc3" /><g
     style="fill:#bc2233;fill-opacity:1;stroke:none;stroke-linecap:round;stroke-linejoin:round;stroke-opacity:1"
     id="g4906"
     transform="matrix(-0.27907742,0.81574259,0.81574259,0.27907742,-60.400161,56.309085)"><g
       id="g5350"
       transform="matrix(0.29033041,-0.25652941,-0.25652941,-0.29033041,-27.583374,265.05537)"
       style="fill:#bc2233;fill-opacity:1;stroke:none;stroke-opacity:1"><path
         sodipodi:nodetypes="cccccccccccccscccccczccccccccccccccccccccccccccccccccccccccccccccccccscccccccccccccccccccccccccccccccccccccccccccccccccccccccccc"
         style="fill:#bc2233;fill-opacity:1;stroke:none;stroke-opacity:1"
         inkscape:connector-curvature="0"
         d="m 303,39.4 c 16,1.7 24.7,19.6 28.5,35.3 2.8,11.4 4.4,24 -0.8,34.5 -3.6,7.3 -10.2,12.7 -16.5,17.9 -17.5,14.2 -35.1,28.5 -52.6,42.8 7.8,2.4 15.6,4.9 23.4,7.4 8.4,2.6 17.1,5.4 23.4,11.6 8.8,8.6 11,21.6 12.7,33.8 1.8,12.7 3.6,25.9 0.3,38.4 -3.3,12.4 -13.1,24.1 -26,25.5 8.8,4.7 17.5,9.5 26.3,14.3 9.6,5.3 19.6,11 25.1,20.5 4.9,8.7 5.2,19.1 5,29.1 -0.1,8.6 -0.4,17.3 -3.2,25.4 -2.8,8.1 -8.6,15.6 -16.6,18.5 -6.7,2.5 -14,1.6 -21,0.7 -18.2,-2.4 -36.4,-4.8 -54.7,-7.1 -14,-1.9 -28.3,-3.7 -41.6,-8.7 -6.5,-2.4 -12.9,-5.6 -17.9,-10.3 -9.6,-9.2 -13.2,-22.8 -15.9,-35.8 -4.83823,-28.99683 -10.79803,-82.26611 -12.4,-104.3 -1.60197,-22.03389 -2.7549,-53.21358 -3.4,-82.6 -0.4,-19.3 0,-40.5 12.7,-54.9 6.9,-7.7 16.5,-12.3 25.9,-16.5 26.1,-11.7 52.9,-21.6 79.7,-31.5 6.3,-2.4 12.9,-4.8 19.6,-4 m 14.4,32.2 c -8.5,-2.4 -17.7,-2.1 -26,0.8 -4.8,-4.7 -8.7,-10.3 -11.3,-16.5 -1.6,3.3 -2.2,7.1 -1.8,10.8 21.91009,9.681495 12.5691,17.040706 3.2,18.7 -15.2,4.4 -28.14752,9.080347 -42.84752,15.18035 -1.79066,2.79396 -1.46771,4.41003 -2.68337,6.51592 C 229.55624,101.55253 218.6,102.1 210.8,104.2 c -7.4,1.9 -14.5,5.7 -18.9,11.9 -4.3,6.1 -2.3272,13.36131 -1.3,21.3 -2.9,-8.9 -5.8,-17.7 -8.8,-26.6 -0.6,-2 -2.7,-4.4 -4.3,-3 18,81.1 24,164.8 17.8,247.7 -0.6,7.1 6.2,12.4 12.6,15.5 16.8,8.1 35.6,10.6 54.1,13.1 16.6,2.1 33.2,4.3 49.8,6.5 5.6,0.7 11.4,1.4 16.8,-0.2 10.9,-3.5 16.7,-15.6 18.1,-27 0.8,-6.4 -0.3,-14.4 -6.2,-17.1 C 320,336.7 300.1,326 280.7,314.4 268.5,307 256,298.7 249.3,286 244,276 242.9,264.3 242,253 c -2,-24.2 -4,-48.4 -6,-72.5 -0.8,-9.2 -1.5,-18.8 1.6,-27.5 2.9,-8.3 8.9,-15 15,-21.2 20.3,-20.6 43.1,-38.6 67.9,-53.3 2.7,-1.6 5.5,-5.5 2.8,-7.1 -1.9,2.6 -4,5.4 -7,6.4 -3.1,1 -7.2,-0.8 -7.4,-4 3,0.7 6.2,-0.2 8.5,-2.2 m 18.6,263 c -0.8,-3.3 -1.6,-6.5 -2.4,-9.8 -20.1,0.1 -39.1,-15.2 -43.2,-34.8 -14.5,-4.5 -25.1,-17.5 -30.4,-31.7 -5.2,-14.2 -6,-29.7 -6.8,-44.8 -0.6,-12.6 -1.1,-25.6 3.3,-37.4 11.3,-29.5 48.6,-39.7 67.7,-64.9 5.5,-7.2 8.3,-19.5 0.4,-23.9 -6.3,-3.5 -13.9,1.3 -19.5,5.8 -11.1,9.1 -22.2,18.1 -33.3,27.1 -11.9,9.8 -24.5,20.4 -29,35.2 -2.8,9.1 -2.2,18.8 -1.5,28.2 1.4,21 2.9,42 4.3,62.9 0.9,13.4 2,27.3 8.9,38.8 6.6,11 17.7,18.5 28.8,25.2 20.3,12.4 41.4,23.5 63.1,33.2 0.9,-12.7 -6.6,-24.8 -16.5,-32.7 -10,-7.9 -22.1,-12.4 -34.1,-16.8 3.7,9.4 14.7,13 24.1,16.3 9.5,3.3 20.2,9.5 20.5,19.5 0.4,2.4 -1.9,4.9 -4.4,4.6 M 298.3,190.2 c -12.1,-0.3 -21.4,-12.7 -33.5,-12.8 -1.1,0 -2.3,0.1 -3.2,0.9 -0.8,0.7 -1,1.9 -1.2,2.9 -3.5,20.4 -0.9,41.2 1.9,61.7 1,6.8 2,13.8 5,20.1 4.4,9.1 12.8,15.9 22,20.3 1.1,0.5 2.3,1 3.6,0.9 1.2,-0.1 2.3,-0.8 3.4,-1.5 4.3,-2.9 8.7,-5.8 13.1,-8.6 2.1,-1.4 4.3,-2.9 5.6,-5.1 1.7,-2.6 1.8,-5.8 1.9,-8.9 0.5,-19.2 0.9,-38.9 -5.5,-56.9 -2.3,-6.2 -6.5,-12.9 -13.1,-13 M 316.5,68.5 c -0.1,1.1 1.7,0.9 2.5,0.1 3.8,-4.1 2,-11 -1.6,-15.3 -7,-8.5 -20.2,-11.1 -30,-6.1 3.6,0.4 4.7,5.4 7.9,7.3 3.7,2.2 8.3,-0.8 12.6,-1 3.6,-0.2 7.2,1.7 8.9,4.9 1.8,3.1 1.7,7.2 -0.3,10.1 M 188.7,308.6 c 1.4,-15.5 2.2,-31 2.4,-46.5 0,-3.1 -0.5,-6.9 -3.4,-7.8 -0.9,13.8 -1.6,27.5 -1.9,41.2 -0.1,4.6 0,9.6 2.9,13.1 m -15.2,-172 c -0.2,8.3 -0.3,16.5 -0.5,24.8 0,1.3 0,2.8 0.8,3.9 0.7,1.1 2.6,1.5 3.4,0.4 0.3,-0.4 0.4,-1 0.5,-1.6 1.1,-10.3 0.5,-20.7 -1.6,-30.8 -1.5,-0.8 -2.6,1.6 -2.6,3.3 M 296.7,61.8 c -0.7,0.4 -1,1.4 -0.6,2.1 4.5,1.8 9.7,1.8 14.2,-0.1 1.4,-0.6 3,-2 2.3,-3.4 -0.4,-0.9 -1.6,-1.1 -2.6,-1.1 -4.6,-0.2 -9.2,0.7 -13.3,2.5 m -4,-1.9 c -2.8,-3.3 -5.5,-6.6 -8.3,-9.9 -0.9,-1.1 -2.7,-0.6 -4,0 l -6.3,3 c 1.6,1.6 4.1,-0.6 6.4,-0.7 2.7,-0.1 4.3,2.8 5.7,5.1 1.4,2.2 4.6,4.4 6.5,2.5 m 21.4,252.9 c 0.9,2.8 3.7,4.6 6.5,5.5 2.1,0.6 4.4,0.9 6.6,0.8 -3.5,-3.4 -8.2,-5.7 -13.1,-6.3"
         id="path4830" /></g><path
       id="path4838"
       d="m -25.607537,151.38036 c 1.014589,1.7919 2.425501,3.38872 4.107851,4.5906 -0.09646,-1.10386 -0.321177,-2.35288 -1.310897,-2.77088"
       inkscape:connector-curvature="0"
       style="fill:#bc2233;fill-opacity:1;stroke:none;stroke-opacity:1"
       sodipodi:nodetypes="ccc" /><path
       id="path4844"
       d="m -57.224943,109.1607 c 0.02088,0.55024 0.31858,1.06269 0.648688,1.49481 0.737175,0.95133 1.641788,1.85811 2.809086,2.0675 1.163918,0.26407 2.549356,-0.39137 2.758743,-1.55867 -1.173275,-1.44489 -2.34993,-2.8351 -3.526585,-4.22531 -1.201099,0.33748 -2.666876,0.96051 -2.689932,2.22167"
       inkscape:connector-curvature="0"
       style="fill:#bc2233;fill-opacity:1;stroke:none;stroke-opacity:1" /><path
       id="path4846"
       d="m -61.181473,103.45411 c -1.089131,1.63442 -1.651682,3.63076 -1.525589,5.58732 0.03302,0.79802 0.329325,1.777 1.142854,1.93707 0.454568,-2.46962 0.584399,-5.01421 0.382735,-7.52439"
       inkscape:connector-curvature="0"
       style="fill:#bc2233;fill-opacity:1;stroke:none;stroke-opacity:1" /><path
       id="path4848"
       d="m -13.088432,151.33073 c -0.673736,-0.64548 -1.376506,-1.26532 -2.079276,-1.88515 -0.251907,2.25696 -2.496226,4.55605 -4.689228,4.81539 3.565661,1.66901 4.985127,-0.82588 6.768504,-2.93004"
       inkscape:connector-curvature="0"
       style="fill:#bc2233;fill-opacity:1;stroke:none;stroke-opacity:1"
       sodipodi:nodetypes="cccc" /><path
       id="path4850"
       d="m 27.03635,152.27376 c -0.540883,1.2017 -0.05625,2.68637 0.84498,3.64784 0.901233,0.96147 2.157623,1.50574 3.359327,2.04662 0.507686,0.22351 1.240877,0.35117 1.409703,-0.15989 -1.935499,-1.5469 -2.228247,-4.8038 -0.578736,-6.62316 -1.70263,-0.87377 -4.241846,-0.64645 -5.035274,1.08859"
       inkscape:connector-curvature="0"
       style="fill:#bc2233;fill-opacity:1;stroke:none;stroke-opacity:1" /><path
       id="path4852"
       d="m 34.025724,164.86499 c 1.629443,-0.11955 4.427573,-0.13805 5.693319,1.58703 0.594181,-0.7318 1.205263,-1.73703 0.734758,-2.56209 -0.444853,-0.79602 -0.634141,-0.76594 -2.478374,-0.75703 -1.844233,0.009 -2.266979,-0.32283 -8.212434,0.5354 -5.945455,0.85823 -18.566372,0.63651 -27.4678752,-1.8899 2.7975584,2.69808 7.2429953,5.34252 10.0570942,5.58961 2.814099,0.24709 11.386402,-0.84134 12.310318,-1.17503 0.923916,-0.33369 7.733751,-1.20844 9.363194,-1.32799 z"
       inkscape:connector-curvature="0"
       style="fill:#bc2233;fill-opacity:1;stroke:none;stroke-opacity:1"
       sodipodi:nodetypes="zcczzczzz" /><path
       id="path4856"
       d="m -41.200048,78.147458 c -2.496237,3.084509 -5.031647,6.358729 -5.683469,10.243425 -0.255321,1.466382 -2.409743,2.129195 -2.44632,3.609096 1.170679,0.154701 2.260414,-0.601367 3.080099,-1.429021 3.297635,-3.172212 5.20325,-7.802837 5.04969,-12.4235"
       inkscape:connector-curvature="0"
       style="fill:#bc2233;fill-opacity:1;stroke:none;stroke-opacity:1" /><path
       id="path4862"
       d="m -26.028795,75.599356 c 1.804637,0.111543 3.944151,0.133995 5.048794,-1.307338 0.862239,-1.072051 -0.304276,-2.626315 -1.557286,-3.225264 -1.863308,-0.938593 -4.102053,-1.131863 -6.089037,-0.513596 -0.698785,0.203836 -1.433363,0.542696 -1.80204,1.178647 -0.585429,1.034266 0.04437,2.390671 1.020566,3.027406 0.9762,0.636734 2.204944,0.74013 3.379003,0.840145 m 3.588569,-2.550386 c -0.565149,0.70615 -1.537364,0.893085 -2.470406,0.890309 -1.29019,0.0026 -2.614786,-0.326303 -3.81311,-0.921872 1.837834,-1.313672 4.469521,-1.260799 6.283516,0.03156"
       inkscape:connector-curvature="0"
       style="fill:#bc2233;fill-opacity:1;stroke:none;stroke-opacity:1" /><path
       id="path4864"
       d="m -18.565603,148.46703 c 0.652247,-0.78311 1.015552,-1.77621 1.050741,-2.78959 0.09881,-2.93077 -3.091695,-5.48846 -5.938141,-4.73118 -2.849827,0.81196 -4.321939,4.64596 -2.691679,7.13465 1.604607,2.45966 5.709436,2.65848 7.579079,0.38612 m -3.101589,4.2e-4 c -0.980967,-0.11552 -1.760696,-0.82246 -2.343953,-1.59959 -0.381414,-0.49018 -0.675729,-1.05732 -0.693234,-1.66225 0.03181,-0.95869 0.819081,-1.70601 1.688684,-2.00908 1.626455,-0.5582 3.628168,0.3615 4.077005,1.98119 0.448837,1.6197 -1.069029,3.52954 -2.728502,3.28973"
       inkscape:connector-curvature="0"
       style="fill:#bc2233;fill-opacity:1;stroke:none;stroke-opacity:1" /><path
       id="path4866"
       d="m 32.351635,153.31593 c -0.554404,1.42044 0.02608,3.13062 1.175088,4.07996 1.174663,0.97837 2.747036,1.29513 4.262731,1.19669 2.20434,-0.13823 4.628207,-1.60781 4.654039,-3.80201 0.02982,-1.37053 -0.854516,-2.60543 -2.023807,-3.22665 -1.140257,-0.64688 -2.52968,-0.8151 -3.855664,-0.67748 -1.683132,0.14299 -3.567504,0.87739 -4.212387,2.42949 m 8.472947,0.5786 c 0.340248,0.26806 0.226109,0.7825 0.01274,1.12613 -0.931833,1.75394 -3.315139,2.56729 -5.101488,1.71579 -0.507687,-0.22351 -0.899241,-0.54963 -1.174663,-0.97837 -0.793853,-1.36654 0.472856,-3.20957 2.027724,-3.49773 1.551488,-0.23347 3.064407,0.60112 4.23569,1.63418"
       inkscape:connector-curvature="0"
       style="fill:#bc2233;fill-opacity:1;stroke:none;stroke-opacity:1" /><path
       id="path4870"
       d="m 2.1056758,124.87731 c 2.3083394,-0.48861 3.3334274,-3.30723 3.0669368,-5.65674 -0.250978,-2.15641 -2.2789482,-3.9835 -4.47314769,-4.00933 -2.16516641,-0.0515 -4.25216531,1.74084 -4.55142721,3.91814 -0.3127824,2.39604 1.4592628,4.81115 3.77357893,5.55804 0.69739736,0.26269 1.45962097,0.3647 2.18405917,0.18989 m -3.7465381,-5.99553 c 0.1891065,-0.83919 0.70632886,-1.65809 1.51448605,-1.85516 0.83719023,-0.22273 1.68512515,0.26884 2.33320885,0.88529 1.0619109,1.0263 1.7517646,2.74323 0.9340715,3.98272 -0.730594,1.16253 -2.47179299,1.35683 -3.57625731,0.57493 -1.10446429,-0.7819 -1.50537549,-2.28884 -1.17647609,-3.61344"
       inkscape:connector-curvature="0"
       style="fill:#bc2233;fill-opacity:1;stroke:none;stroke-opacity:1" /><path
       id="path4872"
       d="m -32.729988,89.430387 c 1.498794,0.174982 2.895581,1.112187 3.667161,2.395014 0.400486,-1.594646 -1.061731,-3.24953 -2.692171,-3.514991 -1.659472,-0.239808 -3.302827,0.591831 -4.470909,1.727321 -2.161965,2.117061 -3.073697,5.766114 -1.359718,8.232534 0.579878,0.831818 1.443325,1.516479 2.424293,1.632007 0.627199,0.06621 1.296951,-0.111969 1.889744,-0.377251 1.891132,-0.843771 3.248321,-2.818443 3.347731,-4.870858 0.128444,-2.078067 -1.00427,-4.179191 -2.806131,-5.223776 m 0.0034,7.493368 c -0.481429,0.683877 -1.181602,1.354233 -2.030925,1.329185 -1.396183,-0.05885 -1.944251,-1.849362 -1.830716,-3.242165 0.152709,-1.582513 1.120335,-3.471474 2.735262,-3.399104 1.122753,0.04195 2.017225,1.112791 2.113681,2.216651 0.151142,1.10724 -0.328295,2.202952 -0.987302,3.095433"
       inkscape:connector-curvature="0"
       style="fill:#bc2233;fill-opacity:1;stroke:none;stroke-opacity:1" /><path
       id="path4878"
       d="m -49.465265,113.72999 c 0.906181,-1.78297 1.825881,-3.78468 1.200854,-5.66229 -0.373266,-1.06608 -1.175268,-1.85673 -1.977269,-2.64738 -0.904613,-0.90679 -1.834879,-1.8426 -2.768525,-2.72374 -0.516439,-0.52597 -1.113217,-1.08436 -1.817375,-1.23767 -1.331356,-0.21953 -2.448132,0.97403 -3.200999,2.05284 -1.053337,1.4994 -2.062129,3.16623 -2.064301,4.97763 -0.02523,3.07256 2.548215,5.39997 4.929954,7.27637 0.574505,0.47467 1.178043,0.92369 1.911234,1.05135 1.739811,0.27222 2.977487,-1.54516 3.786427,-3.08711 m -5.320724,-8.94737 c 1.122753,0.0419 2.179291,0.7111 3.010326,1.4761 1.113216,1.08436 1.958376,2.50897 2.082477,4.0537 0.153134,1.51907 -0.498509,3.18054 -1.813748,4.03246 -0.341637,0.19846 -0.708926,0.36789 -1.120761,0.36988 -0.331496,0.0344 -0.681884,-0.0696 -0.977587,-0.17021 -2.230597,-0.76916 -4.349047,-2.46461 -4.837661,-4.77295 -0.459582,-2.33399 1.273044,-5.05398 3.656954,-4.98898"
       inkscape:connector-curvature="0"
       style="fill:#bc2233;fill-opacity:1;stroke:none;stroke-opacity:1" /><path
       id="path4880"
       d="m 9.7491998,171.73595 c 1.3965712,0.57853 3.1210432,2.63063 4.1640612,3.51852 0.367241,-1.24754 0.515817,-1.24759 -0.08493,-1.73444 -1.700201,-2.57964 -6.8037182,-5.21873 -10.1288185,-4.71062 -1.5258351,0.2625 -2.89238028,1.05636 -4.13066074,1.99538 -1.41247876,1.09293 -2.67779996,2.46944 -3.24910396,4.16332 -0.5456511,1.72291 -0.236607,3.82801 1.1210066,4.95493 1.1712829,1.03306 2.97254017,1.19929 4.3357052,0.46012 0.4193786,-1.45624 0.5140214,-2.98745 0.3318542,-4.48087 -1.0100006,-0.0899 -2.09158769,0.0903 -3.02601735,0.55404 -0.65345605,-0.9736 -0.42716845,-2.41433 0.46947571,-3.15488 3.01093004,2.35445 7.99689034,1.61963 10.19742474,-1.5655 m -2.3001914,-0.0873 c -1.6481231,1.35284 -4.132653,1.58354 -5.9601676,0.50992 1.2187833,-1.95578 4.3919581,-2.22625 5.9601676,-0.50992"
       inkscape:connector-curvature="0"
       style="fill:#bc2233;fill-opacity:1;stroke:none;stroke-opacity:1"
       sodipodi:nodetypes="ccccccccccccccc" /><path
       id="path4884"
       d="m -5.1580568,136.98277 c 2.4370728,2.81486 3.8792321,4.60128 7.9493778,8.33038 1.5542638,-1.16652 2.1971543,-3.13044 2.7495656,-4.96273 0.8117163,-2.47499 1.1158326,-5.59361 2.7588432,-7.17054 1.6430106,-1.57693 2.9229102,-2.61334 2.3473062,-4.40258 -0.575604,-1.78924 -1.5355227,-5.10995 -3.4311471,-7.19093 0.2928359,1.30443 0.1987312,1.56046 0.3182733,3.45032 0.1195421,1.88986 -2.1123489,4.64333 -4.1563378,5.9028 -2.60863105,-1.31403 -5.5355973,-2.35237 -8.3289907,-2.46358 -2.7933934,-0.11121 -4.0647807,0.38161 -5.7448037,0.57813 1.1376541,2.63551 3.1008404,5.11387 5.5379132,7.92873 z"
       inkscape:connector-curvature="0"
       style="fill:#bc2233;fill-opacity:1;stroke:none;stroke-opacity:1"
       sodipodi:nodetypes="zcczzczczcz" /><path
       id="path4886"
       d="m -30.393534,142.21901 c -3.929845,-3.57752 -8.079127,-8.15884 -9.230291,-10.97307 0.0201,1.89512 1.266955,3.4818 2.465883,4.95572 2.577427,3.15108 5.902775,7.41751 8.505854,10.59762 -0.733545,-1.51168 -0.899492,-2.69358 -0.488437,-3.98129 0.820741,-2.06886 1.728642,-3.54366 3.57722,-4.14304 1.848579,-0.59937 3.887473,-0.28122 5.615756,0.62158 2.473606,1.27824 4.296957,3.75142 4.84225,6.47498 0.465917,-0.87697 0.372841,-2.03552 -0.207037,-2.86734 0.243009,0.50908 1.008613,0.5564 1.338117,0.11016 -4.038257,-5.27248 -9.295553,-11.80527 -12.32898,-15.79425 -3.033427,-3.98898 -3.865211,-5.51781 -4.875637,-8.70928 -0.456381,-0.16544 -0.978976,0.29631 -0.896644,0.74056 0.822102,2.68577 2.447208,5.05677 3.857705,7.10334 1.410497,2.04657 2.568158,3.93568 4.485513,6.03718 1.917354,2.10149 2.831375,3.28944 2.769654,4.97124 -1.413687,-0.66377 -4.322827,-0.65208 -5.715025,0.11274 -2.594396,1.54253 -3.489614,3.30243 -3.715901,4.74315 z"
       inkscape:connector-curvature="0"
       style="fill:#bc2233;fill-opacity:1;stroke:none;stroke-opacity:1"
       sodipodi:nodetypes="cccccscccczcczzccc" /><path
       id="path4888"
       d="m 8.7740748,157.75982 c -0.611507,-2.09636 -1.223014,-4.19271 -1.8635541,-6.26342 -5.3645985,-0.6884 -9.5798289,-4.87392 -13.0841415,-9.01551 -2.8920222,-3.3901 -5.6679122,-6.88282 -8.2696042,-10.52945 -2.150079,-2.95999 -4.238712,-6.02596 -5.425328,-9.47534 -1.534229,-4.48642 -1.50007,-9.47975 0.03826,-13.94094 -1.242835,-1.64058 -2.117079,-6.18706 -2.055078,-8.937657 -0.954106,1.670217 -0.863842,1.769387 -2.257635,5.294887 -1.393793,3.5255 -2.122661,11.3969 0.362115,16.49102 1.071268,2.20711 2.542238,4.16446 4.013208,6.12181 5.384342,7.02998 10.7396504,14.08561 16.0983394,21.08656 3.24977542,4.26309 7.135502,8.89485 12.4434224,9.16804"
       inkscape:connector-curvature="0"
       style="fill:#bc2233;fill-opacity:1;stroke:none;stroke-opacity:1"
       sodipodi:nodetypes="ccccccczcccc" /></g><path
     d="m 252.43186,117.37648 c 1.9,1.7 4.8,2.1 7.2,1.1 -1.2,-2.9 -5.6,-3.5 -7.5,-1.2"
     id="path7"
     inkscape:connector-curvature="0"
     style="fill:#000000;fill-opacity:1;stroke:none" /><path
     d="m 314.13186,147.57648 c -2.1,-1.3 -4.9,-1.3 -6.9,0 0.7,2.8 5.4,3 6.4,0.3"
     id="path13"
     inkscape:connector-curvature="0"
     style="fill:#000000;fill-opacity:1;stroke:none" /><path
     d="m 248.93186,66.976483 c 0.4,-1 0.7,-2.1 1,-3.1 -1.7,-0.2 -3.1,1.5 -3.3,3.2 -0.1,1.7 0.6,3.3 1.3,4.8 1.94667,0.71381 2.03717,-3.14464 2.6,-1.4"
     id="path35"
     inkscape:connector-curvature="0"
     style="fill:#000000;fill-opacity:1;stroke:none"
     sodipodi:nodetypes="ccccc" /><path
     d="m 367.56221,253.74989 c -2.9,-1.3 -5.23035,-2.37341 -8.13035,-3.67341 1.2,1.1 1.9,2.8 1.9,4.4 2.6,0.5 5.2,1.2 7.6,2.2 0.8,-0.9 0.4,-2.6 -0.6,-3.2"
     id="path57"
     inkscape:connector-curvature="0"
     style="fill:#000000;fill-opacity:1;stroke:none"
     sodipodi:nodetypes="ccccc" /><path
     d="m 351.63186,265.07648 c 3.3,-1.1 6.1,-3.5 7.7,-6.5 1,-1.8 0.5,-5 -1.5,-4.5 -0.6,1.9 -1.2,3.8 -1.9,5.6 -2.7,-0.2 -5.1,2.8 -4.3,5.4"
     id="path73"
     inkscape:connector-curvature="0"
     style="fill:#000000;fill-opacity:1;stroke:none" /><path
     d="m 333.90644,268.39295 c 5.6,1.3 11.7,0.3 16.6,-2.6 -0.8,-0.4 -1.3,-1.3 -1.1,-2.2 -5.2,1.6 -10.4,3.2 -15.5,4.8"
     id="path81"
     inkscape:connector-curvature="0"
     style="fill:#000000;fill-opacity:1;stroke:none" /><path
     d="m 317.34607,120.7997 c -1.3052,-9.23033 -1.68195,-15.01258 -1.49809,-20.48959 0.18385,-5.477007 0.38388,-9.533627 -0.0161,-11.333627 -3.1,9.7 -2.66256,16.587687 -2.2,30.399997"
     id="path129"
     inkscape:connector-curvature="0"
     style="fill:#000000;fill-opacity:1;stroke:none"
     sodipodi:nodetypes="czcc" /><path
     d="m 281.13186,183.57648 c 4.1,6.8 8.3,13.5 12.4,20.2 0.7,1.1 1.4,2.2 2.1,3.3 2,-1.5 1.1,-4.6 0.1,-6.9 -3.1,-7 -7.2,-14.8 -14.6,-16.6"
     id="path133"
     inkscape:connector-curvature="0"
     style="fill:#000000;fill-opacity:1;stroke:none" /><path
     d="m 206.93186,114.17648 c 1.7,-4.1 -3.3,-7.6 -7.4,-9.2 -5.8,-2.1 -13.4,-3.5 -17.1,1.5 2.2,2.5 6.4,5 8.4,2.3 1.9,-2.5 5.9,-1.9 8.6,-0.1 2.6,1.7 4.6,4.3 7.5,5.5"
     id="path135"
     inkscape:connector-curvature="0"
     style="fill:#000000;fill-opacity:1;stroke:none" /><path
     d="m 297.13186,94.676483 c 2.8,0 5.1,-2.2 6.8,-4.4 3.4,-4.6 5.9,-10.4 4.6,-15.9 -1,-4.3 -4.1,-8.2 -3.4,-12.5 -0.8,-0.2 -1.3,0.7 -1.6,1.4 -3.4,10.3 0.5,23 -6.4,31.4"
     id="path145"
     inkscape:connector-curvature="0"
     style="fill:#000000;fill-opacity:1;stroke:none" /><path
     d="m 286.23186,178.77648 c 3.5,-0.9 7.5,0.8 9.3,3.9 2.8,-0.9 5.6,-1.7 8.4,-2.6 1.3,1.8 3.7,3 6,2.9 -1.7,-0.7 0,-3.3 1.8,-3.6 1.7,-0.2 4.1,-0.3 4.5,-2 -5.6,-1.5 -11.4,2.2 -17.2,1.9 -6.1,-0.3 -13,-4.7 -17.6,-0.7 0.9,1.8 1.9,3.5 2.9,5.3 2.2,-0.3 3.4,-3.4 1.9,-5.1"
     id="path155"
     inkscape:connector-curvature="0"
     style="fill:#000000;fill-opacity:1;stroke:none" /><path
     d="m 351.83186,230.07648 c 0.2,-2.9 0.3,-5.7 0.5,-8.6 -1,-0.9 -2.7,-0.6 -3.5,0.5 -1.6,-1.9 -2.5,-4.3 -2.6,-6.7 -2.9,0.5 -6.1,-1.7 -6.6,-4.7 1.2,-2.7 3.3,-4.9 5.9,-6.2 -0.3,-4.5 -0.7,-8.9 -1,-13.3 -0.3,-4.8 -1.7,-10.9 -6.5,-11.7 -1.9,-0.2 -3.7,0.4 -5.4,1.1 -6.6,2.7 -13.2,6 -18.2,11.2 -11.1,11.7 -10.8,32.4 0.8,43.7 2.5,2.4 5.6,4.7 6.7,8 4.5,-0.2 9,0.6 13.1,2.4 1.5,0.7 3.2,2.5 2.2,3.8 4.5,1.4 9.4,-1.6 11.7,-5.7 2.4,-4.2 2.7,-9.1 2.9,-13.8 m -26.3,0.6 c 1.1,-1.4 2.6,-2.5 4.4,-3 0.4,2.4 0.1,5.3 -1.8,7 -1.8,1.7 -5.4,1.3 -6.3,-1 -0.3,-0.8 -0.3,-1.7 -0.2,-2.5 0.2,-4.5 0.4,-8.9 0.6,-13.3 3.6,3 5,8.4 3.3,12.8 m 8.5,-18.5 c -2.1,3.9 -2.7,8.6 -1.8,12.9 -4,-2.1 -6.1,-7.2 -4.8,-11.6 1.8,-1.3 4.3,-1.8 6.6,-1.3 m 3.3,9.3 c 0.5,-1.4 0.9,-2.8 1.4,-4.2 2.7,1.2 5,3.6 5.3,6.6 0.3,3 -2.3,6.1 -5.3,5.7 -1.8,-0.8 -0.5,-4.4 1.4,-3.7 1,-1.8 -0.9,-3.8 -2.8,-4.4"
     id="path185"
     inkscape:connector-curvature="0"
     style="fill:#000000;fill-opacity:1;stroke:none" /><path
     d="m 325.86294,36.800947 c -0.7,-0.7 -0.39251,2.360209 -1.49289,12.313706 -1.10039,9.9535 -3.44009,14.16183 -7.93819,33.06183 7.76028,-16.68181 11.32269,-29.03866 12.82687,-44.489174"
     id="path187"
     inkscape:connector-curvature="0"
     style="fill:#000000;fill-opacity:1;stroke:none"
     sodipodi:nodetypes="czcc" /><path
     d="m 229.26525,56.490083 c -0.11186,-15.295056 0.6595,-30.0136 3.4595,-35.2136 -6.54829,-3.217549 -6.44683,10.770716 -6.04683,15.170716 -6.29024,-9.596573 -12.85317,-14.970716 -19.45317,-12.770716 -6.6,2.3 -6.68093,9.875742 -1.5,15.6 6.01987,8.24777 7.57551,14.11009 12,24.5 -3.6,5.1 -9,9 -15,10.9 -14.4,3 -27.5,12.7 -33.7,26.099997 -6.1,13.4 -4.9,30.1 3.8,41.9 17.7,24 56.2,21.5 77.2,42.7 14.4,14.5 17.1,36.5 23.3,55.9 12.60001,39.7 43.30001,73.3 81.80001,89.3 3.9,1.6 8.2,3.1 12.3,2.2 9.1,-2 11.8,-13.5 12.2,-22.8 0.5,-13.7 0,-27.5 -1.8,-41.1 -0.4,-3.4 -2.4,-8 -5.8,-7 2.5,7.8 3.1,16.1 1.9,24.2 -7.4,-7.1 -19.2,-6 -29.2,-8.3 -22.5,-5.1 -36.2,-27.5 -45.7,-48.5 -9.6,-21 -19,-44.3 -39.20001,-55.5 19.1,-0.8 38.10001,-1.6 57.20001,-2.5 8,-0.3 17.1,-0.3 22.6,5.6 1.2,-3 0.5,-6.3 0,-9.4 -2.2,-12.3 -2.8,-24.9 -1.8,-37.4 -2.3,1.8 -6.1,0.8 -7.4,-1.8 -5,3.3 -11.6,-0.2 -17.1,-2.7 -8.5,-3.9 -18.2,-5.2 -27.5,-3.8 -10.40001,1.7 -21.00001,6.6 -31.00001,3.3 -7.8,-2.6 -13.74334,-9.16355 -20.89169,-22.81267 -7.14835,-13.649117 -4.55596,-30.478667 -4.66781,-45.773727 z m -21.9405,85.586397 c -2.5,-1.6 -5,-3.3 -7.3,-5.2 -6.6,-5.4 -11.6,-12.5 -16.6,-19.5 -1.5,-2.1 -3.1,-4.4 -3.8,-6.9 -2,-6.9 3.2,-14.599997 10.2,-16.199997 7,-1.6 14.5,2.3 18.2,8.399997 1.8,2.9 2.8,6.2 3.7,9.5 3.1,11.9 4.9,24.1 5.2,36.4 -3.2,-2.1 -6.4,-4.3 -9.6,-6.5 m 68.6,-12.1 c 1.8,-0.8 3.7,-1.4 5.70001,-1.8 9.4,-1.8 19.7,2.6 25,10.6 -2.9,2 -6.9,0.4 -10.3,-1 -3.3,-1.3 -8,-1.9 -9.8,1.2 -0.8,1.4 -2.5,1.8 -4.1,2.1 -9.90001,1.7 -19.70001,3.4 -29.60001,5.1 -2.6,0.5 -4.5,-2.4 -5.6,-4.7 -1.3,-2.7 -2.5,-5.4 -3.8,-8.1 -2,-4.5 -4.2,-9.1 -4.7,-14 7.5,12 24.5,16.9 37.2,10.6 m 19.60001,11.7 c -1,6.8 3.6,14.1 10.2,16.1 2.4,0.7 1.8,4.5 -0.2,5.9 -2,1.5 -4.8,2 -6.4,3.8 -1.4,1.5 -3.4,-1 -3.9,-3 -1.3,-6 -2.6,-12.1 -4,-18.2 -0.4,-1.7 -0.7,-3.7 0.3,-5.2 1,-1.4 3.9,-1.2 4,0.6 m 5.3,6.4 c 0,-0.5 0.3,-1 0.6,-1.4 2.7,-3.5 7.7,-5.2 12,-4 2,0.6 4.1,2.3 3.9,4.4 -0.1,0.8 -0.6,1.6 -1,2.3 -1.7,2.7 -3.4,5.5 -5.1,8.2 -3.1,-2.7 -6.2,-5.3 -9.3,-7.9 -0.5,-0.5 -1,-0.9 -1.1,-1.6 m 15.9,12 c -0.4,-1.8 0.3,-3.7 1.2,-5.3 1.3,-2.4 3,-4.6 5,-6.5 3.8,3.4 6.2,8.4 6.4,13.5 -2.2,1 -4.5,2 -6.9,2 -2.5,0 -5.1,-1.4 -5.7,-3.7 M 209.8346,29.103072 c 6.74969,-2.198835 8.94968,-0.292479 9.74968,1.207521 1.9,3.4 3.8,7.659534 4.2,11.559534 0.4,3.8 1.88697,23.557736 -5.68612,12.711546 C 210.52507,43.735487 203.08492,31.301907 209.8346,29.103072 Z M 332.32476,139.97648 c 2.8,0.8 3.7,4.4 3.2,7.3 -0.5,2.5 -1.9,4.8 -3.7,6.6 -2.6,-2.1 -5.1,-4.7 -5.4,-8 -0.3,-3.2 2.7,-6.8 5.9,-5.9 m -41.5,26.4 c -0.9,0.5 -1.7,1 -2.5,1.5 -2.2,-7.6 -4.5,-15.2 -6.7,-22.8 0.9,1.2 2.8,1.7 4.2,1 2.4,6.6 4.1,13.4 5,20.3 m -51.90001,-3.3 c -2.6,-3.3 -3.7,-7.7 -3.1,-11.8 3.5,2.6 4.9,7.8 3.1,11.8 m -11.8,-13.2 c -0.8,-0.9 -0.7,-2.5 0.2,-3.3 3.1,2 4.7,6.1 3.8,9.7 -2.2,-1.2 -3.8,-3.7 -3.8,-6.3 m 8.7,18 c -2.4,1.2 -4.5,-2 -5.2,-4.6 0.5,-1.4 2.7,-1.3 3.7,-0.2 0.9,1.1 0.9,2.7 1,4.2 m 7.6,5.6 c 0.7,0.8 0.7,2.2 0,3 -1.8,-1.5 -3.3,-3.4 -4.5,-5.5 0.9,-0.8 1.8,-1.7 2.6,-2.6 l 1.8,5.1"
     id="path199"
     inkscape:connector-curvature="0"
     style="fill:#000000;fill-opacity:1;stroke:none"
     sodipodi:nodetypes="zccccccccccccccccccccccccccczzccscscccccccccccccccccccccccccccccccccccsczcczzcccccccccccccccccccccccccc" /><g
     inkscape:groupmode="layer"
     id="layer1"
     inkscape:label="Tracker Details"
     transform="translate(-35.659901,-54.023517)" /><g
     inkscape:groupmode="layer"
     id="layer2"
     inkscape:label="Tracker"
     transform="translate(-35.659901,-54.023517)" /><path
     style="fill:none;fill-opacity:1;fill-rule:evenodd;stroke:#bc2233;stroke-width:5;stroke-linecap:butt;stroke-linejoin:miter;stroke-miterlimit:4;stroke-dasharray:15, 15;stroke-dashoffset:0;stroke-opacity:1;marker-end:url(#Arrow2Mend);marker-start:url(#Arrow2Mstart)"
     d="M 165.21087,84.145706 C 147.5332,69.296463 124.40743,57.927961 77.529625,70.710676"
     id="path6198"
     inkscape:connector-curvature="0"
     sodipodi:nodetypes="cc" /><circle
     style="fill:#bc2233;fill-opacity:1;stroke:none;stroke-width:5;stroke-miterlimit:4;stroke-dasharray:15, 15;stroke-dashoffset:0;stroke-opacity:1"
     id="path6200"
     cx="132.68396"
     cy="23.334524"
     r="23.334524" /><text
     xml:space="preserve"
     style="font-style:normal;font-weight:normal;font-size:40px;line-height:125%;font-family:sans-serif;letter-spacing:0px;word-spacing:0px;fill:#000000;fill-opacity:1;stroke:none;stroke-width:1px;stroke-linecap:butt;stroke-linejoin:miter;stroke-opacity:1"
     x="132.3071"
     y="35.355339"
     id="text6202"
     sodipodi:linespacing="125%"><tspan
       sodipodi:role="line"
       id="tspan6204"
       x="132.3071"
       y="35.355339"
       style="font-style:normal;font-variant:normal;font-weight:bold;font-stretch:condensed;font-family:'Myriad Pro';-inkscape-font-specification:'Myriad Pro Bold Condensed';text-align:center;text-anchor:middle;fill:#ffffff;fill-opacity:1">1</tspan></text>
<circle
     r="23.334524"
     cy="119.76981"
     cx="407.21878"
     id="circle6228"
     style="fill:#000000;fill-opacity:1;stroke:none;stroke-width:5;stroke-miterlimit:4;stroke-dasharray:15, 15;stroke-dashoffset:0;stroke-opacity:1" /><text
     sodipodi:linespacing="125%"
     id="text6230"
     y="131.79062"
     x="406.84192"
     style="font-style:normal;font-weight:normal;font-size:40px;line-height:125%;font-family:sans-serif;letter-spacing:0px;word-spacing:0px;fill:#000000;fill-opacity:1;stroke:none;stroke-width:1px;stroke-linecap:butt;stroke-linejoin:miter;stroke-opacity:1"
     xml:space="preserve"><tspan
       style="font-style:normal;font-variant:normal;font-weight:bold;font-stretch:condensed;font-family:'Myriad Pro';-inkscape-font-specification:'Myriad Pro Bold Condensed';text-align:center;text-anchor:middle;fill:#ffffff;fill-opacity:1"
       y="131.79062"
       x="406.84192"
       id="tspan6232"
       sodipodi:role="line">2</tspan></text>
<path
     style="fill:none;fill-opacity:1;fill-rule:evenodd;stroke:#000000;stroke-width:5;stroke-linecap:butt;stroke-linejoin:miter;stroke-miterlimit:4;stroke-dasharray:20, 20;stroke-dashoffset:0;stroke-opacity:1;marker-end:url(#marker9281)"
     d="m 367.44341,201.52543 c 65.76093,-1e-5 101.56243,-8.23215 131.52185,-93.33809"
     id="path6234"
     inkscape:connector-curvature="0"
     sodipodi:nodetypes="cc" /></svg>