<?xml version="1.0" encoding="UTF-8" standalone="no"?>
<svg
   xmlns:dc="http://purl.org/dc/elements/1.1/"
   xmlns:cc="http://creativecommons.org/ns#"
   xmlns:rdf="http://www.w3.org/1999/02/22-rdf-syntax-ns#"
   xmlns:svg="http://www.w3.org/2000/svg"
   xmlns="http://www.w3.org/2000/svg"
   id="svg3426"
   version="1.1"
   viewBox="0 0 71.059235 47.667918"
   height="47.667919"
   width="71.059235">
  <metadata
     id="metadata3460">
    <rdf:RDF>
      <cc:Work
         rdf:about="">
        <dc:format>image/svg+xml</dc:format>
        <dc:type
           rdf:resource="http://purl.org/dc/dcmitype/StillImage" />
        <dc:title></dc:title>
      </cc:Work>
    </rdf:RDF>
  </metadata>
  <!-- Generator: Sketch 50.2 (55047) - http://www.bohemiancoding.com/sketch -->
  <desc
     id="desc3428">Created with Sketch.</desc>
  <defs
     id="defs3430" />
  <g
     transform="translate(-5.9289939,-59.07919)"
     style="fill:none;fill-rule:evenodd;stroke:none;stroke-width:1"
     id="VirtualRealityAccess.com">
    <g
       transform="translate(-395.14396,-243.71208)"
       id="VRA">
      <g
         id="google-cardboard-gray"
         transform="translate(395,244)">
        <path
           d="m 70.32266,106.45919 -57.440175,0 c -3.7452417,0 -6.8095311,-3.01251 -6.8095311,-6.694458 l 0,-34.279 c 0,-3.681954 3.0642894,-6.694462 6.8095311,-6.694462 l 57.440175,0 c 3.745242,0 6.809531,3.012508 6.809531,6.694462 l 0,34.279 c 0,3.681948 -3.064289,6.694458 -6.809531,6.694458"
           id="badge"
           style="fill:#ffffff;fill-opacity:0.86274511" />
        <path
           d="m 55.640793,89.621117 c -3.789481,0 -6.857621,-3.015094 -6.857621,-6.738543 0,-3.723049 3.06814,-6.738143 6.857621,-6.738143 3.789481,0 6.85762,3.015094 6.85762,6.738143 0,3.723449 -3.068139,6.738543 -6.85762,6.738543 m -28.073435,0.0032 c -3.791106,0 -6.86087,-3.016293 -6.86087,-6.741738 0,-3.725045 3.069764,-6.741338 6.86087,-6.741338 3.791105,0 6.854777,3.016293 6.854777,6.741338 0,3.725445 -3.07017,6.741738 -6.854777,6.741738 m 41.084799,-25.896433 -54.260659,0 c -2.0239,0 -3.729776,1.677049 -3.729776,3.746208 l 0,30.817374 c 0,2.069154 1.705876,3.746204 3.810602,3.746204 l 14.82203,0 c 1.589307,0 2.951165,-0.95591 3.523852,-2.314723 l 4.309773,-10.233193 c 0.726622,-1.725764 2.456461,-2.939628 4.474675,-2.939628 2.017807,0 3.747646,1.213864 4.474268,2.939628 l 4.309773,10.233193 c 0.572687,1.358813 1.934545,2.314723 3.443026,2.314723 l 14.822436,0 c 2.185146,0 3.891022,-1.67705 3.891022,-3.746204 l 0,-30.817374 c 0,-2.069159 -1.705876,-3.746208 -3.891022,-3.746208"
           id="Google-Cardboard"
           style="fill:#888888;fill-opacity:1" />
      </g>
    </g>
  </g>
</svg>
