<?xml version="1.0" encoding="UTF-8" standalone="no"?>
<!-- Created with Inkscape (http://www.inkscape.org/) -->

<svg
   xmlns:dc="http://purl.org/dc/elements/1.1/"
   xmlns:cc="http://creativecommons.org/ns#"
   xmlns:rdf="http://www.w3.org/1999/02/22-rdf-syntax-ns#"
   xmlns:svg="http://www.w3.org/2000/svg"
   xmlns="http://www.w3.org/2000/svg"
   xmlns:sodipodi="http://sodipodi.sourceforge.net/DTD/sodipodi-0.dtd"
   xmlns:inkscape="http://www.inkscape.org/namespaces/inkscape"
   id="svg3390"
   version="1.1"
   inkscape:version="0.91 r13725"
   xml:space="preserve"
   width="295.13855"
   height="279.66776"
   viewBox="0 0 295.13855 279.66776"
   sodipodi:docname="title-video.svg"
   inkscape:export-filename="/Users/peter/Seafile/Still Footage/title.png"
   inkscape:export-xdpi="348"
   inkscape:export-ydpi="348"><metadata
     id="metadata3396"><rdf:RDF><cc:Work
         rdf:about=""><dc:format>image/svg+xml</dc:format><dc:type
           rdf:resource="http://purl.org/dc/dcmitype/StillImage" /><dc:title></dc:title></cc:Work></rdf:RDF></metadata><defs
     id="defs3394"><clipPath
       clipPathUnits="userSpaceOnUse"
       id="clipPath3406"><path
         d="m 0,0 595.276,0 0,841.89 L 0,841.89 0,0 Z"
         id="path3408"
         inkscape:connector-curvature="0" /></clipPath><clipPath
       clipPathUnits="userSpaceOnUse"
       id="clipPath3412"><path
         d="m 137,195 332,0 0,540 -332,0 0,-540 z"
         id="path3414"
         inkscape:connector-curvature="0" /></clipPath><clipPath
       clipPathUnits="userSpaceOnUse"
       id="clipPath3416"><path
         d="M 0,0 596,0 596,842 0,842 0,0 Z"
         id="path3418"
         inkscape:connector-curvature="0" /></clipPath><clipPath
       clipPathUnits="userSpaceOnUse"
       id="clipPath3420"><path
         d="m 198.377,698.457 43.087,0 0,35.717 -43.087,0 0,-35.717 z"
         id="path3422"
         inkscape:connector-curvature="0" /></clipPath><clipPath
       clipPathUnits="userSpaceOnUse"
       id="clipPath3424"><path
         d="M 0,0 596,0 596,842 0,842 0,0 Z"
         id="path3426"
         inkscape:connector-curvature="0" /></clipPath><clipPath
       clipPathUnits="userSpaceOnUse"
       id="clipPath3428"><path
         d="m 244.063,484.11 109.489,0 0,123.307 -109.489,0 0,-123.307 z"
         id="path3430"
         inkscape:connector-curvature="0" /></clipPath></defs><sodipodi:namedview
     pagecolor="#000000"
     bordercolor="#666666"
     borderopacity="1"
     objecttolerance="10"
     gridtolerance="10"
     guidetolerance="10"
     inkscape:pageopacity="0"
     inkscape:pageshadow="2"
     inkscape:window-width="2145"
     inkscape:window-height="1090"
     id="namedview3392"
     showgrid="false"
     fit-margin-top="0.5"
     fit-margin-left="0.5"
     fit-margin-right="0.5"
     fit-margin-bottom="0.5"
     inkscape:zoom="3.3207596"
     inkscape:cx="175.28514"
     inkscape:cy="174.98973"
     inkscape:window-x="443"
     inkscape:window-y="202"
     inkscape:window-maximized="0"
     inkscape:current-layer="layer3" /><g
     id="g3398"
     inkscape:groupmode="layer"
     inkscape:label="Title"
     transform="matrix(1.25,0,0,-1.25,-222.30987,806.41264)"
     style="display:none"><g
       id="g3400" /><g
       id="g3402" /></g><g
     inkscape:groupmode="layer"
     id="layer3"
     inkscape:label="Tracker After"
     style="display:none"
     transform="translate(-48.512875,42.381505)"><g
       id="g5869"
       style="fill:#ff5555;fill-opacity:0.18263472"><path
         d="m 244.7827,570.9106 c -1.361,1.612 -0.561,4.096 0.502,5.928 0.767,1.334 1.758,2.671 3.203,3.195 1.002,0.364 2.118,0.278 3.185,0.199 2.946,-0.241 5.909,-0.483 8.863,-0.715 -0.522,0.934 -1.034,1.878 -1.545,2.822 -0.56,1.008 -1.131,2.062 -1.165,3.22 -0.054,1.613 0.918,3.043 1.862,4.352 0.981,1.366 2.007,2.781 3.452,3.664 1.437,0.876 3.427,1.095 4.774,0.058 -0.406,1.244 -0.795,2.488 -1.194,3.739 -0.427,1.373 -0.859,2.819 -0.517,4.216 0.324,1.269 1.238,2.281 2.164,3.211 0.789,0.805 1.606,1.602 2.606,2.116 0.999,0.513 2.229,0.697 3.248,0.247 0.863,-0.372 1.472,-1.119 2.053,-1.838 1.507,-1.878 3.013,-3.755 4.537,-5.633 1.154,-1.449 2.346,-2.915 3.151,-4.594 0.399,-0.818 0.715,-1.7 0.763,-2.599 0.074,-1.742 -0.819,-3.356 -1.741,-4.832 -2.171,-3.185 -6.435,-8.77 -8.281,-11.002 -1.846,-2.233 -4.564,-5.29 -7.168,-8.133 -1.712,-1.862 -3.672,-3.835 -6.179,-4.047 -1.353,-0.104 -2.68,0.331 -3.95,0.786 -3.532,1.259 -6.969,2.75 -10.403,4.243 -0.815,0.343 -1.658,0.715 -2.22,1.397 m 1.556,4.356 c 0.587,-0.998 1.486,-1.803 2.534,-2.282 0.029,-0.88 -0.109,-1.763 -0.425,-2.588 0.45,0.169 0.853,0.474 1.15,0.861 -1.198,2.903 0.354,2.754 1.391,2.06 1.84,-0.96 3.49,-1.69 5.435,-2.445 0.424,0.101 0.539,0.283 0.846,0.374 0.103,-1.108 1.192,-2.049 2.119,-2.557 0.874,-0.491 1.892,-0.774 2.87,-0.587 0.96,0.188 1.431,1.054 2.054,1.9 -0.531,-1.106 -1.054,-2.203 -1.577,-3.318 -0.125,-0.243 -0.144,-0.661 0.134,-0.673 5.648,9.313 12.668,17.782 20.772,25.073 0.701,0.617 0.536,1.736 0.212,2.61 -0.856,2.291 -2.411,4.232 -3.936,6.145 -1.382,1.704 -2.754,3.417 -4.126,5.13 -0.468,0.575 -0.953,1.168 -1.611,1.505 -1.349,0.657 -2.995,0.036 -4.16,-0.916 -0.658,-0.533 -1.279,-1.392 -0.965,-2.181 1.072,-2.768 1.986,-5.585 2.772,-8.443 0.485,-1.807 0.916,-3.728 0.399,-5.537 -0.405,-1.427 -1.361,-2.635 -2.3,-3.787 -2.005,-2.474 -4.01,-4.947 -6.005,-7.411 -0.759,-0.943 -1.564,-1.917 -2.645,-2.459 -1.027,-0.524 -2.204,-0.613 -3.342,-0.648 -3.791,-0.111 -7.582,0.253 -11.264,1.108 -0.4,0.094 -1.02,-0.022 -0.908,-0.418 0.415,0.075 0.868,0.149 1.242,-0.029 0.385,-0.186 0.609,-0.728 0.339,-1.05 -0.221,0.339 -0.606,0.544 -1.005,0.563 m 22.083,26.595 c -0.224,-0.386 -0.439,-0.761 -0.661,-1.146 1.913,-1.813 2.325,-4.985 0.935,-7.212 0.966,-1.743 0.792,-3.933 0.006,-5.76 -0.796,-1.815 -2.124,-3.356 -3.417,-4.858 -1.087,-1.248 -2.218,-2.524 -3.705,-3.243 -3.743,-1.769 -8.201,0.646 -12.295,-0.01 -1.173,-0.182 -2.555,-1.094 -2.204,-2.227 0.278,-0.902 1.434,-1.136 2.373,-1.219 1.876,-0.143 3.743,-0.297 5.61,-0.452 2.016,-0.15 4.17,-0.29 5.937,0.706 1.091,0.607 1.913,1.58 2.699,2.533 1.772,2.116 3.534,4.241 5.295,6.348 1.131,1.351 2.287,2.767 2.676,4.481 0.372,1.64 0.002,3.358 -0.443,4.998 -0.799,3.015 -1.79,5.98 -2.967,8.864 -1.236,-1.121 -1.623,-2.946 -1.401,-4.592 0.23,-1.654 0.968,-3.178 1.706,-4.682 0.502,1.225 -0.213,2.564 -0.805,3.728 -0.6,1.175 -1.05,2.731 -0.173,3.706 0.181,0.263 0.625,0.292 0.834,0.037 m -9.521,-17.094 c 1.119,-1.125 0.875,-3.143 2.012,-4.249 0.103,-0.1 0.226,-0.199 0.385,-0.205 0.138,-0.008 0.267,0.088 0.376,0.165 2.181,1.615 3.819,3.821 5.414,6.016 0.522,0.734 1.062,1.489 1.349,2.357 0.408,1.261 0.228,2.666 -0.243,3.918 -0.059,0.145 -0.128,0.302 -0.261,0.41 -0.122,0.099 -0.289,0.134 -0.458,0.167 -0.669,0.114 -1.349,0.239 -2.02,0.373 -0.326,0.058 -0.669,0.115 -0.992,0.025 -0.397,-0.092 -0.696,-0.387 -0.988,-0.671 -1.787,-1.772 -3.61,-3.603 -4.636,-5.887 -0.345,-0.796 -0.554,-1.811 0.062,-2.419 m -12.757,-9.876 c 0.107,0.096 -0.08,0.24 -0.228,0.236 -0.732,-0.045 -1.186,-0.861 -1.236,-1.595 -0.107,-1.44 0.906,-2.883 2.288,-3.297 -0.304,0.364 0.044,0.938 -0.086,1.407 -0.152,0.545 -0.859,0.677 -1.284,1.049 -0.359,0.306 -0.527,0.814 -0.399,1.27 0.111,0.457 0.491,0.836 0.945,0.93 m 33.871,11.152 c -1.539,-1.342 -3.018,-2.736 -4.444,-4.185 -0.28,-0.296 -0.577,-0.7 -0.383,-1.049 1.336,1.227 2.643,2.461 3.913,3.73 0.428,0.427 0.872,0.91 0.914,1.504 m -14.155,-17.669 c 0.772,0.769 1.525,1.538 2.296,2.304 0.118,0.125 0.255,0.266 0.278,0.443 0.034,0.167 -0.11,0.377 -0.286,0.345 -0.065,-0.01 -0.128,-0.058 -0.192,-0.106 -1.038,-0.875 -1.924,-1.914 -2.641,-3.062 0.07,-0.211 0.391,-0.085 0.545,0.076 m -18.449,4.086 c 0.101,-0.025 0.222,0.043 0.247,0.146 -0.262,0.577 -0.755,1.049 -1.353,1.277 -0.188,0.07 -0.466,0.084 -0.527,-0.114 -0.044,-0.12 0.052,-0.249 0.146,-0.339 0.417,-0.437 0.935,-0.768 1.487,-0.97 m 0.207,-0.542 c -0.034,-0.565 -0.079,-1.123 -0.111,-1.69 -0.016,-0.186 0.201,-0.301 0.377,-0.363 l 0.868,-0.287 c -0.005,0.297 -0.442,0.316 -0.668,0.514 -0.265,0.236 -0.154,0.655 -0.077,1 0.067,0.336 -0.036,0.834 -0.389,0.826 m 20.902,25.893 c 0.169,0.347 0.067,0.771 -0.117,1.11 -0.146,0.247 -0.335,0.482 -0.554,0.674 0.025,-0.64 0.261,-1.284 0.671,-1.784"
         style="display:inline;fill:#ff5555;fill-opacity:0.18263472;fill-rule:nonzero;stroke:none"
         id="path3674"
         inkscape:connector-curvature="0"
         transform="matrix(1.25,0,0,-1.25,-173.797,764.03113)" /><path
         d="m 270.7734,578.1725 c -0.366,-0.592 -0.865,-1.112 -1.451,-1.497 0.048,0.374 0.142,0.791 0.482,0.92"
         style="display:inline;fill:#ff5555;fill-opacity:0.18263472;fill-rule:nonzero;stroke:none"
         id="path3676"
         inkscape:connector-curvature="0"
         transform="matrix(1.25,0,0,-1.25,-173.797,764.03113)" /><path
         d="m 282.0351,592.0214 c -0.013,-0.184 -0.121,-0.354 -0.239,-0.496 -0.263,-0.311 -0.581,-0.606 -0.978,-0.661 -0.397,-0.073 -0.856,0.166 -0.912,0.565 0.418,0.471 0.834,0.926 1.249,1.38 0.403,-0.131 0.89,-0.36 0.88,-0.788"
         style="display:inline;fill:#ff5555;fill-opacity:0.18263472;fill-rule:nonzero;stroke:none"
         id="path3678"
         inkscape:connector-curvature="0"
         transform="matrix(1.25,0,0,-1.25,-173.797,764.03113)" /><path
         d="m 283.4496,593.8981 c 0.347,-0.568 0.51,-1.25 0.441,-1.909 -0.021,-0.27 -0.134,-0.596 -0.412,-0.64 -0.121,0.841 -0.131,1.704 -0.029,2.549"
         style="display:inline;fill:#ff5555;fill-opacity:0.18263472;fill-rule:nonzero;stroke:none"
         id="path3680"
         inkscape:connector-curvature="0"
         transform="matrix(1.25,0,0,-1.25,-173.797,764.03113)" /><path
         d="m 266.5417,578.3585 c 0.236,0.21 0.483,0.41 0.729,0.609 0.055,-0.767 0.781,-1.573 1.521,-1.69 -1.228,-0.518 -1.675,0.347 -2.25,1.081"
         style="display:inline;fill:#ff5555;fill-opacity:0.18263472;fill-rule:nonzero;stroke:none"
         id="path3682"
         inkscape:connector-curvature="0"
         transform="matrix(1.25,0,0,-1.25,-173.797,764.03113)" /><path
         d="m 252.9607,578.5827 c 0.167,-0.414 -0.017,-0.911 -0.335,-1.223 -0.317,-0.312 -0.749,-0.479 -1.163,-0.646 -0.175,-0.068 -0.424,-0.101 -0.474,0.073 0.675,0.496 0.818,1.595 0.286,2.231 0.586,0.274 1.441,0.163 1.686,-0.435"
         style="display:inline;fill:#ff5555;fill-opacity:0.18263472;fill-rule:nonzero;stroke:none"
         id="path3684"
         inkscape:connector-curvature="0"
         transform="matrix(1.25,0,0,-1.25,-173.797,764.03113)" /><path
         d="m 250.427,574.4196 c -0.548,0.061 -1.494,0.106 -1.945,-0.46 -0.192,0.255 -0.386,0.604 -0.215,0.876 0.161,0.263 0.224,0.251 0.849,0.222 0.623,-0.028 0.771,0.079 2.77,-0.291 1.999,-0.371 6.269,-0.466 9.313,0.268 -0.982,-0.875 -2.521,-1.709 -3.475,-1.755 -0.957,-0.044 -3.839,0.439 -4.148,0.564 -0.309,0.126 -2.599,0.513 -3.149,0.576"
         style="display:inline;fill:#ff5555;fill-opacity:0.18263472;fill-rule:nonzero;stroke:none"
         id="path3686"
         inkscape:connector-curvature="0"
         transform="matrix(1.25,0,0,-1.25,-173.797,764.03113)" /><path
         d="m 277.035,602.7257 c 0.803,-1.077 1.616,-2.218 1.784,-3.54 0.067,-0.5 0.786,-0.753 0.779,-1.254 -0.397,-0.036 -0.756,0.234 -1.022,0.526 -1.073,1.117 -1.654,2.708 -1.541,4.268"
         style="display:inline;fill:#ff5555;fill-opacity:0.18263472;fill-rule:nonzero;stroke:none"
         id="path3688"
         inkscape:connector-curvature="0"
         transform="matrix(1.25,0,0,-1.25,-173.797,764.03113)" /><path
         d="m 271.9407,603.7933 c -0.611,-0.014 -1.336,0.007 -1.69,0.51 -0.276,0.373 0.138,0.883 0.571,1.069 0.642,0.291 1.401,0.328 2.066,0.092 0.232,-0.078 0.477,-0.203 0.592,-0.423 0.184,-0.359 -0.046,-0.809 -0.385,-1.011 -0.34,-0.203 -0.755,-0.22 -1.154,-0.237 m -1.179,0.91 c 0.181,-0.247 0.508,-0.324 0.823,-0.335 0.436,-0.018 0.889,0.075 1.301,0.261 -0.604,0.469 -1.493,0.486 -2.124,0.074"
         style="display:inline;fill:#ff5555;fill-opacity:0.18263472;fill-rule:nonzero;stroke:none"
         id="path3690"
         inkscape:connector-curvature="0"
         transform="matrix(1.25,0,0,-1.25,-173.797,764.03113)" /><path
         d="m 268.4336,579.2534 c -0.211,0.274 -0.32,0.615 -0.318,0.958 0.005,0.991 1.119,1.813 2.072,1.52 0.952,-0.314 1.398,-1.631 0.812,-2.449 -0.575,-0.811 -1.966,-0.822 -2.566,-0.029 m 1.048,-0.042 c 0.334,0.027 0.606,0.255 0.814,0.51 0.135,0.161 0.242,0.348 0.258,0.552 0.002,0.325 -0.256,0.588 -0.545,0.703 -0.542,0.211 -1.232,-0.075 -1.405,-0.615 -0.174,-0.543 0.313,-1.208 0.878,-1.15"
         style="display:inline;fill:#ff5555;fill-opacity:0.18263472;fill-rule:nonzero;stroke:none"
         id="path3692"
         inkscape:connector-curvature="0"
         transform="matrix(1.25,0,0,-1.25,-173.797,764.03113)" /><path
         d="m 251.1498,578.3011 c 0.169,-0.487 -0.052,-1.058 -0.452,-1.363 -0.411,-0.314 -0.947,-0.4 -1.457,-0.347 -0.743,0.077 -1.545,0.606 -1.524,1.347 0.01,0.465 0.324,0.871 0.729,1.064 0.395,0.203 0.866,0.242 1.313,0.179 0.567,-0.071 1.194,-0.346 1.391,-0.88 m -2.873,-0.08 c -0.119,-0.087 -0.086,-0.261 -0.019,-0.382 0.291,-0.606 1.086,-0.912 1.702,-0.648 0.174,0.069 0.31,0.172 0.41,0.314 0.287,0.453 -0.117,1.093 -0.638,1.212 -0.521,0.099 -1.045,-0.163 -1.455,-0.496"
         style="display:inline;fill:#ff5555;fill-opacity:0.18263472;fill-rule:nonzero;stroke:none"
         id="path3694"
         inkscape:connector-curvature="0"
         transform="matrix(1.25,0,0,-1.25,-173.797,764.03113)" /><path
         d="m 261.7618,587.5099 c -0.774,0.196 -1.083,1.163 -0.96,1.953 0.113,0.726 0.824,1.317 1.565,1.296 0.733,-0.012 1.415,-0.646 1.486,-1.386 0.075,-0.814 -0.558,-1.608 -1.351,-1.829 -0.238,-0.08 -0.499,-0.103 -0.74,-0.034 m 1.347,1.976 c -0.051,0.285 -0.216,0.571 -0.486,0.648 -0.28,0.086 -0.573,-0.069 -0.802,-0.268 -0.374,-0.332 -0.628,-0.903 -0.37,-1.334 0.233,-0.403 0.819,-0.493 1.202,-0.242 0.384,0.249 0.541,0.753 0.447,1.206"
         style="display:inline;fill:#ff5555;fill-opacity:0.18263472;fill-rule:nonzero;stroke:none"
         id="path3696"
         inkscape:connector-curvature="0"
         transform="matrix(1.25,0,0,-1.25,-173.797,764.03113)" /><path
         d="m 274.02,599.0248 c -0.51,-0.038 -0.995,-0.338 -1.272,-0.761 -0.116,0.546 0.402,1.085 0.956,1.154 0.565,0.057 1.11,-0.245 1.489,-0.646 0.704,-0.743 0.962,-1.991 0.349,-2.802 -0.207,-0.272 -0.508,-0.493 -0.841,-0.519 -0.213,-0.014 -0.438,0.055 -0.635,0.153 -0.628,0.31 -1.06,0.996 -1.066,1.692 -0.015,0.706 0.395,1.399 1.02,1.729 m -0.104,-2.534 c 0.154,-0.238 0.382,-0.473 0.67,-0.477 0.473,0.002 0.682,0.6 0.663,1.071 -0.031,0.539 -0.332,1.191 -0.88,1.187 -0.379,0.002 -0.696,-0.349 -0.743,-0.721 -0.068,-0.372 0.08,-0.749 0.29,-1.06"
         style="display:inline;fill:#ff5555;fill-opacity:0.18263472;fill-rule:nonzero;stroke:none"
         id="path3698"
         inkscape:connector-curvature="0"
         transform="matrix(1.25,0,0,-1.25,-173.797,764.03113)" /><path
         d="m 279.3503,590.5823 c -0.282,0.615 -0.566,1.305 -0.33,1.93 0.14,0.356 0.422,0.613 0.705,0.87 0.319,0.294 0.645,0.598 0.972,0.884 0.182,0.17 0.391,0.35 0.633,0.392 0.452,0.058 0.814,-0.362 1.054,-0.737 0.335,-0.522 0.653,-1.099 0.63,-1.71 -0.032,-1.041 -0.935,-1.792 -1.765,-2.394 -0.201,-0.153 -0.41,-0.297 -0.661,-0.33 -0.592,-0.068 -0.985,0.562 -1.238,1.095 m 1.92,2.953 c -0.381,0.002 -0.747,-0.21 -1.039,-0.458 -0.39,-0.352 -0.695,-0.822 -0.758,-1.343 -0.071,-0.512 0.126,-1.081 0.559,-1.388 0.113,-0.071 0.234,-0.134 0.374,-0.14 0.111,-0.015 0.232,0.014 0.333,0.044 0.765,0.23 1.503,0.775 1.7,1.549 0.186,0.784 -0.362,1.727 -1.169,1.736"
         style="display:inline;fill:#ff5555;fill-opacity:0.18263472;fill-rule:nonzero;stroke:none"
         id="path3700"
         inkscape:connector-curvature="0"
         transform="matrix(1.25,0,0,-1.25,-173.797,764.03113)" /><path
         d="m 258.5437,571.7672 c -0.479,-0.176 -1.09,-0.847 -1.454,-1.132 -0.108,0.427 -0.16,0.429 0.051,0.584 0.61,0.849 2.371,1.673 3.488,1.457 0.512,-0.11 0.964,-0.397 1.371,-0.731 0.462,-0.389 0.872,-0.872 1.042,-1.452 0.161,-0.589 0.027,-1.298 -0.446,-1.66 -0.41,-0.334 -1.022,-0.366 -1.472,-0.098 -0.123,0.498 -0.134,1.018 -0.052,1.52 0.343,0.017 0.705,-0.058 1.016,-0.228 0.234,0.32 0.176,0.811 -0.117,1.073 -1.05,-0.755 -2.725,-0.439 -3.427,0.667 m 0.778,-0.002 c 0.541,-0.479 1.376,-0.59 2.009,-0.251 -0.385,0.676 -1.455,0.811 -2.009,0.251"
         style="display:inline;fill:#ff5555;fill-opacity:0.18263472;fill-rule:nonzero;stroke:none"
         id="path3702"
         inkscape:connector-curvature="0"
         transform="matrix(1.25,0,0,-1.25,-173.797,764.03113)" /><path
         d="m 264.0541,583.3184 c -0.863,-0.92 -1.374,-1.504 -2.8,-2.71 -0.51,0.416 -0.702,1.088 -0.863,1.715 -0.241,0.847 -0.302,1.908 -0.837,2.463 -0.533,0.554 -0.952,0.922 -0.734,1.52 0.22,0.596 0.588,1.707 1.257,2.384 -0.115,-0.437 -0.088,-0.525 -0.153,-1.161 -0.065,-0.639 0.651,-1.599 1.326,-2.053 0.899,0.41 1.903,0.721 2.848,0.721 0.947,0 1.371,-0.184 1.936,-0.272 -0.42,-0.877 -1.117,-1.689 -1.98,-2.607"
         style="display:inline;fill:#ff5555;fill-opacity:0.18263472;fill-rule:nonzero;stroke:none"
         id="path3704"
         inkscape:connector-curvature="0"
         transform="matrix(1.25,0,0,-1.25,-173.797,764.03113)" /><path
         d="m 272.5157,581.2062 c 1.378,1.158 2.842,2.651 3.27,3.586 -0.033,-0.64 -0.476,-1.159 -0.901,-1.643 -0.914,-1.03 -2.095,-2.428 -3.019,-3.468 0.269,0.502 0.341,0.898 0.219,1.34 -0.25,0.711 -0.537,1.222 -1.154,1.448 -0.617,0.229 -1.311,0.148 -1.907,-0.134 -0.853,-0.398 -1.505,-1.209 -1.725,-2.124 -0.146,0.303 -0.098,0.694 0.109,0.967 -0.09,-0.169 -0.348,-0.175 -0.454,-0.02 1.438,1.729 3.302,3.868 4.381,5.175 1.081,1.309 1.382,1.813 1.767,2.879 0.158,0.049 0.328,-0.114 0.294,-0.263 -0.315,-0.897 -0.895,-1.677 -1.402,-2.349 -0.503,-0.673 -0.921,-1.296 -1.598,-1.981 -0.676,-0.684 -1,-1.075 -1.002,-1.644 0.487,0.205 1.47,0.163 1.93,-0.115 0.856,-0.555 1.137,-1.163 1.192,-1.654"
         style="display:inline;fill:#ff5555;fill-opacity:0.18263472;fill-rule:nonzero;stroke:none"
         id="path3706"
         inkscape:connector-curvature="0"
         transform="matrix(1.25,0,0,-1.25,-173.797,764.03113)" /><path
         d="m 259.0633,576.4803 c 0.234,0.701 0.47,1.401 0.713,2.093 1.825,0.16 3.306,1.52 4.546,2.873 1.026,1.106 2.01,2.25 2.94,3.448 0.767,0.971 1.514,1.979 1.963,3.129 0.579,1.497 0.634,3.186 0.174,4.715 0.443,0.539 0.799,2.064 0.816,2.996 0.3,-0.579 0.269,-0.612 0.693,-1.821 0.423,-1.211 0.563,-3.883 -0.346,-5.572 -0.392,-0.732 -0.916,-1.374 -1.441,-2.016 -1.914,-2.303 -3.821,-4.619 -5.727,-6.913 -1.157,-1.397 -2.533,-2.911 -4.331,-2.932"
         style="display:inline;fill:#ff5555;fill-opacity:0.18263472;fill-rule:nonzero;stroke:none"
         id="path3708"
         inkscape:connector-curvature="0"
         transform="matrix(1.25,0,0,-1.25,-173.797,764.03113)" /></g></g><g
     inkscape:groupmode="layer"
     id="layer1"
     inkscape:label="Instructions"
     style="display:inline"
     transform="translate(-48.512875,42.381505)"><g
       transform="matrix(0.6115882,0,0,-0.6115882,82.386947,160.81621)"
       inkscape:label="climbing-shoe-with-instructions-on"
       id="g4082"><path
         d="m 55.238,149.309 c -3.941,-1.719 -8.328,1.285 -11.285,4.43 -2.156,2.277 -4.195,4.992 -4.375,8.117 -0.129,2.172 0.692,4.301 1.465,6.34 2.187,5.609 4.383,11.257 6.559,16.89 -2.129,-0.472 -4.27,-0.922 -6.414,-1.371 -2.293,-0.508 -4.684,-1.008 -6.969,-0.402 -3.18,0.836 -5.407,3.562 -7.414,6.172 -2.098,2.711 -4.262,5.539 -5.149,8.879 -0.871,3.316 -0.144,7.328 2.668,9.359 -2.664,-0.074 -5.32,-0.109 -7.996,-0.156 -2.933,-0.039 -6.008,-0.039 -8.539,1.441 -2.289,1.371 -3.734,3.746 -5.012,6.098 -1.113,2.008 -2.191,4.07 -2.613,6.32 -0.422,2.25 -0.066,4.762 1.41,6.492 1.227,1.465 3.039,2.223 4.785,2.938 4.543,1.847 9.086,3.695 13.641,5.582 3.504,1.41 7.062,2.883 10.812,3.48 1.825,0.301 3.735,0.403 5.516,-0.027 3.445,-0.867 6.082,-3.551 8.426,-6.211 4.957,-6.094 13.383,-17.68 16.668,-22.582 3.285,-4.906 7.676,-11.996 11.707,-18.734 2.644,-4.43 5.355,-9.407 4.309,-14.426 -0.583,-2.703 -2.204,-5.039 -3.833,-7.258 -4.515,-6.168 -9.429,-12.008 -14.343,-17.852 -1.149,-1.39 -2.364,-2.82 -4.024,-3.519 m -7.601,5.574 c 2.293,0.567 4.386,1.852 5.933,3.625 1.735,-0.457 3.383,-1.242 4.805,-2.34 -0.066,0.977 -0.43,1.942 -1.012,2.746 -6.367,-0.648 -5.172,2.297 -3.215,3.918 2.95,3.032 5.336,5.832 7.946,9.192 0.047,0.886 -0.242,1.218 -0.239,1.867 2.223,-0.438 4.696,1.137 6.227,2.656 1.469,1.418 2.613,3.238 2.816,5.262 0.192,1.984 -1.226,3.41 -2.511,5.117 1.847,-1.684 3.683,-3.344 5.558,-5.012 0.403,-0.386 1.207,-0.668 1.395,-0.129 -14.902,16.454 -27.36,35.098 -36.879,55.168 -0.797,1.731 -3.078,2.063 -4.973,1.934 -4.972,-0.34 -9.668,-2.242 -14.297,-4.109 -4.132,-1.707 -8.277,-3.391 -12.425,-5.075 -1.391,-0.578 -2.832,-1.179 -3.875,-2.265 -2.067,-2.254 -1.813,-5.832 -0.633,-8.664 0.66,-1.59 1.972,-3.305 3.699,-3.153 6.031,0.485 12.066,0.629 18.105,0.5 3.813,-0.105 7.813,-0.382 11.047,-2.445 2.551,-1.621 4.356,-4.195 6.059,-6.699 3.664,-5.356 7.328,-10.711 10.977,-16.043 1.402,-2.031 2.832,-4.168 3.265,-6.598 0.422,-2.312 -0.086,-4.66 -0.683,-6.906 -1.989,-7.469 -4.907,-14.66 -8.723,-21.355 -0.414,-0.727 -0.551,-2.004 0.289,-2.016 0.098,0.851 0.215,1.781 0.781,2.41 0.586,0.641 1.778,0.766 2.246,0.051 -0.789,-0.235 -1.414,-0.867 -1.683,-1.637 M 8.551,213.5 c 0.621,-0.66 1.23,-1.297 1.851,-1.957 4.657,2.68 11.09,1.637 14.633,-2.371 3.965,0.871 8.145,-0.746 11.25,-3.344 3.086,-2.609 5.32,-6.105 7.504,-9.503 1.805,-2.848 3.637,-5.801 4.176,-9.122 1.277,-8.347 -6.039,-15.644 -7.141,-24.023 -0.328,-2.398 0.649,-5.625 3.067,-5.602 1.925,0.02 3.054,2.141 3.761,3.926 1.375,3.578 2.762,7.137 4.149,10.696 1.469,3.847 2.992,7.976 2.082,12.007 -0.551,2.481 -1.973,4.657 -3.379,6.746 -3.102,4.692 -6.227,9.372 -9.313,14.039 -1.98,2.993 -4.074,6.075 -7.195,7.833 -2.988,1.683 -6.558,1.957 -10.019,2.046 -6.356,0.196 -12.723,-0.015 -19.043,-0.632 1.468,-3.067 4.808,-4.887 8.152,-5.411 3.367,-0.515 6.773,0.039 10.141,0.606 -2.102,1.691 -5.133,1.074 -7.75,0.598 -2.645,-0.489 -5.95,-0.465 -7.34,1.82 -0.41,0.504 -0.207,1.387 0.414,1.648 m 27.844,-28.55 c 2.847,1.531 6.648,-0.118 9.472,1.457 0.254,0.144 0.52,0.328 0.625,0.632 0.09,0.27 -0.019,0.575 -0.105,0.832 -1.887,5.2 -5.239,9.688 -8.598,14.079 -1.133,1.445 -2.289,2.937 -3.82,4.003 -2.223,1.536 -5.074,2.004 -7.793,1.809 -0.321,-0.031 -0.664,-0.074 -0.953,-0.27 -0.266,-0.179 -0.43,-0.488 -0.594,-0.796 -0.613,-1.243 -1.25,-2.496 -1.902,-3.727 -0.305,-0.605 -0.618,-1.242 -0.629,-1.926 -0.051,-0.828 0.351,-1.586 0.738,-2.32 2.422,-4.523 4.934,-9.152 8.797,-12.484 1.355,-1.137 3.215,-2.137 4.762,-1.289 m 11.859,-30.668 c -0.121,0.269 -0.512,-0.016 -0.594,-0.305 -0.34,-1.457 0.992,-2.82 2.395,-3.344 2.75,-1.047 6.16,0.094 7.773,2.551 -0.887,-0.383 -1.805,0.633 -2.797,0.648 -1.152,0.024 -1.824,-1.281 -2.797,-1.894 -0.808,-0.524 -1.894,-0.559 -2.714,-0.039 -0.825,0.48 -1.344,1.445 -1.266,2.383 m -2.059,72.652 c 1.723,-3.781 3.586,-7.488 5.59,-11.113 0.41,-0.723 1.027,-1.539 1.82,-1.364 -1.617,3.325 -3.265,6.598 -5.003,9.821 -0.586,1.082 -1.27,2.226 -2.407,2.656 M 72.461,189 c -1.051,1.953 -2.109,3.871 -3.16,5.828 -0.172,0.301 -0.371,0.649 -0.703,0.797 -0.309,0.164 -0.801,0.008 -0.84,-0.355 -0.02,-0.133 0.039,-0.285 0.094,-0.438 1.105,-2.539 2.621,-4.875 4.441,-6.941 0.457,0.012 0.395,0.715 0.168,1.109 M 53.738,155.344 c 0.11,0.184 0.047,0.457 -0.136,0.566 -1.282,-0.175 -2.493,-0.863 -3.286,-1.898 -0.246,-0.324 -0.433,-0.863 -0.086,-1.094 0.215,-0.156 0.52,-0.047 0.75,0.086 1.098,0.563 2.047,1.379 2.758,2.34 m 1.18,0.086 c 1.09,-0.395 2.152,-0.805 3.238,-1.199 0.356,-0.137 0.707,0.215 0.93,0.527 l 1.066,1.531 c -0.586,0.161 -0.875,-0.683 -1.394,-1.011 -0.613,-0.379 -1.367,0.082 -2,0.433 -0.613,0.324 -1.649,0.414 -1.84,-0.281 M 16.52,211.332 c -0.582,0.532 -1.469,0.582 -2.239,0.418 -0.566,-0.136 -1.14,-0.371 -1.636,-0.683 1.261,-0.328 2.656,-0.242 3.875,0.265"
         style="fill:#bc2233;fill-opacity:1;fill-rule:nonzero;stroke:none"
         id="path4086"
         inkscape:connector-curvature="0" /><path
         d="m 56.188,204.305 c 0.941,-1.063 1.667,-2.34 2.078,-3.707 -0.7,0.309 -1.465,0.734 -1.516,1.477"
         style="fill:#bc2233;fill-opacity:1;fill-rule:nonzero;stroke:none"
         id="path4088"
         inkscape:connector-curvature="0" /><path
         d="m 35.695,234.364 c 0.352,-0.137 0.621,-0.446 0.828,-0.758 0.457,-0.692 0.848,-1.485 0.723,-2.293 -0.086,-0.821 -0.824,-1.578 -1.633,-1.453 -0.679,1.09 -1.324,2.168 -1.968,3.246 0.488,0.707 1.222,1.523 2.05,1.258"
         style="fill:#bc2233;fill-opacity:1;fill-rule:nonzero;stroke:none"
         id="path4090"
         inkscape:connector-curvature="0" /><path
         d="m 32.852,238.219 c 1.312,0.348 2.738,0.27 3.988,-0.25 0.512,-0.199 1.086,-0.613 1.008,-1.18 -1.711,0.254 -3.403,0.739 -4.996,1.43"
         style="fill:#bc2233;fill-opacity:1;fill-rule:nonzero;stroke:none"
         id="path4092"
         inkscape:connector-curvature="0" /><path
         d="m 53.359,196.145 c -0.269,0.586 -0.519,1.18 -0.765,1.777 1.527,-0.34 3.531,0.613 4.187,1.985 0.293,-2.7 -1.648,-3.067 -3.422,-3.762"
         style="fill:#bc2233;fill-opacity:1;fill-rule:nonzero;stroke:none"
         id="path4094"
         inkscape:connector-curvature="0" /><path
         d="m 45.016,169.75 c 0.906,0.086 1.765,-0.562 2.191,-1.367 0.43,-0.801 0.504,-1.742 0.586,-2.648 0.035,-0.383 -0.047,-0.887 -0.418,-0.883 -0.578,1.605 -2.637,2.523 -4.191,1.855 -0.192,1.305 0.523,2.91 1.832,3.043"
         style="fill:#bc2233;fill-opacity:1;fill-rule:nonzero;stroke:none"
         id="path4096"
         inkscape:connector-curvature="0" /><path
         d="m 51.672,162.379 c -0.442,-1.039 -1.078,-2.859 -0.234,-4.07 -0.61,-0.227 -1.403,-0.399 -1.836,0.09 -0.422,0.468 -0.36,0.586 0.058,1.789 0.418,1.199 0.297,1.551 2.184,5.238 1.886,3.688 4.562,11.973 4.898,18.348 1.137,-2.43 1.871,-5.918 1.403,-7.813 -0.465,-1.89 -3.09,-7.242 -3.516,-7.769 -0.422,-0.528 -2.516,-4.778 -2.957,-5.813 z"
         style="fill:#bc2233;fill-opacity:1;fill-rule:nonzero;stroke:none"
         id="path4098"
         inkscape:connector-curvature="0" /><path
         d="m 11.875,230.828 c 2.57,0.942 5.273,1.868 7.957,1.422 1.012,-0.16 1.926,1.098 2.898,0.793 -0.16,-0.801 -0.894,-1.34 -1.617,-1.691 -2.808,-1.445 -6.254,-1.652 -9.238,-0.524"
         style="fill:#bc2233;fill-opacity:1;fill-rule:nonzero;stroke:none"
         id="path4100"
         inkscape:connector-curvature="0" /><path
         d="m 6.828,221.496 c -0.332,-1.199 -0.793,-2.601 -1.98,-3 -0.895,-0.324 -1.649,0.786 -1.758,1.735 -0.195,1.426 0.176,2.929 1.023,4.09 0.289,0.41 0.676,0.812 1.172,0.914 0.805,0.148 1.551,-0.567 1.746,-1.344 0.199,-0.777 -0.008,-1.606 -0.203,-2.395 m -2.469,-1.769 c 0.59,0.211 0.93,0.805 1.133,1.414 0.293,0.84 0.371,1.777 0.25,2.691 -1.265,-0.906 -1.82,-2.632 -1.383,-4.105"
         style="fill:#bc2233;fill-opacity:1;fill-rule:nonzero;stroke:none"
         id="path4102"
         inkscape:connector-curvature="0" /><path
         d="m 52.715,200.36 c -0.656,-0.25 -1.387,-0.266 -2.055,-0.063 -1.937,0.59 -2.894,3.242 -1.762,4.93 1.164,1.68 3.997,1.785 5.254,0.164 1.25,-1.594 0.461,-4.32 -1.437,-5.031 m 0.691,2.023 c 0.145,0.668 -0.144,1.332 -0.519,1.887 -0.235,0.359 -0.539,0.676 -0.93,0.824 -0.633,0.191 -1.297,-0.152 -1.687,-0.652 -0.731,-0.938 -0.575,-2.45 0.378,-3.106 0.957,-0.652 2.543,-0.09 2.758,1.047"
         style="fill:#bc2233;fill-opacity:1;fill-rule:nonzero;stroke:none"
         id="path4104"
         inkscape:connector-curvature="0" /><path
         d="m 44.512,166.047 c 1.05,0.047 2.035,-0.715 2.398,-1.676 0.375,-0.984 0.231,-2.082 -0.172,-3.05 -0.582,-1.407 -2.082,-2.661 -3.519,-2.188 -0.903,0.285 -1.508,1.141 -1.653,2.043 -0.168,0.887 0.032,1.832 0.418,2.664 0.469,1.067 1.368,2.133 2.528,2.207 m -1.516,-5.656 c 0.098,-0.281 0.461,-0.324 0.731,-0.262 1.355,0.219 2.418,1.59 2.261,2.946 -0.035,0.382 -0.16,0.71 -0.379,0.988 -0.714,0.82 -2.199,0.406 -2.734,-0.543 -0.5,-0.961 -0.293,-2.137 0.121,-3.129"
         style="fill:#bc2233;fill-opacity:1;fill-rule:nonzero;stroke:none"
         id="path4106"
         inkscape:connector-curvature="0" /><path
         d="m 32.703,192.137 c -0.832,-1.398 -2.902,-1.437 -4.375,-0.738 -1.351,0.644 -2.09,2.375 -1.617,3.812 0.449,1.426 2.086,2.387 3.57,2.098 1.637,-0.332 2.817,-2.027 2.785,-3.707 0.016,-0.512 -0.086,-1.031 -0.363,-1.465 m -3.074,3.781 c -0.59,0.067 -1.242,-0.09 -1.551,-0.574 -0.332,-0.496 -0.199,-1.16 0.059,-1.719 0.433,-0.922 1.398,-1.754 2.39,-1.5 0.922,0.219 1.438,1.313 1.172,2.207 -0.261,0.895 -1.156,1.493 -2.094,1.575"
         style="fill:#bc2233;fill-opacity:1;fill-rule:nonzero;stroke:none"
         id="path4108"
         inkscape:connector-curvature="0" /><path
         d="m 17.348,222.785 c -0.219,-1.019 0.082,-2.14 0.746,-2.929 -1.129,0.094 -1.883,1.418 -1.692,2.543 0.211,1.136 1.121,2.023 2.125,2.531 1.864,0.937 4.45,0.719 5.676,-0.953 0.414,-0.563 0.668,-1.277 0.524,-1.945 -0.098,-0.422 -0.364,-0.821 -0.668,-1.149 -0.973,-1.047 -2.567,-1.492 -3.926,-1.098 -1.387,0.379 -2.504,1.59 -2.785,3 m 4.89,-1.675 c 0.555,0.16 1.149,0.468 1.321,1.027 0.273,0.926 -0.774,1.68 -1.707,1.918 -1.067,0.254 -2.516,0.043 -2.829,-1.027 -0.222,-0.743 0.278,-1.563 0.973,-1.871 0.692,-0.348 1.512,-0.278 2.242,-0.047"
         style="fill:#bc2233;fill-opacity:1;fill-rule:nonzero;stroke:none"
         id="path4110"
         inkscape:connector-curvature="0" /><path
         d="m 36.941,228.282 c -1.363,-0.196 -2.875,-0.348 -3.961,0.48 -0.613,0.48 -0.949,1.18 -1.285,1.879 -0.39,0.793 -0.793,1.609 -1.16,2.414 -0.23,0.457 -0.461,0.969 -0.402,1.465 0.152,0.918 1.183,1.379 2.055,1.629 1.21,0.351 2.527,0.64 3.707,0.238 2.011,-0.672 2.957,-2.871 3.648,-4.844 0.184,-0.48 0.34,-0.976 0.262,-1.48 -0.211,-1.199 -1.676,-1.598 -2.864,-1.781 m -4.648,5.468 c -0.223,-0.742 -0.023,-1.582 0.289,-2.293 0.461,-0.968 1.203,-1.84 2.184,-2.265 0.957,-0.438 2.183,-0.387 3.035,0.281 0.207,0.18 0.398,0.383 0.492,0.652 0.094,0.207 0.105,0.457 0.105,0.676 -0.003,1.625 -0.636,3.387 -2.035,4.223 -1.418,0.82 -3.582,0.297 -4.07,-1.274"
         style="fill:#bc2233;fill-opacity:1;fill-rule:nonzero;stroke:none"
         id="path4112"
         inkscape:connector-curvature="0" /><path
         d="m 61.578,176.688 c 0.067,-1.043 1.02,-2.625 1.367,-3.504 -0.898,0.039 -0.929,-0.059 -1.113,0.441 -1.305,1.688 -1.887,5.606 -0.812,7.664 0.511,0.934 1.332,1.649 2.222,2.25 1.028,0.676 2.211,1.196 3.442,1.188 1.246,-0.027 2.55,-0.699 2.984,-1.836 0.414,-0.996 0.117,-2.207 -0.668,-2.934 -1.043,0.051 -2.062,0.332 -2.996,0.785 0.164,0.68 0.523,1.344 1.035,1.852 -0.488,0.645 -1.48,0.816 -2.164,0.398 0.863,-2.492 -0.727,-5.582 -3.297,-6.304 m 0.457,1.519 c 1.25,0.774 1.953,2.344 1.66,3.774 -1.547,-0.356 -2.429,-2.367 -1.66,-3.774"
         style="fill:#bc2233;fill-opacity:1;fill-rule:nonzero;stroke:none"
         id="path4114"
         inkscape:connector-curvature="0" /><path
         d="m 42.227,194.172 c 1.293,-2.219 2.136,-3.558 3.66,-7.047 -1.11,-0.754 -2.532,-0.734 -3.852,-0.687 -1.797,0.023 -3.898,0.523 -5.297,-0.199 -1.394,-0.719 -2.355,-1.325 -3.394,-0.547 -1.039,0.773 -2.992,2.14 -3.93,3.843 0.789,-0.48 0.977,-0.476 2.184,-0.976 1.203,-0.5 3.5,0.34 4.777,1.394 -0.273,1.997 -0.297,4.137 0.254,5.985 0.551,1.847 1.156,2.566 1.66,3.621 1.465,-1.332 2.645,-3.168 3.938,-5.387 z"
         style="fill:#bc2233;fill-opacity:1;fill-rule:nonzero;stroke:none"
         id="path4116"
         inkscape:connector-curvature="0" /><path
         d="m 51.277,209.473 c -1.457,3.363 -3.519,7.094 -5.101,8.473 1.234,-0.434 1.992,-1.602 2.683,-2.715 1.481,-2.387 3.524,-5.508 5.02,-7.918 -0.824,0.816 -1.559,1.191 -2.492,1.207 -1.532,-0.07 -2.696,-0.336 -3.5,-1.406 -0.805,-1.075 -1.051,-2.477 -0.848,-3.805 0.281,-1.899 1.488,-3.641 3.145,-4.606 -0.68,-0.109 -1.414,0.211 -1.829,0.774 0.282,-0.27 0.141,-0.781 -0.226,-0.899 -2.539,3.813 -5.629,8.704 -7.555,11.575 -1.926,2.871 -2.738,3.754 -4.594,5.125 -0.007,0.336 0.411,0.574 0.684,0.422 1.57,-1.137 2.754,-2.727 3.774,-4.106 1.019,-1.375 1.996,-2.555 2.937,-4.273 0.945,-1.723 1.516,-2.582 2.629,-2.918 -0.117,1.07 0.539,2.964 1.348,3.703 1.586,1.351 2.933,1.543 3.925,1.367 z"
         style="fill:#bc2233;fill-opacity:1;fill-rule:nonzero;stroke:none"
         id="path4118"
         inkscape:connector-curvature="0" /><path
         d="m 52.676,180.442 c -1.235,0.867 -2.465,1.734 -3.672,2.617 0.746,3.652 -1.043,7.34 -2.965,10.551 -1.566,2.644 -3.227,5.234 -5.023,7.746 -1.454,2.066 -2.989,4.113 -4.973,5.656 -2.586,2.004 -5.852,3.098 -9.105,3.086 -0.793,1.18 -3.567,2.766 -5.376,3.34 1.305,0.25 1.348,0.168 3.961,0.289 2.61,0.125 7.911,-1.16 10.68,-3.918 1.203,-1.192 2.149,-2.59 3.098,-3.984 3.387,-5.086 6.797,-10.153 10.168,-15.215 2.058,-3.071 4.211,-6.641 3.207,-10.168"
         style="fill:#bc2233;fill-opacity:1;fill-rule:nonzero;stroke:none"
         id="path4120"
         inkscape:connector-curvature="0" /><g
         id="g4150"
         transform="matrix(1,0,0,-1,0,266.4378)"><path
           d="M 132.168,67.316 C 118.027,55.438 99.527,46.344 62.023,56.57"
           style="fill:none;stroke:#bc2233;stroke-width:4;stroke-linecap:butt;stroke-linejoin:miter;stroke-miterlimit:4;stroke-dasharray:12, 12;stroke-dashoffset:0;stroke-opacity:1"
           id="path4152"
           inkscape:connector-curvature="0" /></g><g
         id="g4154"
         transform="matrix(-1,0.84,0.84,1,0,266.4378)"><path
           d="m -94.623,33.038 -20.078,-7.384 20.08,-7.383 c -3.209,4.36 -3.189,10.323 -0.002,14.767 z"
           style="fill:#bc2233;fill-opacity:1;fill-rule:evenodd;stroke:#bc2233;stroke-width:1.14855695;stroke-linecap:round;stroke-linejoin:round;stroke-miterlimit:4;stroke-dasharray:none;stroke-opacity:1"
           id="path4156"
           inkscape:connector-curvature="0" /></g><path
         d="m 124.816,247.77 c 0,-10.309 -8.359,-18.668 -18.668,-18.668 -10.312,0 -18.668,8.359 -18.668,18.668 0,10.308 8.356,18.668 18.668,18.668 10.309,0 18.668,-8.36 18.668,-18.668 z"
         style="fill:#bc2233;fill-opacity:1;fill-rule:nonzero;stroke:none"
         id="path4158"
         inkscape:connector-curvature="0" /><text
         style="font-variant:normal;font-weight:bold;font-size:32px;font-family:'Myriad Pro Cond';-inkscape-font-specification:MyriadPro-BoldCond;writing-mode:lr-tb;fill:#ffffff;fill-opacity:1;fill-rule:nonzero;stroke:none"
         id="text4160"
         x="99.03318"
         y="-238.15353"
         transform="scale(1,-1)"><tspan
           x="99.03318"
           y="-238.15353"
           id="tspan4162">1</tspan></text>
<path
         d="m 344.441,170.621 c 0,-10.308 -8.355,-18.668 -18.668,-18.668 -10.308,0 -18.668,8.36 -18.668,18.668 0,10.309 8.36,18.668 18.668,18.668 10.313,0 18.668,-8.359 18.668,-18.668 z"
         style="fill:#666666;fill-opacity:1;fill-rule:nonzero;stroke:none"
         id="path4164"
         inkscape:connector-curvature="0" /><text
         style="font-variant:normal;font-weight:bold;font-size:32px;font-family:'Myriad Pro Cond';-inkscape-font-specification:MyriadPro-BoldCond;writing-mode:lr-tb;fill:#000000;fill-opacity:1;fill-rule:nonzero;stroke:none;"
         id="text4166"
         x="318.66104"
         y="-161.00531"
         transform="scale(1,-1)"><tspan
           x="318.66104"
           y="-161.00531"
           id="tspan4168"
           style="fill:#000000;">2</tspan></text>
<g
         id="g4170"
         transform="matrix(1,0,0,-1,0,266.4378)"
         style="fill:none;stroke:#666666;stroke-opacity:1"
         inkscape:export-filename="/Users/peter/Seafile/Still Footage/title.png"
         inkscape:export-xdpi="348"
         inkscape:export-ydpi="348"><path
           d="m 293.953,161.219 c 52.609,0 81.25,-6.586 105.219,-74.668"
           style="fill:none;stroke:#666666;stroke-width:4;stroke-linecap:butt;stroke-linejoin:miter;stroke-miterlimit:4;stroke-dasharray:16, 16;stroke-dashoffset:0;stroke-opacity:1"
           id="path4172"
           inkscape:connector-curvature="0" /></g><g
         id="g4174"
         transform="matrix(-0.352025,-1,-1,0.352025,0,266.4378)"
         style="fill:#666666;stroke:#666666;stroke-opacity:1;fill-opacity:1"
         inkscape:export-filename="/Users/peter/Seafile/Still Footage/title.png"
         inkscape:export-xdpi="348"
         inkscape:export-ydpi="348"><path
           d="m -28.28,-373.139 -24.736,-9.093 24.735,-9.097 c -3.953,5.371 -3.929,12.719 10e-4,18.19 z"
           style="fill:#666666;fill-opacity:1;fill-rule:evenodd;stroke:#666666;stroke-width:1.41489196;stroke-linecap:round;stroke-linejoin:round;stroke-miterlimit:4;stroke-dasharray:none;stroke-opacity:1"
           id="path4176"
           inkscape:connector-curvature="0" /></g></g></g><g
     inkscape:groupmode="layer"
     id="layer2"
     inkscape:label="Shoe"
     style="display:inline"
     transform="translate(-48.512875,42.381505)"><g
       transform="matrix(1.25,0,0,-1.25,-173.797,764.03113)"
       style="display:inline"
       id="g3670" /><g
       id="g5889"
       style="fill:#666666"><path
         d="m 201.945,172.535 c 1.52,-1.359 3.84,-1.679 5.762,-0.878 -0.961,2.32 -4.48,2.8 -6,0.96"
         style="display:inline;fill:#666666;fill-opacity:1;fill-rule:nonzero;stroke:none"
         id="path4122"
         inkscape:connector-curvature="0"
         transform="matrix(0.6115882,0,0,-0.6115882,82.386947,160.81621)" /><path
         d="m 251.305,148.375 c -1.68,1.043 -3.918,1.043 -5.52,0 0.559,-2.238 4.32,-2.398 5.121,-0.238"
         style="display:inline;fill:#666666;fill-opacity:1;fill-rule:nonzero;stroke:none"
         id="path4124"
         inkscape:connector-curvature="0"
         transform="matrix(0.6115882,0,0,-0.6115882,82.386947,160.81621)" /><path
         d="m 199.145,212.856 c 0.32,0.801 0.562,1.679 0.8,2.48 -1.359,0.16 -2.48,-1.199 -2.64,-2.558 -0.078,-1.36 0.48,-2.641 1.039,-3.84 1.558,-0.571 1.633,2.515 2.082,1.117"
         style="display:inline;fill:#666666;fill-opacity:1;fill-rule:nonzero;stroke:none"
         id="path4126"
         inkscape:connector-curvature="0"
         transform="matrix(0.6115882,0,0,-0.6115882,82.386947,160.81621)" /><path
         d="m 294.051,63.438 c -2.321,1.039 -4.184,1.898 -6.504,2.937 0.957,-0.879 1.519,-2.238 1.519,-3.519 2.079,-0.399 4.161,-0.961 6.079,-1.758 0.64,0.719 0.32,2.078 -0.481,2.559"
         style="display:inline;fill:#666666;fill-opacity:1;fill-rule:nonzero;stroke:none"
         id="path4128"
         inkscape:connector-curvature="0"
         transform="matrix(0.6115882,0,0,-0.6115882,82.386947,160.81621)" /><path
         d="m 281.305,54.375 c 2.64,0.883 4.879,2.801 6.16,5.203 0.801,1.438 0.402,4 -1.199,3.598 -0.481,-1.519 -0.961,-3.039 -1.52,-4.48 -2.16,0.16 -4.082,-2.239 -3.441,-4.321"
         style="display:inline;fill:#666666;fill-opacity:1;fill-rule:nonzero;stroke:none"
         id="path4130"
         inkscape:connector-curvature="0"
         transform="matrix(0.6115882,0,0,-0.6115882,82.386947,160.81621)" /><path
         d="m 267.125,51.723 c 4.48,-1.039 9.359,-0.238 13.281,2.082 -0.64,0.32 -1.043,1.039 -0.883,1.758 -4.16,-1.281 -8.316,-2.559 -12.398,-3.84"
         style="display:inline;fill:#666666;fill-opacity:1;fill-rule:nonzero;stroke:none"
         id="path4132"
         inkscape:connector-curvature="0"
         transform="matrix(0.6115882,0,0,-0.6115882,82.386947,160.81621)" /><path
         d="m 253.875,169.797 c -1.043,7.387 -1.344,12.012 -1.195,16.391 0.144,4.383 0.304,7.629 -0.016,9.07 -2.48,-7.762 -2.129,-13.273 -1.758,-24.32"
         style="display:inline;fill:#666666;fill-opacity:1;fill-rule:nonzero;stroke:none"
         id="path4134"
         inkscape:connector-curvature="0"
         transform="matrix(0.6115882,0,0,-0.6115882,82.386947,160.81621)" /><path
         d="m 224.906,119.578 c 3.278,-5.441 6.641,-10.8 9.918,-16.16 l 1.68,-2.64 c 1.601,1.199 0.883,3.679 0.082,5.519 -2.481,5.598 -5.762,11.84 -11.68,13.281"
         style="display:inline;fill:#666666;fill-opacity:1;fill-rule:nonzero;stroke:none"
         id="path4136"
         inkscape:connector-curvature="0"
         transform="matrix(0.6115882,0,0,-0.6115882,82.386947,160.81621)" /><path
         d="m 165.547,175.098 c 1.359,3.277 -2.641,6.078 -5.922,7.359 -4.641,1.68 -10.719,2.801 -13.68,-1.199 1.762,-2 5.121,-4 6.719,-1.84 1.52,2 4.723,1.52 6.883,0.078 2.078,-1.359 3.68,-3.441 6,-4.398"
         style="display:inline;fill:#666666;fill-opacity:1;fill-rule:nonzero;stroke:none"
         id="path4138"
         inkscape:connector-curvature="0"
         transform="matrix(0.6115882,0,0,-0.6115882,82.386947,160.81621)" /><path
         d="m 237.707,190.696 c 2.238,0 4.078,1.761 5.438,3.519 2.722,3.68 4.722,8.32 3.679,12.723 -0.797,3.437 -3.277,6.558 -2.719,10 -0.64,0.16 -1.039,-0.563 -1.281,-1.121 -2.719,-8.239 0.403,-18.399 -5.117,-25.121"
         style="display:inline;fill:#666666;fill-opacity:1;fill-rule:nonzero;stroke:none"
         id="path4140"
         inkscape:connector-curvature="0"
         transform="matrix(0.6115882,0,0,-0.6115882,82.386947,160.81621)" /><path
         d="m 228.984,123.418 c 2.801,0.719 6,-0.64 7.442,-3.121 2.238,0.719 4.48,1.36 6.719,2.078 1.039,-1.437 2.96,-2.398 4.8,-2.32 -1.359,0.562 0,2.641 1.442,2.883 1.359,0.16 3.277,0.238 3.597,1.597 -4.48,1.2 -9.117,-1.757 -13.757,-1.519 -4.883,0.242 -10.403,3.762 -14.082,0.562 0.722,-1.441 1.519,-2.8 2.32,-4.242 1.762,0.242 2.719,2.719 1.519,4.082"
         style="display:inline;fill:#666666;fill-opacity:1;fill-rule:nonzero;stroke:none"
         id="path4142"
         inkscape:connector-curvature="0"
         transform="matrix(0.6115882,0,0,-0.6115882,82.386947,160.81621)" /><path
         d="m 281.465,82.375 c 0.16,2.321 0.242,4.563 0.402,6.883 -0.801,0.719 -2.16,0.477 -2.801,-0.402 -1.281,1.519 -2,3.441 -2.082,5.359 -2.32,-0.398 -4.879,1.363 -5.277,3.762 0.957,2.16 2.637,3.918 4.719,4.961 -0.242,3.597 -0.559,7.117 -0.801,10.64 -0.238,3.84 -1.359,8.719 -5.199,9.36 -1.52,0.16 -2.961,-0.321 -4.321,-0.883 -5.281,-2.16 -10.558,-4.797 -14.558,-8.957 -8.883,-9.363 -8.641,-25.922 0.637,-34.961 2,-1.922 4.48,-3.762 5.363,-6.402 3.598,0.16 7.199,-0.477 10.48,-1.918 1.2,-0.559 2.559,-2 1.758,-3.039 3.602,-1.121 7.52,1.277 9.36,4.558 1.921,3.36 2.16,7.281 2.32,11.039 m -21.039,-0.48 c 0.879,1.121 2.078,2 3.519,2.402 0.321,-1.922 0.082,-4.242 -1.441,-5.601 -1.438,-1.36 -4.32,-1.039 -5.039,0.8 -0.238,0.641 -0.238,1.36 -0.16,2 0.16,3.602 0.32,7.121 0.48,10.641 2.879,-2.402 4,-6.719 2.641,-10.242 m 6.801,14.801 c -1.68,-3.118 -2.161,-6.879 -1.442,-10.321 -3.199,1.68 -4.879,5.762 -3.84,9.282 1.442,1.039 3.442,1.441 5.282,1.039 m 2.64,-7.438 c 0.399,1.117 0.719,2.238 1.117,3.359 2.161,-0.96 4,-2.882 4.243,-5.281 0.238,-2.398 -1.84,-4.879 -4.243,-4.558 -1.437,0.64 -0.398,3.519 1.121,2.957 0.801,1.441 -0.718,3.043 -2.238,3.523"
         style="display:inline;fill:#666666;fill-opacity:1;fill-rule:nonzero;stroke:none"
         id="path4144"
         inkscape:connector-curvature="0"
         transform="matrix(0.6115882,0,0,-0.6115882,82.386947,160.81621)" /><path
         d="m 260.691,236.996 c -0.562,0.563 -0.316,-1.886 -1.195,-9.851 -0.879,-7.961 -2.754,-11.328 -6.351,-26.449 6.21,13.347 9.058,23.23 10.261,35.593"
         style="display:inline;fill:#666666;fill-opacity:1;fill-rule:nonzero;stroke:none"
         id="path4146"
         inkscape:connector-curvature="0"
         transform="matrix(0.6115882,0,0,-0.6115882,82.386947,160.81621)" /><path
         d="m 183.414,221.246 c -0.09,12.235 0.527,24.012 2.766,28.172 -5.239,2.574 -5.157,-8.617 -4.836,-12.136 -5.035,7.675 -10.285,11.976 -15.563,10.214 -5.281,-1.839 -5.347,-7.898 -1.203,-12.48 4.817,-6.598 6.063,-11.289 9.602,-19.598 -2.879,-4.082 -7.2,-7.203 -12,-8.722 -11.52,-2.399 -22,-10.161 -26.961,-20.879 -4.879,-10.719 -3.918,-24.082 3.043,-33.52 14.156,-19.199 44.957,-17.199 61.758,-34.16 11.519,-11.602 13.679,-29.199 18.64,-44.719 10.078,-31.761 34.641,-58.64 65.442,-71.441 3.117,-1.281 6.558,-2.481 9.839,-1.762 7.278,1.602 9.438,10.801 9.758,18.242 0.403,10.961 0,22 -1.437,32.879 -0.321,2.719 -1.922,6.399 -4.641,5.602 2,-6.242 2.481,-12.883 1.52,-19.36 -5.922,5.68 -15.36,4.797 -23.36,6.637 -18,4.082 -28.961,22 -36.562,38.801 -7.68,16.801 -15.199,35.441 -31.36,44.402 15.282,0.637 30.481,1.278 45.762,2 6.399,0.239 13.68,0.239 18.078,-4.48 0.961,2.398 0.403,5.039 0,7.519 -1.758,9.84 -2.238,19.918 -1.437,29.918 -1.844,-1.437 -4.883,-0.64 -5.922,1.442 -4,-2.641 -9.281,0.16 -13.68,2.16 -6.801,3.121 -14.558,4.16 -22,3.039 -8.32,-1.359 -16.801,-5.281 -24.801,-2.641 -6.238,2.082 -10.996,7.332 -16.714,18.25 -5.715,10.922 -3.645,24.383 -3.731,36.621 z m -17.555,-68.468 c -2,1.277 -4,2.64 -5.839,4.16 -5.282,4.32 -9.282,10 -13.282,15.597 -1.199,1.68 -2.476,3.52 -3.039,5.52 -1.597,5.523 2.563,11.68 8.16,12.961 5.602,1.281 11.602,-1.84 14.559,-6.719 1.441,-2.32 2.242,-4.961 2.961,-7.601 2.48,-9.52 3.922,-19.278 4.16,-29.118 -2.559,1.68 -5.121,3.438 -7.68,5.2 m 54.879,9.679 c 1.442,0.641 2.961,1.121 4.563,1.438 7.519,1.441 15.758,-2.078 20,-8.477 -2.321,-1.601 -5.52,-0.32 -8.242,0.797 -2.641,1.043 -6.399,1.52 -7.84,-0.957 -0.641,-1.121 -2,-1.441 -3.278,-1.68 -7.921,-1.363 -15.761,-2.722 -23.679,-4.082 -2.082,-0.398 -3.602,1.922 -4.481,3.762 -1.043,2.16 -2,4.32 -3.043,6.477 -1.597,3.601 -3.359,7.281 -3.758,11.203 6,-9.602 19.598,-13.52 29.758,-8.481 m 15.68,-9.359 c -0.797,-5.441 2.883,-11.281 8.16,-12.883 1.922,-0.558 1.442,-3.598 -0.16,-4.719 -1.598,-1.199 -3.84,-1.601 -5.117,-3.039 -1.121,-1.199 -2.723,0.801 -3.121,2.399 -1.039,4.801 -2.078,9.679 -3.2,14.562 -0.32,1.36 -0.562,2.957 0.239,4.16 0.801,1.118 3.121,0.957 3.199,-0.48 m 4.242,-5.121 c 0,0.398 0.238,0.801 0.481,1.121 2.16,2.797 6.16,4.16 9.597,3.199 1.602,-0.48 3.282,-1.84 3.121,-3.519 -0.078,-0.641 -0.48,-1.282 -0.8,-1.84 -1.36,-2.16 -2.719,-4.403 -4.079,-6.563 -2.48,2.16 -4.96,4.242 -7.441,6.321 -0.398,0.402 -0.801,0.722 -0.879,1.281 m 12.719,-9.602 c -0.32,1.442 0.242,2.961 0.961,4.242 1.039,1.918 2.398,3.68 4,5.2 3.039,-2.719 4.961,-6.719 5.121,-10.801 -1.762,-0.801 -3.602,-1.598 -5.52,-1.598 -2,0 -4.082,1.117 -4.562,2.957 m -85.512,104.782 c 5.399,1.757 7.16,0.234 7.801,-0.969 1.52,-2.719 3.039,-6.125 3.359,-9.246 0.321,-3.039 1.508,-18.848 -4.547,-10.168 -6.058,8.676 -12.011,18.621 -6.613,20.383 z m 97.992,-88.7 c 2.243,-0.64 2.961,-3.519 2.559,-5.84 -0.398,-2 -1.52,-3.839 -2.957,-5.281 -2.082,1.68 -4.082,3.762 -4.32,6.399 -0.243,2.562 2.16,5.441 4.718,4.722 M 232.66,133.336 c -0.719,-0.398 -1.359,-0.801 -2,-1.199 -1.762,6.078 -3.601,12.16 -5.359,18.238 0.719,-0.957 2.238,-1.359 3.359,-0.797 1.918,-5.281 3.281,-10.722 4,-16.242 m -41.519,2.641 c -2.082,2.64 -2.961,6.16 -2.481,9.441 2.801,-2.082 3.918,-6.242 2.481,-9.441 m -9.442,10.558 c -0.64,0.723 -0.558,2 0.16,2.641 2.481,-1.598 3.762,-4.879 3.039,-7.758 -1.757,0.957 -3.039,2.957 -3.039,5.039 m 6.961,-14.402 c -1.922,-0.957 -3.601,1.602 -4.16,3.68 0.399,1.121 2.16,1.043 2.961,0.16 0.719,-0.879 0.719,-2.16 0.797,-3.36 m 6.082,-4.48 c 0.559,-0.637 0.559,-1.758 0,-2.398 -1.441,1.199 -2.641,2.718 -3.602,4.398 0.723,0.641 1.442,1.363 2.082,2.082 l 1.438,-4.082"
         style="display:inline;fill:#666666;fill-opacity:1;fill-rule:nonzero;stroke:none"
         id="path4148"
         inkscape:connector-curvature="0"
         transform="matrix(0.6115882,0,0,-0.6115882,82.386947,160.81621)" /></g></g><g
     inkscape:groupmode="layer"
     id="layer4"
     inkscape:label="Text"
     style="display:inline"
     transform="translate(-48.512875,42.381505)"><g
       transform="matrix(1.25,0,0,-1.25,-173.797,764.03113)"
       style="display:inline"
       id="g3410" /><text
       y="-338.91019"
       x="220.82111"
       id="text3442"
       style="font-variant:normal;font-weight:normal;font-size:12px;font-family:'Myriad Pro';-inkscape-font-specification:MyriadPro-Regular;writing-mode:lr-tb;display:inline;fill:#a5a7a6;fill-opacity:1;fill-rule:nonzero;stroke:none"
       transform="matrix(1.25,0,0,1.25,-173.797,764.03113)"><tspan
         id="tspan3444"
         sodipodi:role="line"
         y="-338.91019"
         x="220.82111 226.73711 233.34911 240.17709 250.1851 252.9931 256.96509 260.86511 266.87711 273.64511 276.18909 278.9971 285.6571 288.20111 295.02911 300.81311 305.0239 308.99591 311.80389 317.58789 320.41989 322.9639 326.4679 333.0799">Submitted in partial ful</tspan></text>
<text
       y="-338.91019"
       x="335.9119"
       id="text3446"
       style="font-variant:normal;font-weight:normal;font-size:12px;font-family:'Myriad Pro';-inkscape-font-specification:MyriadPro-Regular;writing-mode:lr-tb;display:inline;fill:#a5a7a6;fill-opacity:1;fill-rule:nonzero;stroke:none"
       transform="matrix(1.25,0,0,1.25,-173.797,764.03113)"><tspan
         id="tspan3448"
         y="-338.91019"
         x="335.9119">f</tspan></text>
<text
       y="-338.91019"
       x="342.1879"
       id="text3450"
       style="font-variant:normal;font-weight:normal;font-size:12px;font-family:'Myriad Pro';-inkscape-font-specification:MyriadPro-Regular;writing-mode:lr-tb;display:inline;fill:#a5a7a6;fill-opacity:1;fill-rule:nonzero;stroke:none"
       transform="matrix(1.25,0,0,1.25,-173.797,764.03113)"><tspan
         id="tspan3452"
         sodipodi:role="line"
         y="-338.91019"
         x="342.1879 345.0199 347.8519 357.85989 363.87189 370.4827">llment</tspan></text>
<text
       y="-324.51019"
       x="211.4491"
       id="text3454"
       style="font-variant:normal;font-weight:normal;font-size:12px;font-family:'Myriad Pro';-inkscape-font-specification:MyriadPro-Regular;writing-mode:lr-tb;display:inline;fill:#a5a7a6;fill-opacity:1;fill-rule:nonzero;stroke:none"
       transform="matrix(1.25,0,0,1.25,-173.797,764.03113)"><tspan
         id="tspan3456"
         sodipodi:role="line"
         y="-324.51019"
         x="211.4491 218.03709 221.54111 224.0851 228.0571 234.7171 240.7291 243.2731 247.0759 253.08791 259.8439 266.4559 269.26389 273.0679 279.0799 289.08789 295.09991 301.71191 305.6839 310.43591 312.97989 316.32791 322.91589 326.8399 329.38391 333.3559 340.0159 346.02789 348.5719 355.3399 361.3519 367.98669 371.79071 377.8027">of the requirements for the degree</tspan></text>
<text
       y="-304.4462"
       x="198.7771"
       id="text3458"
       style="font-variant:normal;font-weight:normal;font-size:12px;font-family:'Myriad Pro';-inkscape-font-specification:MyriadPro-Regular;writing-mode:lr-tb;display:inline;fill:#231f20;fill-opacity:1;fill-rule:nonzero;stroke:none"
       transform="matrix(1.25,0,0,1.25,-173.797,764.03113)"><tspan
         id="tspan3460"
         sodipodi:role="line"
         y="-304.4462"
         x="198.7771 208.6171 214.5211 219.3931 223.4131 229.5451 233.5891 236.2531 242.96111 246.5851 249.2491 255.3571 260.85309 263.7811 269.91312 276.69312 282.1171 288.24911 290.91312 293.84109 300.62109 303.2851 310.23309 316.9411 327.06912 334.01712 340.74911 344.7691 350.90109 354.9451 357.6091 363.7171 369.2131 372.14111 378.2731 385.0531 390.47711">Master of Science in Computer Science</tspan></text>
<text
       y="-273.04221"
       x="198.36909"
       id="text3462"
       style="font-variant:normal;font-weight:normal;font-size:12px;font-family:'Myriad Pro';-inkscape-font-specification:MyriadPro-Regular;writing-mode:lr-tb;display:inline;fill:#a5a7a6;fill-opacity:1;fill-rule:nonzero;stroke:none"
       transform="matrix(1.25,0,0,1.25,-173.797,764.03113)"><tspan
         id="tspan3464"
         sodipodi:role="line"
         y="-273.04221"
         x="198.36909 205.56911 212.18111 216.15311 222.8131 229.40109 233.43311">Author:</tspan></text>
<text
       y="-273.04221"
       x="257.90109"
       id="text3466"
       style="font-variant:normal;font-weight:normal;font-size:12px;font-family:'Myriad Pro';-inkscape-font-specification:MyriadPro-Regular;writing-mode:lr-tb;display:inline;fill:#a5a7a6;fill-opacity:1;fill-rule:nonzero;stroke:none"
       transform="matrix(1.25,0,0,1.25,-173.797,764.03113)"><tspan
         id="tspan3468"
         sodipodi:role="line"
         y="-273.04221"
         x="257.90109 263.98511 269.9971 273.89709 279.90909 283.8331 286.37711 292.36511 297.74109 304.40109 311.01309 313.84509 318.98111 321.46509">Peter Schulz, </tspan></text>
<text
       y="-273.04221"
       x="324.00909"
       id="text3470"
       style="font-variant:normal;font-weight:normal;font-size:12px;font-family:'Myriad Pro';-inkscape-font-specification:MyriadPro-Regular;writing-mode:lr-tb;display:inline;fill:#a5a7a6;fill-opacity:1;fill-rule:nonzero;stroke:none"
       transform="matrix(1.25,0,0,1.25,-173.797,764.03113)"><tspan
         id="tspan3472"
         sodipodi:role="line"
         y="-273.04221"
         x="324.00909 329.92389 337.00391 343.09991 349.8439 355.69989 361.7959">3024726</tspan></text>
<text
       y="-252.9782"
       x="198.36909"
       id="text3474"
       style="font-variant:normal;font-weight:normal;font-size:12px;font-family:'Myriad Pro';-inkscape-font-specification:MyriadPro-Regular;writing-mode:lr-tb;display:inline;fill:#a5a7a6;fill-opacity:1;fill-rule:nonzero;stroke:none"
       transform="matrix(1.25,0,0,1.25,-173.797,764.03113)"><tspan
         id="tspan3476"
         sodipodi:role="line"
         y="-252.9782"
         x="198.36909 204.2731 209.8291 215.6131 225.62109 228.42909 235.0891 241.1011 245.0251 249.7771">Examiners:</tspan></text>
<text
       y="-252.9782"
       x="257.90109"
       id="text3478"
       style="font-variant:normal;font-weight:normal;font-size:12px;font-family:'Myriad Pro';-inkscape-font-specification:MyriadPro-Regular;writing-mode:lr-tb;display:inline;fill:#a5a7a6;fill-opacity:1;fill-rule:nonzero;stroke:none"
       transform="matrix(1.25,0,0,1.25,-173.797,764.03113)"><tspan
         id="tspan3480"
         sodipodi:role="line"
         y="-252.9782"
         x="257.90109 264.09311 267.89709 274.48511 277.59311 280.07709 282.62109 290.6131 293.90109 296.3851 298.92911 305.52789 311.31189 314.1199 320.77991 326.7919 330.71588 333.25989 342.97989 348.76389 351.59589 357.37988 363.22269">Prof. Dr. Rainer Malaka</tspan></text>
<text
       y="-238.5782"
       x="257.90109"
       id="text3482"
       style="font-variant:normal;font-weight:normal;font-size:12px;font-family:'Myriad Pro';-inkscape-font-specification:MyriadPro-Regular;writing-mode:lr-tb;display:inline;fill:#a5a7a6;fill-opacity:1;fill-rule:nonzero;stroke:none"
       transform="matrix(1.25,0,0,1.25,-173.797,764.03113)"><tspan
         id="tspan3484"
         sodipodi:role="line"
         y="-238.5782"
         x="257.90109 264.09311 267.89709 274.48511 277.59311 280.07709 282.62109 290.6131 293.90109 296.3851 298.92911 303.36911 309.95709 316.6171 322.40109 329.0611 335.7211 341.73309 346.48511 349.02908 355.0159 360.39191 367.05191 373.63989 380.2999 383.10791 389.76791">Prof. Dr. Johannes Schning</tspan></text>
<text
       y="-218.51421"
       x="198.36909"
       id="text3486"
       style="font-variant:normal;font-weight:normal;font-size:12px;font-family:'Myriad Pro';-inkscape-font-specification:MyriadPro-Regular;writing-mode:lr-tb;display:inline;fill:#a5a7a6;fill-opacity:1;fill-rule:nonzero;stroke:none"
       transform="matrix(1.25,0,0,1.25,-173.797,764.03113)"><tspan
         id="tspan3488"
         sodipodi:role="line"
         y="-218.51421"
         x="198.36909 204.2851 210.89709 217.7251 223.73711 227.96111 233.73309 236.54111 241.29311 247.8811 251.9119">Supervisor:</tspan></text>
<text
       y="-218.51421"
       x="257.90109"
       id="text3490"
       style="font-variant:normal;font-weight:normal;font-size:12px;font-family:'Myriad Pro';-inkscape-font-specification:MyriadPro-Regular;writing-mode:lr-tb;display:inline;fill:#a5a7a6;fill-opacity:1;fill-rule:nonzero;stroke:none"
       transform="matrix(1.25,0,0,1.25,-173.797,764.03113)"><tspan
         id="tspan3492"
         sodipodi:role="line"
         y="-218.51421"
         x="257.90109 265.8931 275.90109 278.70911 282.68109 286.90509 292.5571 295.1011 302.40909 305.24109 311.2171 316.7731 322.5571 329.2171 335.98511 339.7879 346.2919 351.99188 356.7439 362.52789">Dmitry Alexandrovsky</tspan></text>
<text
       y="-198.4502"
       x="257.90109"
       id="text3494"
       style="font-variant:normal;font-weight:normal;font-size:12px;font-family:'Myriad Pro';-inkscape-font-specification:MyriadPro-Regular;writing-mode:lr-tb;display:inline;fill:#a5a7a6;fill-opacity:1;fill-rule:nonzero;stroke:none"
       transform="matrix(1.25,0,0,1.25,-173.797,764.03113)"><tspan
         id="tspan3496"
         sodipodi:role="line"
         y="-198.4502"
         x="257.90109 264.64511 268.68909 274.9411 285.18909 291.4411 298.34109 301.06509 303.84909 308.52908 315.3811 318.45309 324.34509">Bremen, July </tspan></text>
<text
       y="-198.4502"
       x="327.12909"
       id="text3498"
       style="font-variant:normal;font-weight:normal;font-size:12px;font-family:'Myriad Pro';-inkscape-font-specification:MyriadPro-Regular;writing-mode:lr-tb;display:inline;fill:#a5a7a6;fill-opacity:1;fill-rule:nonzero;stroke:none"
       transform="matrix(1.25,0,0,1.25,-173.797,764.03113)"><tspan
         id="tspan3500"
         y="-198.4502"
         x="327.12909">1</tspan></text>
<text
       y="-198.4502"
       x="331.7131"
       id="text3502"
       style="font-variant:normal;font-weight:normal;font-size:12px;font-family:'Myriad Pro';-inkscape-font-specification:MyriadPro-Regular;writing-mode:lr-tb;display:inline;fill:#a5a7a6;fill-opacity:1;fill-rule:nonzero;stroke:none"
       transform="matrix(1.25,0,0,1.25,-173.797,764.03113)"><tspan
         id="tspan3504"
         sodipodi:role="line"
         y="-198.4502"
         x="331.7131 336.70511 340.8811 343.6051">st, </tspan></text>
<text
       y="-198.4502"
       x="346.3891"
       id="text3506"
       style="font-variant:normal;font-weight:normal;font-size:12px;font-family:'Myriad Pro';-inkscape-font-specification:MyriadPro-Regular;writing-mode:lr-tb;display:inline;fill:#a5a7a6;fill-opacity:1;fill-rule:nonzero;stroke:none"
       transform="matrix(1.25,0,0,1.25,-173.797,764.03113)"><tspan
         id="tspan3508"
         sodipodi:role="line"
         y="-198.4502"
         x="346.3891 352.0051 358.6051 363.18909">2018</tspan></text>
<text
       y="-679.37421"
       x="180.8131"
       id="text3510"
       style="font-variant:normal;font-weight:normal;font-size:12px;font-family:'Myriad Pro';-inkscape-font-specification:MyriadPro-Regular;writing-mode:lr-tb;display:inline;fill:#a5a7a6;fill-opacity:1;fill-rule:nonzero;stroke:none"
       transform="matrix(1.25,0,0,1.25,-173.797,764.03113)"><tspan
         id="tspan3512"
         sodipodi:role="line"
         y="-679.37421"
         x="180.8131 186.1171 191.90111 197.2771 203.8891 206.7211 210.8011 216.45309 218.9971 225.5851 229.0891 231.6331 241.3519 247.08791 251.05991 257.71991 263.7319 273.7399 279.47589 283.44791 286.25589 291.6319 296.38391 298.92789 304.71191 311.37192 318.13989 320.6839 327.51071 334.09869 344.10669 350.93469 357.54669 361.44672 367.45871 371.38269 373.9267 379.9147 385.29071 388.09869 394.11072 400.77069 406.07352">Faculty of Mathematics and Computer Science</tspan></text>
<text
       y="-664.97418"
       x="223.7131"
       id="text3514"
       style="font-variant:normal;font-weight:normal;font-size:12px;font-family:'Myriad Pro';-inkscape-font-specification:MyriadPro-Regular;writing-mode:lr-tb;display:inline;fill:#a5a7a6;fill-opacity:1;fill-rule:nonzero;stroke:none"
       transform="matrix(1.25,0,0,1.25,-173.797,764.03113)"><tspan
         id="tspan3516"
         sodipodi:role="line"
         y="-664.97418"
         x="223.7131 233.4691 240.0571 244.0291 249.8611 252.6691 259.3291 266.03711 268.58109 276.3331 280.13708 286.7251 293.3371 300.1651 302.70911 310.70111 313.50909 320.14389 322.9519 326.92389 332.70789 335.53989 338.08389 347.8027 353.8147 360.5827 363.39069">Working Group Digital Media</tspan></text>
<text
       y="202.13501"
       x="198.01282"
       id="text3518"
       style="font-variant:normal;font-weight:600;font-size:23.75px;font-family:'Myriad Pro';-inkscape-font-specification:MyriadPro-Semibold;text-align:center;writing-mode:lr-tb;text-anchor:middle;display:inline;fill:#ffffff;fill-opacity:1;fill-rule:nonzero;stroke:none;"
       inkscape:export-filename="/Users/peter/Seafile/Still Footage/title.png"
       inkscape:export-xdpi="348.80246"
       inkscape:export-ydpi="348.80246"><tspan
         id="tspan3520"
         sodipodi:role="line"
         x="198.01282"
         y="202.13501">on Presence and Anxiety</tspan><tspan
         sodipodi:role="line"
         x="198.01282"
         y="231.82251"
         id="tspan6583">in Sport Climbing</tspan></text>
<text
       y="-712.1839"
       x="241.4577"
       id="text3534"
       style="font-variant:normal;font-weight:600;font-size:19px;font-family:'Myriad Pro';-inkscape-font-specification:MyriadPro-Semibold;writing-mode:lr-tb;display:inline;fill:#a5a7a6;fill-opacity:1;fill-rule:nonzero;stroke:none"
       transform="matrix(1.25,0,0,1.25,-173.797,764.03113)"><tspan
         id="tspan3536"
         sodipodi:role="line"
         y="-712.1839"
         x="241.4577 253.6918 264.15891 268.71701 277.75909 287.27621 293.82932 301.37039 305.87149 312.32959 321.52371 328.00079 331.74191 342.39899 348.81909 358.33621 374.1423 383.65939">Universitt Bremen</tspan></text>
<g
       transform="matrix(1.25,0,0,-1.25,-173.797,764.03113)"
       style="display:inline"
       clip-path="url(#clipPath3420)"
       id="g3540"><path
         d="m 210.6894,717.8358 c -0.0126,-3.5792 2.823,-6.3851 6.2109,-6.3851 3.4264,0 6.2117,2.8059 6.2117,6.3851 l 0,16.3374 -3.0995,0 0,-16.3374 c 0,-1.7831 -1.3927,-3.1468 -3.1122,-3.1468 -1.6561,0 -3.1113,1.4161 -3.1113,3.1468 l 0,9.8204 -3.0996,0 0,-9.8204 z"
         style="fill:#c52141;fill-opacity:1;fill-rule:evenodd;stroke:none"
         id="path3542"
         inkscape:connector-curvature="0" /><path
         d="m 198.3771,730.9213 2.98888,0 0,3.25192 -2.98888,0 0,-3.25192 z"
         style="fill:#c52141;fill-opacity:1;fill-rule:evenodd;stroke:none"
         id="path3544"
         inkscape:connector-curvature="0" /><path
         d="m 201.366,727.6694 3.0991,0 0,3.25192 -3.0991,0 0,-3.25192 z"
         style="fill:#c52141;fill-opacity:1;fill-rule:evenodd;stroke:none"
         id="path3546"
         inkscape:connector-curvature="0" /><path
         d="m 204.4651,730.9213 3.1122,0 0,3.25192 -3.1122,0 0,-3.25192 z"
         style="fill:#c52141;fill-opacity:1;fill-rule:evenodd;stroke:none"
         id="path3548"
         inkscape:connector-curvature="0" /><path
         d="m 210.6895,730.9213 3.09955,0 0,3.25192 -3.09955,0 0,-3.25192 z"
         style="fill:#c52141;fill-opacity:1;fill-rule:evenodd;stroke:none"
         id="path3550"
         inkscape:connector-curvature="0" /><path
         d="m 207.5773,727.6694 3.1122,0 0,3.25192 -3.1122,0 0,-3.25192 z"
         style="fill:#c52141;fill-opacity:1;fill-rule:evenodd;stroke:none"
         id="path3552"
         inkscape:connector-curvature="0" /><path
         d="m 235.5474,734.1595 0,-16.3238 c 0,-10.7121 -8.3571,-19.3791 -18.634,-19.3791 -9.5462,0 -17.4731,7.4972 -18.5363,17.1632 l 0,12.05 2.9888,0 0,-9.8336 c 0,-8.9296 6.9897,-16.1276 15.5475,-16.1276 8.5579,0 15.5217,7.198 15.5217,16.1276 l 0,16.337 3.1123,-0.0137 z"
         style="fill:#c52141;fill-opacity:1;fill-rule:evenodd;stroke:none"
         id="path3554"
         inkscape:connector-curvature="0" /><path
         d="m 226.2242,734.1732 0,-16.3375 c 0,-5.3626 -4.1916,-9.6369 -9.3239,-9.6369 -5.1447,0 -9.3231,4.2743 -9.3231,9.6369 l 0,9.8468 -3.1122,0 0,-9.8468 c 0,-7.1456 5.5843,-12.8757 12.4353,-12.8757 6.8518,0 12.4235,5.7301 12.4235,12.8757 l 0,16.3238 -3.1,0.0137 4e-4,0 z"
         style="fill:#c52141;fill-opacity:1;fill-rule:evenodd;stroke:none"
         id="path3556"
         inkscape:connector-curvature="0" /></g><g
       transform="matrix(1.25,0,0,-1.25,-173.797,764.03113)"
       style="display:inline;fill:#ffffff"
       clip-path="url(#clipPath3424)"
       id="g3560"
       inkscape:export-filename="/Users/peter/Seafile/Still Footage/title.png"
       inkscape:export-xdpi="348.80246"
       inkscape:export-ydpi="348.80246"><text
         transform="matrix(1,0,0,-1,176.8989,475.0394)"
         style="font-variant:normal;font-weight:600;font-size:19px;font-family:'Myriad Pro';-inkscape-font-specification:MyriadPro-Semibold;writing-mode:lr-tb;fill:#ffffff;fill-opacity:1;fill-rule:nonzero;stroke:none"
         id="text3562"><tspan
           x="0"
           y="0"
           id="tspan3564"
           style="fill:#ffffff">E</tspan></text>
<text
         transform="matrix(1,0,0,-1,186.6269,475.0394)"
         style="font-variant:normal;font-weight:600;font-size:19px;font-family:'Myriad Pro';-inkscape-font-specification:MyriadPro-Semibold;writing-mode:lr-tb;fill:#ffffff;fill-opacity:1;fill-rule:nonzero;stroke:none"
         id="text3566"><tspan
           x="0"
           y="0"
           id="tspan3568"
           style="fill:#ffffff">ff</tspan></text>
<text
         transform="matrix(1,0,0,-1,198.1979,475.0394)"
         style="font-variant:normal;font-weight:600;font-size:19px;font-family:'Myriad Pro';-inkscape-font-specification:MyriadPro-Semibold;writing-mode:lr-tb;fill:#ffffff;fill-opacity:1;fill-rule:nonzero;stroke:none"
         id="text3570"><tspan
           x="0"
           y="0"
           id="tspan3572"
           style="fill:#ffffff">e</tspan></text>
<text
         transform="matrix(1,0,0,-1,208.0019,475.0394)"
         style="font-variant:normal;font-weight:600;font-size:19px;font-family:'Myriad Pro';-inkscape-font-specification:MyriadPro-Semibold;writing-mode:lr-tb;fill:#ffffff;fill-opacity:1;fill-rule:nonzero;stroke:none"
         id="text3574"><tspan
           x="0"
           y="0"
           id="tspan3576"
           style="fill:#ffffff">c</tspan></text>
<text
         transform="matrix(1,0,0,-1,216.8179,475.0394)"
         style="font-variant:normal;font-weight:600;font-size:19px;font-family:'Myriad Pro';-inkscape-font-specification:MyriadPro-Semibold;writing-mode:lr-tb;fill:#ffffff;fill-opacity:1;fill-rule:nonzero;stroke:none"
         id="text3578"><tspan
           x="0"
           y="0"
           id="tspan3580"
           style="fill:#ffffff">t</tspan></text>
<text
         transform="matrix(1,0,0,-1,223.4869,475.0394)"
         style="font-variant:normal;font-weight:600;font-size:19px;font-family:'Myriad Pro';-inkscape-font-specification:MyriadPro-Semibold;writing-mode:lr-tb;fill:#ffffff;fill-opacity:1;fill-rule:nonzero;stroke:none"
         id="text3582"><tspan
           x="0"
           y="0"
           id="tspan3584"
           style="fill:#ffffff">s</tspan></text>
<text
         transform="matrix(1,0,0,-1,235.3429,475.0394)"
         style="font-variant:normal;font-weight:600;font-size:19px;font-family:'Myriad Pro';-inkscape-font-specification:MyriadPro-Semibold;writing-mode:lr-tb;fill:#ffffff;fill-opacity:1;fill-rule:nonzero;stroke:none"
         id="text3586"><tspan
           x="0"
           y="0"
           id="tspan3588"
           style="fill:#ffffff">o</tspan></text>
<text
         transform="matrix(1,0,0,-1,246.0589,475.0394)"
         style="font-variant:normal;font-weight:600;font-size:19px;font-family:'Myriad Pro';-inkscape-font-specification:MyriadPro-Semibold;writing-mode:lr-tb;fill:#ffffff;fill-opacity:1;fill-rule:nonzero;stroke:none"
         id="text3590"><tspan
           x="0"
           y="0"
           id="tspan3592"
           style="fill:#ffffff">f</tspan></text>
<text
         transform="matrix(0.99803836,-0.06260536,-0.06260536,-0.99803836,256.0502,474.9898)"
         style="font-variant:normal;font-weight:600;font-size:18.99997139px;font-family:'Myriad Pro';-inkscape-font-specification:MyriadPro-Semibold;writing-mode:lr-tb;fill:#ffffff;fill-opacity:1;fill-rule:nonzero;stroke:none"
         id="text3594"><tspan
           x="0"
           y="0"
           id="tspan3596"
           style="fill:#ffffff">P</tspan></text>
<text
         transform="matrix(0.99803836,-0.06260536,-0.06260536,-0.99803836,266.5935,474.3284)"
         style="font-variant:normal;font-weight:600;font-size:18.99997139px;font-family:'Myriad Pro';-inkscape-font-specification:MyriadPro-Semibold;writing-mode:lr-tb;fill:#ffffff;fill-opacity:1;fill-rule:nonzero;stroke:none"
         id="text3598"><tspan
           x="0"
           y="0"
           id="tspan3600"
           style="fill:#ffffff">h</tspan></text>
<text
         transform="matrix(0.99803836,-0.06260536,-0.06260536,-0.99803836,277.1367,473.6671)"
         style="font-variant:normal;font-weight:600;font-size:18.99997139px;font-family:'Myriad Pro';-inkscape-font-specification:MyriadPro-Semibold;writing-mode:lr-tb;fill:#ffffff;fill-opacity:1;fill-rule:nonzero;stroke:none"
         id="text3602"><tspan
           x="0"
           y="0"
           id="tspan3604"
           style="fill:#ffffff">y</tspan></text>
<text
         transform="matrix(0.99803836,-0.06260536,-0.06260536,-0.99803836,286.3905,473.0866)"
         style="font-variant:normal;font-weight:600;font-size:18.99997139px;font-family:'Myriad Pro';-inkscape-font-specification:MyriadPro-Semibold;writing-mode:lr-tb;fill:#ffffff;fill-opacity:1;fill-rule:nonzero;stroke:none"
         id="text3606"><tspan
           x="0"
           y="0"
           id="tspan3608"
           style="fill:#ffffff">s</tspan></text>
<text
         transform="matrix(0.99803836,-0.06260536,-0.06260536,-0.99803836,294.298,472.5906)"
         style="font-variant:normal;font-weight:600;font-size:18.99997139px;font-family:'Myriad Pro';-inkscape-font-specification:MyriadPro-Semibold;writing-mode:lr-tb;fill:#ffffff;fill-opacity:1;fill-rule:nonzero;stroke:none"
         id="text3610"><tspan
           x="0"
           y="0"
           id="tspan3612"
           style="fill:#ffffff">i</tspan></text>
<text
         transform="matrix(0.99803836,-0.06260536,-0.06260536,-0.99803836,299.1524,472.2861)"
         style="font-variant:normal;font-weight:600;font-size:18.99997139px;font-family:'Myriad Pro';-inkscape-font-specification:MyriadPro-Semibold;writing-mode:lr-tb;fill:#ffffff;fill-opacity:1;fill-rule:nonzero;stroke:none"
         id="text3614"><tspan
           x="0"
           y="0"
           id="tspan3616"
           style="fill:#ffffff">c</tspan></text>
<text
         transform="matrix(0.99803836,-0.06260536,-0.06260536,-0.99803836,307.6667,471.752)"
         style="font-variant:normal;font-weight:600;font-size:18.99997139px;font-family:'Myriad Pro';-inkscape-font-specification:MyriadPro-Semibold;writing-mode:lr-tb;fill:#ffffff;fill-opacity:1;fill-rule:nonzero;stroke:none"
         id="text3618"><tspan
           x="0"
           y="0"
           id="tspan3620"
           style="fill:#ffffff">a</tspan></text>
<text
         transform="matrix(0.99803836,-0.06260536,-0.06260536,-0.99803836,317.2997,471.1477)"
         style="font-variant:normal;font-weight:600;font-size:18.99997139px;font-family:'Myriad Pro';-inkscape-font-specification:MyriadPro-Semibold;writing-mode:lr-tb;fill:#ffffff;fill-opacity:1;fill-rule:nonzero;stroke:none"
         id="text3622"><tspan
           x="0"
           y="0"
           id="tspan3624"
           style="fill:#ffffff">l</tspan></text>
<text
         transform="matrix(0.99690083,0.07866849,0.07866849,-0.99690083,324.6303,467.4167)"
         style="font-variant:normal;font-weight:600;font-size:18.99998474px;font-family:'Myriad Pro';-inkscape-font-specification:MyriadPro-Semibold;writing-mode:lr-tb;fill:#ffffff;fill-opacity:1;fill-rule:nonzero;stroke:none"
         id="text3626"><tspan
           x="0"
           y="0"
           id="tspan3628"
           style="fill:#ffffff">I</tspan></text>
<text
         transform="matrix(0.99690083,0.07866849,0.07866849,-0.99690083,329.7444,467.8203)"
         style="font-variant:normal;font-weight:600;font-size:18.99998474px;font-family:'Myriad Pro';-inkscape-font-specification:MyriadPro-Semibold;writing-mode:lr-tb;fill:#ffffff;fill-opacity:1;fill-rule:nonzero;stroke:none"
         id="text3630"><tspan
           x="0"
           y="0"
           id="tspan3632"
           style="fill:#ffffff">n</tspan></text>
<text
         transform="matrix(0.99690083,0.07866849,0.07866849,-0.99690083,340.484,468.6678)"
         style="font-variant:normal;font-weight:600;font-size:18.99998474px;font-family:'Myriad Pro';-inkscape-font-specification:MyriadPro-Semibold;writing-mode:lr-tb;fill:#ffffff;fill-opacity:1;fill-rule:nonzero;stroke:none"
         id="text3634"><tspan
           x="0"
           y="0"
           id="tspan3636"
           style="fill:#ffffff">t</tspan></text>
<text
         transform="matrix(0.99690083,0.07866849,0.07866849,-0.99690083,347.0187,469.1834)"
         style="font-variant:normal;font-weight:600;font-size:18.99998474px;font-family:'Myriad Pro';-inkscape-font-specification:MyriadPro-Semibold;writing-mode:lr-tb;fill:#ffffff;fill-opacity:1;fill-rule:nonzero;stroke:none"
         id="text3638"><tspan
           x="0"
           y="0"
           id="tspan3640"
           style="fill:#ffffff">e</tspan></text>
<text
         transform="matrix(0.99690083,0.07866849,0.07866849,-0.99690083,356.7923,469.9547)"
         style="font-variant:normal;font-weight:600;font-size:18.99998474px;font-family:'Myriad Pro';-inkscape-font-specification:MyriadPro-Semibold;writing-mode:lr-tb;fill:#ffffff;fill-opacity:1;fill-rule:nonzero;stroke:none"
         id="text3642"><tspan
           x="0"
           y="0"
           id="tspan3644"
           style="fill:#ffffff">r</tspan></text>
<text
         transform="matrix(0.99690083,0.07866849,0.07866849,-0.99690083,363.3648,470.4734)"
         style="font-variant:normal;font-weight:600;font-size:18.99998474px;font-family:'Myriad Pro';-inkscape-font-specification:MyriadPro-Semibold;writing-mode:lr-tb;fill:#ffffff;fill-opacity:1;fill-rule:nonzero;stroke:none"
         id="text3646"><tspan
           x="0"
           y="0"
           id="tspan3648"
           style="fill:#ffffff">a</tspan></text>
<text
         transform="matrix(0.99690083,0.07866849,0.07866849,-0.99690083,372.9869,471.2327)"
         style="font-variant:normal;font-weight:600;font-size:18.99998474px;font-family:'Myriad Pro';-inkscape-font-specification:MyriadPro-Semibold;writing-mode:lr-tb;fill:#ffffff;fill-opacity:1;fill-rule:nonzero;stroke:none"
         id="text3650"><tspan
           x="0"
           y="0"
           id="tspan3652"
           style="fill:#ffffff">c</tspan></text>
<text
         transform="matrix(0.99690083,0.07866849,0.07866849,-0.99690083,381.7756,471.9262)"
         style="font-variant:normal;font-weight:600;font-size:18.99998474px;font-family:'Myriad Pro';-inkscape-font-specification:MyriadPro-Semibold;writing-mode:lr-tb;fill:#ffffff;fill-opacity:1;fill-rule:nonzero;stroke:none"
         id="text3654"><tspan
           x="0"
           y="0"
           id="tspan3656"
           style="fill:#ffffff">t</tspan></text>
<text
         transform="matrix(0.99690083,0.07866849,0.07866849,-0.99690083,388.4239,472.4508)"
         style="font-variant:normal;font-weight:600;font-size:18.99998474px;font-family:'Myriad Pro';-inkscape-font-specification:MyriadPro-Semibold;writing-mode:lr-tb;fill:#ffffff;fill-opacity:1;fill-rule:nonzero;stroke:none"
         id="text3658"><tspan
           x="0"
           y="0"
           id="tspan3660"
           style="fill:#ffffff">i</tspan></text>
<text
         transform="matrix(0.99690083,0.07866849,0.07866849,-0.99690083,393.2728,472.8335)"
         style="font-variant:normal;font-weight:600;font-size:18.99998474px;font-family:'Myriad Pro';-inkscape-font-specification:MyriadPro-Semibold;writing-mode:lr-tb;fill:#ffffff;fill-opacity:1;fill-rule:nonzero;stroke:none"
         id="text3662"><tspan
           x="0"
           y="0"
           id="tspan3664"
           style="fill:#ffffff">o</tspan></text>
<text
         transform="matrix(0.99690083,0.07866849,0.07866849,-0.99690083,403.9556,473.6765)"
         style="font-variant:normal;font-weight:600;font-size:18.99998474px;font-family:'Myriad Pro';-inkscape-font-specification:MyriadPro-Semibold;writing-mode:lr-tb;fill:#ffffff;fill-opacity:1;fill-rule:nonzero;stroke:none"
         id="text3666"><tspan
           x="0"
           y="0"
           id="tspan3668"
           style="fill:#ffffff">n</tspan></text>
</g><flowRoot
       xml:space="preserve"
       id="flowRoot6585"
       style="font-style:normal;font-weight:normal;font-size:40px;line-height:125%;font-family:sans-serif;letter-spacing:0px;word-spacing:0px;fill:#000000;fill-opacity:1;stroke:none;stroke-width:1px;stroke-linecap:butt;stroke-linejoin:miter;stroke-opacity:1"
       transform="translate(2.8388711,-2.1341268)"><flowRegion
         id="flowRegion6587"><rect
           id="rect6589"
           width="171.19994"
           height="48.549236"
           x="19.164173"
           y="83.621742" /></flowRegion><flowPara
         id="flowPara6591">Climbing in VR</flowPara></flowRoot></g><g
     inkscape:groupmode="layer"
     id="layer5"
     inkscape:label="Climbing in VR"
     transform="translate(-45.674004,40.247378)"><text
       xml:space="preserve"
       style="font-style:normal;font-weight:normal;font-size:28.40204239px;line-height:125%;font-family:sans-serif;letter-spacing:0px;word-spacing:0px;fill:#ffffff;fill-opacity:1;stroke:none;stroke-width:1px;stroke-linecap:butt;stroke-linejoin:miter;stroke-opacity:1;"
       x="105.80282"
       y="-19.581928"
       id="text6594"
       sodipodi:linespacing="125%"
       inkscape:export-filename="/Users/peter/Seafile/Still Footage/title.png"
       inkscape:export-xdpi="348.80246"
       inkscape:export-ydpi="348.80246"><tspan
         sodipodi:role="line"
         id="tspan6596"
         x="105.80282"
         y="-19.581928"
         style="font-style:normal;font-variant:normal;font-weight:600;font-stretch:normal;font-family:'Myriad Pro';-inkscape-font-specification:'Myriad Pro Semi-Bold';fill:#ffffff;fill-opacity:1;">Climbing in <tspan
   style="fill:#bc2233;fill-opacity:1"
   id="tspan6689">VR</tspan></tspan></text>
</g></svg>