<?xml version="1.0" encoding="UTF-8" standalone="no"?>
<!-- Created with Inkscape (http://www.inkscape.org/) -->

<svg
   xmlns:dc="http://purl.org/dc/elements/1.1/"
   xmlns:cc="http://creativecommons.org/ns#"
   xmlns:rdf="http://www.w3.org/1999/02/22-rdf-syntax-ns#"
   xmlns:svg="http://www.w3.org/2000/svg"
   xmlns="http://www.w3.org/2000/svg"
   xmlns:sodipodi="http://sodipodi.sourceforge.net/DTD/sodipodi-0.dtd"
   xmlns:inkscape="http://www.inkscape.org/namespaces/inkscape"
   id="svg4916"
   version="1.1"
   inkscape:version="0.91 r13725"
   xml:space="preserve"
   width="395.11774"
   height="248.70837"
   viewBox="0 0 395.11774 248.70837"
   sodipodi:docname="title-headline.svg"><metadata
     id="metadata4922"><rdf:RDF><cc:Work
         rdf:about=""><dc:format>image/svg+xml</dc:format><dc:type
           rdf:resource="http://purl.org/dc/dcmitype/StillImage" /><dc:title></dc:title></cc:Work></rdf:RDF></metadata><defs
     id="defs4920"><clipPath
       clipPathUnits="userSpaceOnUse"
       id="clipPath4926"><path
         d="m 0,0 595.276,0 0,841.89 L 0,841.89 0,0 Z"
         id="path4928"
         inkscape:connector-curvature="0" /></clipPath><clipPath
       clipPathUnits="userSpaceOnUse"
       id="clipPath4936"><path
         d="m 0,0 595.276,0 0,841.89 L 0,841.89 0,0 Z"
         id="path4938"
         inkscape:connector-curvature="0" /></clipPath><clipPath
       clipPathUnits="userSpaceOnUse"
       id="clipPath4942"><path
         d="m 137,195 332,0 0,540 -332,0 0,-540 z"
         id="path4944"
         inkscape:connector-curvature="0" /></clipPath><clipPath
       clipPathUnits="userSpaceOnUse"
       id="clipPath4946"><path
         d="M 0,0 596,0 596,842 0,842 0,0 Z"
         id="path4948"
         inkscape:connector-curvature="0" /></clipPath><clipPath
       clipPathUnits="userSpaceOnUse"
       id="clipPath4950"><path
         d="m 198.377,698.457 43.087,0 0,35.717 -43.087,0 0,-35.717 z"
         id="path4952"
         inkscape:connector-curvature="0" /></clipPath><clipPath
       clipPathUnits="userSpaceOnUse"
       id="clipPath4954"><path
         d="M 0,0 596,0 596,842 0,842 0,0 Z"
         id="path4956"
         inkscape:connector-curvature="0" /></clipPath><clipPath
       clipPathUnits="userSpaceOnUse"
       id="clipPath4958"><path
         d="m 244.063,484.11 109.489,0 0,123.307 -109.489,0 0,-123.307 z"
         id="path4960"
         inkscape:connector-curvature="0" /></clipPath></defs><sodipodi:namedview
     pagecolor="#ffffff"
     bordercolor="#666666"
     borderopacity="1"
     objecttolerance="10"
     gridtolerance="10"
     guidetolerance="10"
     inkscape:pageopacity="0"
     inkscape:pageshadow="2"
     inkscape:window-width="640"
     inkscape:window-height="480"
     id="namedview4918"
     showgrid="false"
     inkscape:zoom="0.94890251"
     inkscape:cx="197.55887"
     inkscape:cy="124.35419"
     inkscape:window-x="206"
     inkscape:window-y="66"
     inkscape:window-maximized="0"
     inkscape:current-layer="g4924" /><g
     id="g4924"
     inkscape:groupmode="layer"
     inkscape:label="title"
     transform="matrix(1.25,0,0,-1.25,-173.797,764.03113)"
     clip-path="url(#clipPath4926)"><g
       id="g4930" /><g
       id="g4932"><g
         id="g4934"
         clip-path="url(#clipPath4936)"><g
           id="g4940" /><g
           id="g4962"><g
             clip-path="url(#clipPath4942)"
             id="g4964"><g
               id="g4966" /><g
               id="g4968"><g
                 clip-path="url(#clipPath4946)"
                 id="g4970"><text
                   transform="matrix(1,0,0,-1,220.8211,338.9102)"
                   style="font-variant:normal;font-weight:normal;font-size:12px;font-family:MyriadPro;-inkscape-font-specification:MyriadPro-Regular;writing-mode:lr-tb;fill:#a5a7a6;fill-opacity:1;fill-rule:nonzero;stroke:none"
                   id="text4972"><tspan
                     x="0 5.9159999 12.528 19.356001 29.364 32.172001 36.144001 40.043999 46.056 52.824001 55.368 58.175999 64.835999 67.379997 74.208 79.991997 84.202797 88.174797 90.982803 96.7668 99.598801 102.1428 105.6468 112.2588"
                     y="0"
                     sodipodi:role="line"
                     id="tspan4974">Submitted in partial ful</tspan></text>
<text
                   transform="matrix(1,0,0,-1,335.9119,338.9102)"
                   style="font-variant:normal;font-weight:normal;font-size:12px;font-family:MyriadPro;-inkscape-font-specification:MyriadPro-Regular;writing-mode:lr-tb;fill:#a5a7a6;fill-opacity:1;fill-rule:nonzero;stroke:none"
                   id="text4976"><tspan
                     x="0"
                     y="0"
                     id="tspan4978">f</tspan></text>
<text
                   transform="matrix(1,0,0,-1,342.1879,338.9102)"
                   style="font-variant:normal;font-weight:normal;font-size:12px;font-family:MyriadPro;-inkscape-font-specification:MyriadPro-Regular;writing-mode:lr-tb;fill:#a5a7a6;fill-opacity:1;fill-rule:nonzero;stroke:none"
                   id="text4980"><tspan
                     x="0 2.832 5.664 15.672 21.684 28.2948"
                     y="0"
                     sodipodi:role="line"
                     id="tspan4982">llment</tspan></text>
<text
                   transform="matrix(1,0,0,-1,211.4491,324.5102)"
                   style="font-variant:normal;font-weight:normal;font-size:12px;font-family:MyriadPro;-inkscape-font-specification:MyriadPro-Regular;writing-mode:lr-tb;fill:#a5a7a6;fill-opacity:1;fill-rule:nonzero;stroke:none"
                   id="text4984"><tspan
                     x="0 6.5879998 10.092 12.636 16.608 23.268 29.280001 31.823999 35.626801 41.638802 48.394798 55.006802 57.8148 61.618801 67.630798 77.638802 83.650803 90.262802 94.234802 98.986801 101.5308 104.8788 111.4668 115.3908 117.9348 121.9068 128.5668 134.5788 137.1228 143.89079 149.9028 156.5376 160.3416 166.35361"
                     y="0"
                     sodipodi:role="line"
                     id="tspan4986">of the requirements for the degree</tspan></text>
<text
                   transform="matrix(1,0,0,-1,198.7771,304.4462)"
                   style="font-variant:normal;font-weight:normal;font-size:12px;font-family:MyriadPro;-inkscape-font-specification:MyriadPro-Regular;writing-mode:lr-tb;fill:#231f20;fill-opacity:1;fill-rule:nonzero;stroke:none"
                   id="text4988"><tspan
                     x="0 9.8400002 15.744 20.615999 24.636 30.768 34.812 37.476002 44.183998 47.807999 50.472 56.580002 62.076 65.003998 71.136002 77.916 83.339996 89.472 92.136002 95.064003 101.844 104.508 111.456 118.164 128.29201 135.24001 141.972 145.992 152.12399 156.168 158.832 164.94 170.436 173.364 179.496 186.276 191.7"
                     y="0"
                     sodipodi:role="line"
                     id="tspan4990">Master of Science in Computer Science</tspan></text>
<text
                   transform="matrix(1,0,0,-1,198.3691,273.0422)"
                   style="font-variant:normal;font-weight:normal;font-size:12px;font-family:MyriadPro;-inkscape-font-specification:MyriadPro-Regular;writing-mode:lr-tb;fill:#a5a7a6;fill-opacity:1;fill-rule:nonzero;stroke:none"
                   id="text4992"><tspan
                     x="0 7.1999998 13.812 17.784 24.444 31.032 35.063999"
                     y="0"
                     sodipodi:role="line"
                     id="tspan4994">Author:</tspan></text>
<text
                   transform="matrix(1,0,0,-1,257.9011,273.0422)"
                   style="font-variant:normal;font-weight:normal;font-size:12px;font-family:MyriadPro;-inkscape-font-specification:MyriadPro-Regular;writing-mode:lr-tb;fill:#a5a7a6;fill-opacity:1;fill-rule:nonzero;stroke:none"
                   id="text4996"><tspan
                     x="0 6.0840001 12.096 15.996 22.007999 25.931999 28.476 34.464001 39.84 46.5 53.112 55.944 61.080002 63.563999"
                     y="0"
                     sodipodi:role="line"
                     id="tspan4998">Peter Schulz, </tspan></text>
<text
                   transform="matrix(1,0,0,-1,324.0091,273.0422)"
                   style="font-variant:normal;font-weight:normal;font-size:12px;font-family:MyriadPro;-inkscape-font-specification:MyriadPro-Regular;writing-mode:lr-tb;fill:#a5a7a6;fill-opacity:1;fill-rule:nonzero;stroke:none"
                   id="text5000"><tspan
                     x="0 5.9148002 12.9948 19.090799 25.834801 31.6908 37.7868"
                     y="0"
                     sodipodi:role="line"
                     id="tspan5002">3024726</tspan></text>
<text
                   transform="matrix(1,0,0,-1,198.3691,252.9782)"
                   style="font-variant:normal;font-weight:normal;font-size:12px;font-family:MyriadPro;-inkscape-font-specification:MyriadPro-Regular;writing-mode:lr-tb;fill:#a5a7a6;fill-opacity:1;fill-rule:nonzero;stroke:none"
                   id="text5004"><tspan
                     x="0 5.9039998 11.46 17.243999 27.252001 30.059999 36.720001 42.731998 46.655998 51.408001"
                     y="0"
                     sodipodi:role="line"
                     id="tspan5006">Examiners:</tspan></text>
<text
                   transform="matrix(1,0,0,-1,257.9011,252.9782)"
                   style="font-variant:normal;font-weight:normal;font-size:12px;font-family:MyriadPro;-inkscape-font-specification:MyriadPro-Regular;writing-mode:lr-tb;fill:#a5a7a6;fill-opacity:1;fill-rule:nonzero;stroke:none"
                   id="text5008"><tspan
                     x="0 6.1919999 9.9960003 16.584 19.691999 22.176001 24.719999 32.712002 36 38.484001 41.028 47.626801 53.410801 56.2188 62.878799 68.8908 72.814796 75.358803 85.078796 90.862801 93.694801 99.478798 105.3216"
                     y="0"
                     sodipodi:role="line"
                     id="tspan5010">Prof. Dr. Rainer Malaka</tspan></text>
<text
                   transform="matrix(1,0,0,-1,257.9011,238.5782)"
                   style="font-variant:normal;font-weight:normal;font-size:12px;font-family:MyriadPro;-inkscape-font-specification:MyriadPro-Regular;writing-mode:lr-tb;fill:#a5a7a6;fill-opacity:1;fill-rule:nonzero;stroke:none"
                   id="text5012"><tspan
                     x="0 6.1919999 9.9960003 16.584 19.691999 22.176001 24.719999 32.712002 36 38.484001 41.028 45.467999 52.056 58.716 64.5 71.160004 77.82 83.832001 88.584 91.127998 97.114799 102.4908 109.1508 115.7388 122.3988 125.2068 131.86681"
                     y="0"
                     sodipodi:role="line"
                     id="tspan5014">Prof. Dr. Johannes Schöning</tspan></text>
<text
                   transform="matrix(1,0,0,-1,198.3691,218.5142)"
                   style="font-variant:normal;font-weight:normal;font-size:12px;font-family:MyriadPro;-inkscape-font-specification:MyriadPro-Regular;writing-mode:lr-tb;fill:#a5a7a6;fill-opacity:1;fill-rule:nonzero;stroke:none"
                   id="text5016"><tspan
                     x="0 5.9159999 12.528 19.356001 25.368 29.591999 35.363998 38.172001 42.924 49.512001 53.542801"
                     y="0"
                     sodipodi:role="line"
                     id="tspan5018">Supervisor:</tspan></text>
<text
                   transform="matrix(1,0,0,-1,257.9011,218.5142)"
                   style="font-variant:normal;font-weight:normal;font-size:12px;font-family:MyriadPro;-inkscape-font-specification:MyriadPro-Regular;writing-mode:lr-tb;fill:#a5a7a6;fill-opacity:1;fill-rule:nonzero;stroke:none"
                   id="text5020"><tspan
                     x="0 7.9920001 18 20.808001 24.780001 29.004 34.655998 37.200001 44.507999 47.34 53.316002 58.872002 64.655998 71.316002 78.084 81.886803 88.3908 94.090797 98.842796 104.6268"
                     y="0"
                     sodipodi:role="line"
                     id="tspan5022">Dmitry Alexandrovsky</tspan></text>
<text
                   transform="matrix(1,0,0,-1,257.9011,198.4502)"
                   style="font-variant:normal;font-weight:normal;font-size:12px;font-family:MyriadPro;-inkscape-font-specification:MyriadPro-Regular;writing-mode:lr-tb;fill:#a5a7a6;fill-opacity:1;fill-rule:nonzero;stroke:none"
                   id="text5024"><tspan
                     x="0 6.744 10.788 17.040001 27.288 33.540001 40.439999 43.164001 45.948002 50.627998 57.48 60.551998 66.444"
                     y="0"
                     sodipodi:role="line"
                     id="tspan5026">Bremen, July </tspan></text>
<text
                   transform="matrix(1,0,0,-1,327.1291,198.4502)"
                   style="font-variant:normal;font-weight:normal;font-size:12px;font-family:MyriadPro;-inkscape-font-specification:MyriadPro-Regular;writing-mode:lr-tb;fill:#a5a7a6;fill-opacity:1;fill-rule:nonzero;stroke:none"
                   id="text5028"><tspan
                     x="0"
                     y="0"
                     id="tspan5030">1</tspan></text>
<text
                   transform="matrix(1,0,0,-1,331.7131,198.4502)"
                   style="font-variant:normal;font-weight:normal;font-size:12px;font-family:MyriadPro;-inkscape-font-specification:MyriadPro-Regular;writing-mode:lr-tb;fill:#a5a7a6;fill-opacity:1;fill-rule:nonzero;stroke:none"
                   id="text5032"><tspan
                     x="0 4.9920001 9.1680002 11.892"
                     y="0"
                     sodipodi:role="line"
                     id="tspan5034">st, </tspan></text>
<text
                   transform="matrix(1,0,0,-1,346.3891,198.4502)"
                   style="font-variant:normal;font-weight:normal;font-size:12px;font-family:MyriadPro;-inkscape-font-specification:MyriadPro-Regular;writing-mode:lr-tb;fill:#a5a7a6;fill-opacity:1;fill-rule:nonzero;stroke:none"
                   id="text5036"><tspan
                     x="0 5.6160002 12.216 16.799999"
                     y="0"
                     sodipodi:role="line"
                     id="tspan5038">2018</tspan></text>
<text
                   transform="matrix(1,0,0,-1,180.8131,679.3742)"
                   style="font-variant:normal;font-weight:normal;font-size:12px;font-family:MyriadPro;-inkscape-font-specification:MyriadPro-Regular;writing-mode:lr-tb;fill:#a5a7a6;fill-opacity:1;fill-rule:nonzero;stroke:none"
                   id="text5040"><tspan
                     x="0 5.3039999 11.088 16.464001 23.076 25.908001 29.988001 35.639999 38.183998 44.771999 48.276001 50.82 60.538799 66.274803 70.246803 76.906799 82.9188 92.926804 98.662804 102.6348 105.4428 110.8188 115.5708 118.1148 123.8988 130.55881 137.3268 139.8708 146.6976 153.2856 163.29359 170.1216 176.7336 180.63361 186.6456 190.5696 193.1136 199.10159 204.4776 207.2856 213.29761 219.9576 225.26041"
                     y="0"
                     sodipodi:role="line"
                     id="tspan5042">Faculty of Mathematics and Computer Science</tspan></text>
<text
                   transform="matrix(1,0,0,-1,223.7131,664.9742)"
                   style="font-variant:normal;font-weight:normal;font-size:12px;font-family:MyriadPro;-inkscape-font-specification:MyriadPro-Regular;writing-mode:lr-tb;fill:#a5a7a6;fill-opacity:1;fill-rule:nonzero;stroke:none"
                   id="text5044"><tspan
                     x="0 9.7559996 16.344 20.316 26.148001 28.955999 35.616001 42.324001 44.868 52.619999 56.424 63.012001 69.624001 76.452003 78.996002 86.987999 89.795998 96.430801 99.2388 103.2108 108.9948 111.8268 114.3708 124.0896 130.10159 136.8696 139.6776"
                     y="0"
                     sodipodi:role="line"
                     id="tspan5046">Working Group Digital Media</tspan></text>
<text
                   transform="matrix(1,0,0,-1,141.0237,446.3169)"
                   style="font-variant:normal;font-weight:600;font-size:19px;font-family:MyriadPro;-inkscape-font-specification:MyriadPro-Semibold;writing-mode:lr-tb;fill:#231f20;fill-opacity:1;fill-rule:nonzero;stroke:none"
                   id="text5048"><tspan
                     x="0 16.378 27.246 32.110001 36.993 46.797001 50.73 60.591 71.706001 82.421997 89.621101 96.2901 100.2231 111.3381 116.2211 121.0851 137.1971 148.3121 153.1761 164.0441 174.93111 178.86411 183.7281 194.5961 197.8432 208.84419 213.70821 220.90919 227.5782 238.38921 248.0412 252.92419 256.85721 267.7233 277.52731 287.17929 292.06229 296.9263 303.7283"
                     y="0"
                     sodipodi:role="line"
                     id="tspan5050">While Sport Climbing in Virtual Reality</tspan></text>
<text
                   transform="matrix(1,0,0,-1,140.7577,417.4749)"
                   style="font-variant:normal;font-weight:normal;font-size:19px;font-family:MyriadPro;-inkscape-font-specification:MyriadPro-Regular;writing-mode:lr-tb;fill:#a5a7a6;fill-opacity:1;fill-rule:nonzero;stroke:none"
                   id="text5052"><tspan
                     x="0 10.906 21.431999 37.373001 48.278999 57.532001 63.916 68.457001 79.097 89.813004 93.935997 106.685"
                     y="0"
                     sodipodi:role="line"
                     id="tspan5054">Comparing Di</tspan></text>
<text
                   transform="matrix(1,0,0,-1,251.9837,417.4749)"
                   style="font-variant:normal;font-weight:normal;font-size:19px;font-family:MyriadPro;-inkscape-font-specification:MyriadPro-Regular;writing-mode:lr-tb;fill:#a5a7a6;fill-opacity:1;fill-rule:nonzero;stroke:none"
                   id="text5056"><tspan
                     x="0"
                     y="0"
                     id="tspan5058">f</tspan></text>
<text
                   transform="matrix(1,0,0,-1,262.9087,417.4749)"
                   style="font-variant:normal;font-weight:normal;font-size:19px;font-family:MyriadPro;-inkscape-font-specification:MyriadPro-Regular;writing-mode:lr-tb;fill:#a5a7a6;fill-opacity:1;fill-rule:nonzero;stroke:none"
                   id="text5060"><tspan
                     x="0 9.6140003 15.732 25.346001 35.91 42.293999 46.417 55.214001 64.828003 73.872002 83.486 88.065002 95.683998 99.806999 110.333 115.976 120.099 129.998 136.116 145.73 153.349 162.963 173.603 182.09599"
                     y="0"
                     sodipodi:role="line"
                     id="tspan5062">erent Levels of Presence</tspan></text>
<text
                   transform="matrix(1,0,0,-1,241.4577,712.1839)"
                   style="font-variant:normal;font-weight:600;font-size:19px;font-family:MyriadPro;-inkscape-font-specification:MyriadPro-Semibold;writing-mode:lr-tb;fill:#a5a7a6;fill-opacity:1;fill-rule:nonzero;stroke:none"
                   id="text5064"><tspan
                     x="0 12.2341 22.7012 27.2593 36.301399 45.818501 52.371601 59.912701 64.413803 70.871902 80.066002 86.543098 90.284203 100.9413 107.3614 116.8785 132.6846 142.20171"
                     y="0"
                     sodipodi:role="line"
                     id="tspan5066">Universität Bremen</tspan></text>
</g></g><g
               id="g5068"><g
                 clip-path="url(#clipPath4950)"
                 id="g5070"><path
                   d="m 210.6894,717.8358 c -0.0126,-3.5792 2.823,-6.3851 6.2109,-6.3851 3.4264,0 6.2117,2.8059 6.2117,6.3851 l 0,16.3374 -3.0995,0 0,-16.3374 c 0,-1.7831 -1.3927,-3.1468 -3.1122,-3.1468 -1.6561,0 -3.1113,1.4161 -3.1113,3.1468 l 0,9.8204 -3.0996,0 0,-9.8204 z"
                   style="fill:#c52141;fill-opacity:1;fill-rule:evenodd;stroke:none"
                   id="path5072"
                   inkscape:connector-curvature="0" /><path
                   d="m 198.3771,730.9213 2.98888,0 0,3.25192 -2.98888,0 0,-3.25192 z"
                   style="fill:#c52141;fill-opacity:1;fill-rule:evenodd;stroke:none"
                   id="path5074"
                   inkscape:connector-curvature="0" /><path
                   d="m 201.366,727.6694 3.0991,0 0,3.25192 -3.0991,0 0,-3.25192 z"
                   style="fill:#c52141;fill-opacity:1;fill-rule:evenodd;stroke:none"
                   id="path5076"
                   inkscape:connector-curvature="0" /><path
                   d="m 204.4651,730.9213 3.1122,0 0,3.25192 -3.1122,0 0,-3.25192 z"
                   style="fill:#c52141;fill-opacity:1;fill-rule:evenodd;stroke:none"
                   id="path5078"
                   inkscape:connector-curvature="0" /><path
                   d="m 210.6895,730.9213 3.09955,0 0,3.25192 -3.09955,0 0,-3.25192 z"
                   style="fill:#c52141;fill-opacity:1;fill-rule:evenodd;stroke:none"
                   id="path5080"
                   inkscape:connector-curvature="0" /><path
                   d="m 207.5773,727.6694 3.1122,0 0,3.25192 -3.1122,0 0,-3.25192 z"
                   style="fill:#c52141;fill-opacity:1;fill-rule:evenodd;stroke:none"
                   id="path5082"
                   inkscape:connector-curvature="0" /><path
                   d="m 235.5474,734.1595 0,-16.3238 c 0,-10.7121 -8.3571,-19.3791 -18.634,-19.3791 -9.5462,0 -17.4731,7.4972 -18.5363,17.1632 l 0,12.05 2.9888,0 0,-9.8336 c 0,-8.9296 6.9897,-16.1276 15.5475,-16.1276 8.5579,0 15.5217,7.198 15.5217,16.1276 l 0,16.337 3.1123,-0.0137 z"
                   style="fill:#c52141;fill-opacity:1;fill-rule:evenodd;stroke:none"
                   id="path5084"
                   inkscape:connector-curvature="0" /><path
                   d="m 226.2242,734.1732 0,-16.3375 c 0,-5.3626 -4.1916,-9.6369 -9.3239,-9.6369 -5.1447,0 -9.3231,4.2743 -9.3231,9.6369 l 0,9.8468 -3.1122,0 0,-9.8468 c 0,-7.1456 5.5843,-12.8757 12.4353,-12.8757 6.8518,0 12.4235,5.7301 12.4235,12.8757 l 0,16.3238 -3.1,0.0137 4e-4,0 z"
                   style="fill:#c52141;fill-opacity:1;fill-rule:evenodd;stroke:none"
                   id="path5086"
                   inkscape:connector-curvature="0" /></g></g><g
               id="g5088"><g
                 clip-path="url(#clipPath4954)"
                 id="g5090"><text
                   transform="matrix(1,0,0,-1,176.8989,475.0394)"
                   style="font-variant:normal;font-weight:600;font-size:19px;font-family:MyriadPro;-inkscape-font-specification:MyriadPro-Semibold;writing-mode:lr-tb;fill:#231f20;fill-opacity:1;fill-rule:nonzero;stroke:none"
                   id="text5092"><tspan
                     x="0"
                     y="0"
                     id="tspan5094">E</tspan></text>
<text
                   transform="matrix(1,0,0,-1,186.6269,475.0394)"
                   style="font-variant:normal;font-weight:600;font-size:19px;font-family:MyriadPro;-inkscape-font-specification:MyriadPro-Semibold;writing-mode:lr-tb;fill:#231f20;fill-opacity:1;fill-rule:nonzero;stroke:none"
                   id="text5096"><tspan
                     x="0"
                     y="0"
                     id="tspan5098">f</tspan></text>
<text
                   transform="matrix(1,0,0,-1,198.1979,475.0394)"
                   style="font-variant:normal;font-weight:600;font-size:19px;font-family:MyriadPro;-inkscape-font-specification:MyriadPro-Semibold;writing-mode:lr-tb;fill:#231f20;fill-opacity:1;fill-rule:nonzero;stroke:none"
                   id="text5100"><tspan
                     x="0"
                     y="0"
                     id="tspan5102">e</tspan></text>
<text
                   transform="matrix(1,0,0,-1,208.0019,475.0394)"
                   style="font-variant:normal;font-weight:600;font-size:19px;font-family:MyriadPro;-inkscape-font-specification:MyriadPro-Semibold;writing-mode:lr-tb;fill:#231f20;fill-opacity:1;fill-rule:nonzero;stroke:none"
                   id="text5104"><tspan
                     x="0"
                     y="0"
                     id="tspan5106">c</tspan></text>
<text
                   transform="matrix(1,0,0,-1,216.8179,475.0394)"
                   style="font-variant:normal;font-weight:600;font-size:19px;font-family:MyriadPro;-inkscape-font-specification:MyriadPro-Semibold;writing-mode:lr-tb;fill:#231f20;fill-opacity:1;fill-rule:nonzero;stroke:none"
                   id="text5108"><tspan
                     x="0"
                     y="0"
                     id="tspan5110">t</tspan></text>
<text
                   transform="matrix(1,0,0,-1,223.4869,475.0394)"
                   style="font-variant:normal;font-weight:600;font-size:19px;font-family:MyriadPro;-inkscape-font-specification:MyriadPro-Semibold;writing-mode:lr-tb;fill:#231f20;fill-opacity:1;fill-rule:nonzero;stroke:none"
                   id="text5112"><tspan
                     x="0"
                     y="0"
                     id="tspan5114">s</tspan></text>
<text
                   transform="matrix(1,0,0,-1,235.3429,475.0394)"
                   style="font-variant:normal;font-weight:600;font-size:19px;font-family:MyriadPro;-inkscape-font-specification:MyriadPro-Semibold;writing-mode:lr-tb;fill:#231f20;fill-opacity:1;fill-rule:nonzero;stroke:none"
                   id="text5116"><tspan
                     x="0"
                     y="0"
                     id="tspan5118">o</tspan></text>
<text
                   transform="matrix(1,0,0,-1,246.0589,475.0394)"
                   style="font-variant:normal;font-weight:600;font-size:19px;font-family:MyriadPro;-inkscape-font-specification:MyriadPro-Semibold;writing-mode:lr-tb;fill:#231f20;fill-opacity:1;fill-rule:nonzero;stroke:none"
                   id="text5120"><tspan
                     x="0"
                     y="0"
                     id="tspan5122">f</tspan></text>
<text
                   transform="matrix(0.99803836,-0.06260536,-0.06260536,-0.99803836,256.0502,474.9898)"
                   style="font-variant:normal;font-weight:600;font-size:18.99997139px;font-family:MyriadPro;-inkscape-font-specification:MyriadPro-Semibold;writing-mode:lr-tb;fill:#231f20;fill-opacity:1;fill-rule:nonzero;stroke:none"
                   id="text5124"><tspan
                     x="0"
                     y="0"
                     id="tspan5126">P</tspan></text>
<text
                   transform="matrix(0.99803836,-0.06260536,-0.06260536,-0.99803836,266.5935,474.3284)"
                   style="font-variant:normal;font-weight:600;font-size:18.99997139px;font-family:MyriadPro;-inkscape-font-specification:MyriadPro-Semibold;writing-mode:lr-tb;fill:#231f20;fill-opacity:1;fill-rule:nonzero;stroke:none"
                   id="text5128"><tspan
                     x="0"
                     y="0"
                     id="tspan5130">h</tspan></text>
<text
                   transform="matrix(0.99803836,-0.06260536,-0.06260536,-0.99803836,277.1367,473.6671)"
                   style="font-variant:normal;font-weight:600;font-size:18.99997139px;font-family:MyriadPro;-inkscape-font-specification:MyriadPro-Semibold;writing-mode:lr-tb;fill:#231f20;fill-opacity:1;fill-rule:nonzero;stroke:none"
                   id="text5132"><tspan
                     x="0"
                     y="0"
                     id="tspan5134">y</tspan></text>
<text
                   transform="matrix(0.99803836,-0.06260536,-0.06260536,-0.99803836,286.3905,473.0866)"
                   style="font-variant:normal;font-weight:600;font-size:18.99997139px;font-family:MyriadPro;-inkscape-font-specification:MyriadPro-Semibold;writing-mode:lr-tb;fill:#231f20;fill-opacity:1;fill-rule:nonzero;stroke:none"
                   id="text5136"><tspan
                     x="0"
                     y="0"
                     id="tspan5138">s</tspan></text>
<text
                   transform="matrix(0.99803836,-0.06260536,-0.06260536,-0.99803836,294.298,472.5906)"
                   style="font-variant:normal;font-weight:600;font-size:18.99997139px;font-family:MyriadPro;-inkscape-font-specification:MyriadPro-Semibold;writing-mode:lr-tb;fill:#231f20;fill-opacity:1;fill-rule:nonzero;stroke:none"
                   id="text5140"><tspan
                     x="0"
                     y="0"
                     id="tspan5142">i</tspan></text>
<text
                   transform="matrix(0.99803836,-0.06260536,-0.06260536,-0.99803836,299.1524,472.2861)"
                   style="font-variant:normal;font-weight:600;font-size:18.99997139px;font-family:MyriadPro;-inkscape-font-specification:MyriadPro-Semibold;writing-mode:lr-tb;fill:#231f20;fill-opacity:1;fill-rule:nonzero;stroke:none"
                   id="text5144"><tspan
                     x="0"
                     y="0"
                     id="tspan5146">c</tspan></text>
<text
                   transform="matrix(0.99803836,-0.06260536,-0.06260536,-0.99803836,307.6667,471.752)"
                   style="font-variant:normal;font-weight:600;font-size:18.99997139px;font-family:MyriadPro;-inkscape-font-specification:MyriadPro-Semibold;writing-mode:lr-tb;fill:#231f20;fill-opacity:1;fill-rule:nonzero;stroke:none"
                   id="text5148"><tspan
                     x="0"
                     y="0"
                     id="tspan5150">a</tspan></text>
<text
                   transform="matrix(0.99803836,-0.06260536,-0.06260536,-0.99803836,317.2997,471.1477)"
                   style="font-variant:normal;font-weight:600;font-size:18.99997139px;font-family:MyriadPro;-inkscape-font-specification:MyriadPro-Semibold;writing-mode:lr-tb;fill:#231f20;fill-opacity:1;fill-rule:nonzero;stroke:none"
                   id="text5152"><tspan
                     x="0"
                     y="0"
                     id="tspan5154">l</tspan></text>
<text
                   transform="matrix(0.99690083,0.07866849,0.07866849,-0.99690083,324.6303,467.4167)"
                   style="font-variant:normal;font-weight:600;font-size:18.99998474px;font-family:MyriadPro;-inkscape-font-specification:MyriadPro-Semibold;writing-mode:lr-tb;fill:#231f20;fill-opacity:1;fill-rule:nonzero;stroke:none"
                   id="text5156"><tspan
                     x="0"
                     y="0"
                     id="tspan5158">I</tspan></text>
<text
                   transform="matrix(0.99690083,0.07866849,0.07866849,-0.99690083,329.7444,467.8203)"
                   style="font-variant:normal;font-weight:600;font-size:18.99998474px;font-family:MyriadPro;-inkscape-font-specification:MyriadPro-Semibold;writing-mode:lr-tb;fill:#231f20;fill-opacity:1;fill-rule:nonzero;stroke:none"
                   id="text5160"><tspan
                     x="0"
                     y="0"
                     id="tspan5162">n</tspan></text>
<text
                   transform="matrix(0.99690083,0.07866849,0.07866849,-0.99690083,340.484,468.6678)"
                   style="font-variant:normal;font-weight:600;font-size:18.99998474px;font-family:MyriadPro;-inkscape-font-specification:MyriadPro-Semibold;writing-mode:lr-tb;fill:#231f20;fill-opacity:1;fill-rule:nonzero;stroke:none"
                   id="text5164"><tspan
                     x="0"
                     y="0"
                     id="tspan5166">t</tspan></text>
<text
                   transform="matrix(0.99690083,0.07866849,0.07866849,-0.99690083,347.0187,469.1834)"
                   style="font-variant:normal;font-weight:600;font-size:18.99998474px;font-family:MyriadPro;-inkscape-font-specification:MyriadPro-Semibold;writing-mode:lr-tb;fill:#231f20;fill-opacity:1;fill-rule:nonzero;stroke:none"
                   id="text5168"><tspan
                     x="0"
                     y="0"
                     id="tspan5170">e</tspan></text>
<text
                   transform="matrix(0.99690083,0.07866849,0.07866849,-0.99690083,356.7923,469.9547)"
                   style="font-variant:normal;font-weight:600;font-size:18.99998474px;font-family:MyriadPro;-inkscape-font-specification:MyriadPro-Semibold;writing-mode:lr-tb;fill:#231f20;fill-opacity:1;fill-rule:nonzero;stroke:none"
                   id="text5172"><tspan
                     x="0"
                     y="0"
                     id="tspan5174">r</tspan></text>
<text
                   transform="matrix(0.99690083,0.07866849,0.07866849,-0.99690083,363.3648,470.4734)"
                   style="font-variant:normal;font-weight:600;font-size:18.99998474px;font-family:MyriadPro;-inkscape-font-specification:MyriadPro-Semibold;writing-mode:lr-tb;fill:#231f20;fill-opacity:1;fill-rule:nonzero;stroke:none"
                   id="text5176"><tspan
                     x="0"
                     y="0"
                     id="tspan5178">a</tspan></text>
<text
                   transform="matrix(0.99690083,0.07866849,0.07866849,-0.99690083,372.9869,471.2327)"
                   style="font-variant:normal;font-weight:600;font-size:18.99998474px;font-family:MyriadPro;-inkscape-font-specification:MyriadPro-Semibold;writing-mode:lr-tb;fill:#231f20;fill-opacity:1;fill-rule:nonzero;stroke:none"
                   id="text5180"><tspan
                     x="0"
                     y="0"
                     id="tspan5182">c</tspan></text>
<text
                   transform="matrix(0.99690083,0.07866849,0.07866849,-0.99690083,381.7756,471.9262)"
                   style="font-variant:normal;font-weight:600;font-size:18.99998474px;font-family:MyriadPro;-inkscape-font-specification:MyriadPro-Semibold;writing-mode:lr-tb;fill:#231f20;fill-opacity:1;fill-rule:nonzero;stroke:none"
                   id="text5184"><tspan
                     x="0"
                     y="0"
                     id="tspan5186">t</tspan></text>
<text
                   transform="matrix(0.99690083,0.07866849,0.07866849,-0.99690083,388.4239,472.4508)"
                   style="font-variant:normal;font-weight:600;font-size:18.99998474px;font-family:MyriadPro;-inkscape-font-specification:MyriadPro-Semibold;writing-mode:lr-tb;fill:#231f20;fill-opacity:1;fill-rule:nonzero;stroke:none"
                   id="text5188"><tspan
                     x="0"
                     y="0"
                     id="tspan5190">i</tspan></text>
<text
                   transform="matrix(0.99690083,0.07866849,0.07866849,-0.99690083,393.2728,472.8335)"
                   style="font-variant:normal;font-weight:600;font-size:18.99998474px;font-family:MyriadPro;-inkscape-font-specification:MyriadPro-Semibold;writing-mode:lr-tb;fill:#231f20;fill-opacity:1;fill-rule:nonzero;stroke:none"
                   id="text5192"><tspan
                     x="0"
                     y="0"
                     id="tspan5194">o</tspan></text>
<text
                   transform="matrix(0.99690083,0.07866849,0.07866849,-0.99690083,403.9556,473.6765)"
                   style="font-variant:normal;font-weight:600;font-size:18.99998474px;font-family:MyriadPro;-inkscape-font-specification:MyriadPro-Semibold;writing-mode:lr-tb;fill:#231f20;fill-opacity:1;fill-rule:nonzero;stroke:none"
                   id="text5196"><tspan
                     x="0"
                     y="0"
                     id="tspan5198">n</tspan></text>
</g></g><g
               id="g5200"><g
                 clip-path="url(#clipPath4958)"
                 id="g5202"><path
                   d="m 244.7827,570.9106 c -1.361,1.612 -0.561,4.096 0.502,5.928 0.767,1.334 1.758,2.671 3.203,3.195 1.002,0.364 2.118,0.278 3.185,0.199 2.946,-0.241 5.909,-0.483 8.863,-0.715 -0.522,0.934 -1.034,1.878 -1.545,2.822 -0.56,1.008 -1.131,2.062 -1.165,3.22 -0.054,1.613 0.918,3.043 1.862,4.352 0.981,1.366 2.007,2.781 3.452,3.664 1.437,0.876 3.427,1.095 4.774,0.058 -0.406,1.244 -0.795,2.488 -1.194,3.739 -0.427,1.373 -0.859,2.819 -0.517,4.216 0.324,1.269 1.238,2.281 2.164,3.211 0.789,0.805 1.606,1.602 2.606,2.116 0.999,0.513 2.229,0.697 3.248,0.247 0.863,-0.372 1.472,-1.119 2.053,-1.838 1.507,-1.878 3.013,-3.755 4.537,-5.633 1.154,-1.449 2.346,-2.915 3.151,-4.594 0.399,-0.818 0.715,-1.7 0.763,-2.599 0.074,-1.742 -0.819,-3.356 -1.741,-4.832 -2.171,-3.185 -6.435,-8.77 -8.281,-11.002 -1.846,-2.233 -4.564,-5.29 -7.168,-8.133 -1.712,-1.862 -3.672,-3.835 -6.179,-4.047 -1.353,-0.104 -2.68,0.331 -3.95,0.786 -3.532,1.259 -6.969,2.75 -10.403,4.243 -0.815,0.343 -1.658,0.715 -2.22,1.397 m 1.556,4.356 c 0.587,-0.998 1.486,-1.803 2.534,-2.282 0.029,-0.88 -0.109,-1.763 -0.425,-2.588 0.45,0.169 0.853,0.474 1.15,0.861 -1.198,2.903 0.354,2.754 1.391,2.06 1.84,-0.96 3.49,-1.69 5.435,-2.445 0.424,0.101 0.539,0.283 0.846,0.374 0.103,-1.108 1.192,-2.049 2.119,-2.557 0.874,-0.491 1.892,-0.774 2.87,-0.587 0.96,0.188 1.431,1.054 2.054,1.9 -0.531,-1.106 -1.054,-2.203 -1.577,-3.318 -0.125,-0.243 -0.144,-0.661 0.134,-0.673 5.648,9.313 12.668,17.782 20.772,25.073 0.701,0.617 0.536,1.736 0.212,2.61 -0.856,2.291 -2.411,4.232 -3.936,6.145 -1.382,1.704 -2.754,3.417 -4.126,5.13 -0.468,0.575 -0.953,1.168 -1.611,1.505 -1.349,0.657 -2.995,0.036 -4.16,-0.916 -0.658,-0.533 -1.279,-1.392 -0.965,-2.181 1.072,-2.768 1.986,-5.585 2.772,-8.443 0.485,-1.807 0.916,-3.728 0.399,-5.537 -0.405,-1.427 -1.361,-2.635 -2.3,-3.787 -2.005,-2.474 -4.01,-4.947 -6.005,-7.411 -0.759,-0.943 -1.564,-1.917 -2.645,-2.459 -1.027,-0.524 -2.204,-0.613 -3.342,-0.648 -3.791,-0.111 -7.582,0.253 -11.264,1.108 -0.4,0.094 -1.02,-0.022 -0.908,-0.418 0.415,0.075 0.868,0.149 1.242,-0.029 0.385,-0.186 0.609,-0.728 0.339,-1.05 -0.221,0.339 -0.606,0.544 -1.005,0.563 m 22.083,26.595 c -0.224,-0.386 -0.439,-0.761 -0.661,-1.146 1.913,-1.813 2.325,-4.985 0.935,-7.212 0.966,-1.743 0.792,-3.933 0.006,-5.76 -0.796,-1.815 -2.124,-3.356 -3.417,-4.858 -1.087,-1.248 -2.218,-2.524 -3.705,-3.243 -3.743,-1.769 -8.201,0.646 -12.295,-0.01 -1.173,-0.182 -2.555,-1.094 -2.204,-2.227 0.278,-0.902 1.434,-1.136 2.373,-1.219 1.876,-0.143 3.743,-0.297 5.61,-0.452 2.016,-0.15 4.17,-0.29 5.937,0.706 1.091,0.607 1.913,1.58 2.699,2.533 1.772,2.116 3.534,4.241 5.295,6.348 1.131,1.351 2.287,2.767 2.676,4.481 0.372,1.64 0.002,3.358 -0.443,4.998 -0.799,3.015 -1.79,5.98 -2.967,8.864 -1.236,-1.121 -1.623,-2.946 -1.401,-4.592 0.23,-1.654 0.968,-3.178 1.706,-4.682 0.502,1.225 -0.213,2.564 -0.805,3.728 -0.6,1.175 -1.05,2.731 -0.173,3.706 0.181,0.263 0.625,0.292 0.834,0.037 m -9.521,-17.094 c 1.119,-1.125 0.875,-3.143 2.012,-4.249 0.103,-0.1 0.226,-0.199 0.385,-0.205 0.138,-0.008 0.267,0.088 0.376,0.165 2.181,1.615 3.819,3.821 5.414,6.016 0.522,0.734 1.062,1.489 1.349,2.357 0.408,1.261 0.228,2.666 -0.243,3.918 -0.059,0.145 -0.128,0.302 -0.261,0.41 -0.122,0.099 -0.289,0.134 -0.458,0.167 -0.669,0.114 -1.349,0.239 -2.02,0.373 -0.326,0.058 -0.669,0.115 -0.992,0.025 -0.397,-0.092 -0.696,-0.387 -0.988,-0.671 -1.787,-1.772 -3.61,-3.603 -4.636,-5.887 -0.345,-0.796 -0.554,-1.811 0.062,-2.419 m -12.757,-9.876 c 0.107,0.096 -0.08,0.24 -0.228,0.236 -0.732,-0.045 -1.186,-0.861 -1.236,-1.595 -0.107,-1.44 0.906,-2.883 2.288,-3.297 -0.304,0.364 0.044,0.938 -0.086,1.407 -0.152,0.545 -0.859,0.677 -1.284,1.049 -0.359,0.306 -0.527,0.814 -0.399,1.27 0.111,0.457 0.491,0.836 0.945,0.93 m 33.871,11.152 c -1.539,-1.342 -3.018,-2.736 -4.444,-4.185 -0.28,-0.296 -0.577,-0.7 -0.383,-1.049 1.336,1.227 2.643,2.461 3.913,3.73 0.428,0.427 0.872,0.91 0.914,1.504 m -14.155,-17.669 c 0.772,0.769 1.525,1.538 2.296,2.304 0.118,0.125 0.255,0.266 0.278,0.443 0.034,0.167 -0.11,0.377 -0.286,0.345 -0.065,-0.01 -0.128,-0.058 -0.192,-0.106 -1.038,-0.875 -1.924,-1.914 -2.641,-3.062 0.07,-0.211 0.391,-0.085 0.545,0.076 m -18.449,4.086 c 0.101,-0.025 0.222,0.043 0.247,0.146 -0.262,0.577 -0.755,1.049 -1.353,1.277 -0.188,0.07 -0.466,0.084 -0.527,-0.114 -0.044,-0.12 0.052,-0.249 0.146,-0.339 0.417,-0.437 0.935,-0.768 1.487,-0.97 m 0.207,-0.542 c -0.034,-0.565 -0.079,-1.123 -0.111,-1.69 -0.016,-0.186 0.201,-0.301 0.377,-0.363 l 0.868,-0.287 c -0.005,0.297 -0.442,0.316 -0.668,0.514 -0.265,0.236 -0.154,0.655 -0.077,1 0.067,0.336 -0.036,0.834 -0.389,0.826 m 20.902,25.893 c 0.169,0.347 0.067,0.771 -0.117,1.11 -0.146,0.247 -0.335,0.482 -0.554,0.674 0.025,-0.64 0.261,-1.284 0.671,-1.784"
                   style="fill:#bc1f3b;fill-opacity:1;fill-rule:nonzero;stroke:none"
                   id="path5204"
                   inkscape:connector-curvature="0" /><path
                   d="m 270.7734,578.1725 c -0.366,-0.592 -0.865,-1.112 -1.451,-1.497 0.048,0.374 0.142,0.791 0.482,0.92"
                   style="fill:#bc1f3b;fill-opacity:1;fill-rule:nonzero;stroke:none"
                   id="path5206"
                   inkscape:connector-curvature="0" /><path
                   d="m 282.0351,592.0214 c -0.013,-0.184 -0.121,-0.354 -0.239,-0.496 -0.263,-0.311 -0.581,-0.606 -0.978,-0.661 -0.397,-0.073 -0.856,0.166 -0.912,0.565 0.418,0.471 0.834,0.926 1.249,1.38 0.403,-0.131 0.89,-0.36 0.88,-0.788"
                   style="fill:#bc1f3b;fill-opacity:1;fill-rule:nonzero;stroke:none"
                   id="path5208"
                   inkscape:connector-curvature="0" /><path
                   d="m 283.4496,593.8981 c 0.347,-0.568 0.51,-1.25 0.441,-1.909 -0.021,-0.27 -0.134,-0.596 -0.412,-0.64 -0.121,0.841 -0.131,1.704 -0.029,2.549"
                   style="fill:#bc1f3b;fill-opacity:1;fill-rule:nonzero;stroke:none"
                   id="path5210"
                   inkscape:connector-curvature="0" /><path
                   d="m 266.5417,578.3585 c 0.236,0.21 0.483,0.41 0.729,0.609 0.055,-0.767 0.781,-1.573 1.521,-1.69 -1.228,-0.518 -1.675,0.347 -2.25,1.081"
                   style="fill:#bc1f3b;fill-opacity:1;fill-rule:nonzero;stroke:none"
                   id="path5212"
                   inkscape:connector-curvature="0" /><path
                   d="m 252.9607,578.5827 c 0.167,-0.414 -0.017,-0.911 -0.335,-1.223 -0.317,-0.312 -0.749,-0.479 -1.163,-0.646 -0.175,-0.068 -0.424,-0.101 -0.474,0.073 0.675,0.496 0.818,1.595 0.286,2.231 0.586,0.274 1.441,0.163 1.686,-0.435"
                   style="fill:#bc1f3b;fill-opacity:1;fill-rule:nonzero;stroke:none"
                   id="path5214"
                   inkscape:connector-curvature="0" /><path
                   d="m 250.427,574.4196 c -0.548,0.061 -1.494,0.106 -1.945,-0.46 -0.192,0.255 -0.386,0.604 -0.215,0.876 0.161,0.263 0.224,0.251 0.849,0.222 0.623,-0.028 0.771,0.079 2.77,-0.291 1.999,-0.371 6.269,-0.466 9.313,0.268 -0.982,-0.875 -2.521,-1.709 -3.475,-1.755 -0.957,-0.044 -3.839,0.439 -4.148,0.564 -0.309,0.126 -2.599,0.513 -3.149,0.576"
                   style="fill:#bc1f3b;fill-opacity:1;fill-rule:nonzero;stroke:none"
                   id="path5216"
                   inkscape:connector-curvature="0" /><path
                   d="m 277.035,602.7257 c 0.803,-1.077 1.616,-2.218 1.784,-3.54 0.067,-0.5 0.786,-0.753 0.779,-1.254 -0.397,-0.036 -0.756,0.234 -1.022,0.526 -1.073,1.117 -1.654,2.708 -1.541,4.268"
                   style="fill:#bc1f3b;fill-opacity:1;fill-rule:nonzero;stroke:none"
                   id="path5218"
                   inkscape:connector-curvature="0" /><path
                   d="m 271.9407,603.7933 c -0.611,-0.014 -1.336,0.007 -1.69,0.51 -0.276,0.373 0.138,0.883 0.571,1.069 0.642,0.291 1.401,0.328 2.066,0.092 0.232,-0.078 0.477,-0.203 0.592,-0.423 0.184,-0.359 -0.046,-0.809 -0.385,-1.011 -0.34,-0.203 -0.755,-0.22 -1.154,-0.237 m -1.179,0.91 c 0.181,-0.247 0.508,-0.324 0.823,-0.335 0.436,-0.018 0.889,0.075 1.301,0.261 -0.604,0.469 -1.493,0.486 -2.124,0.074"
                   style="fill:#bc1f3b;fill-opacity:1;fill-rule:nonzero;stroke:none"
                   id="path5220"
                   inkscape:connector-curvature="0" /><path
                   d="m 268.4336,579.2534 c -0.211,0.274 -0.32,0.615 -0.318,0.958 0.005,0.991 1.119,1.813 2.072,1.52 0.952,-0.314 1.398,-1.631 0.812,-2.449 -0.575,-0.811 -1.966,-0.822 -2.566,-0.029 m 1.048,-0.042 c 0.334,0.027 0.606,0.255 0.814,0.51 0.135,0.161 0.242,0.348 0.258,0.552 0.002,0.325 -0.256,0.588 -0.545,0.703 -0.542,0.211 -1.232,-0.075 -1.405,-0.615 -0.174,-0.543 0.313,-1.208 0.878,-1.15"
                   style="fill:#bc1f3b;fill-opacity:1;fill-rule:nonzero;stroke:none"
                   id="path5222"
                   inkscape:connector-curvature="0" /><path
                   d="m 251.1498,578.3011 c 0.169,-0.487 -0.052,-1.058 -0.452,-1.363 -0.411,-0.314 -0.947,-0.4 -1.457,-0.347 -0.743,0.077 -1.545,0.606 -1.524,1.347 0.01,0.465 0.324,0.871 0.729,1.064 0.395,0.203 0.866,0.242 1.313,0.179 0.567,-0.071 1.194,-0.346 1.391,-0.88 m -2.873,-0.08 c -0.119,-0.087 -0.086,-0.261 -0.019,-0.382 0.291,-0.606 1.086,-0.912 1.702,-0.648 0.174,0.069 0.31,0.172 0.41,0.314 0.287,0.453 -0.117,1.093 -0.638,1.212 -0.521,0.099 -1.045,-0.163 -1.455,-0.496"
                   style="fill:#bc1f3b;fill-opacity:1;fill-rule:nonzero;stroke:none"
                   id="path5224"
                   inkscape:connector-curvature="0" /><path
                   d="m 261.7618,587.5099 c -0.774,0.196 -1.083,1.163 -0.96,1.953 0.113,0.726 0.824,1.317 1.565,1.296 0.733,-0.012 1.415,-0.646 1.486,-1.386 0.075,-0.814 -0.558,-1.608 -1.351,-1.829 -0.238,-0.08 -0.499,-0.103 -0.74,-0.034 m 1.347,1.976 c -0.051,0.285 -0.216,0.571 -0.486,0.648 -0.28,0.086 -0.573,-0.069 -0.802,-0.268 -0.374,-0.332 -0.628,-0.903 -0.37,-1.334 0.233,-0.403 0.819,-0.493 1.202,-0.242 0.384,0.249 0.541,0.753 0.447,1.206"
                   style="fill:#bc1f3b;fill-opacity:1;fill-rule:nonzero;stroke:none"
                   id="path5226"
                   inkscape:connector-curvature="0" /><path
                   d="m 274.02,599.0248 c -0.51,-0.038 -0.995,-0.338 -1.272,-0.761 -0.116,0.546 0.402,1.085 0.956,1.154 0.565,0.057 1.11,-0.245 1.489,-0.646 0.704,-0.743 0.962,-1.991 0.349,-2.802 -0.207,-0.272 -0.508,-0.493 -0.841,-0.519 -0.213,-0.014 -0.438,0.055 -0.635,0.153 -0.628,0.31 -1.06,0.996 -1.066,1.692 -0.015,0.706 0.395,1.399 1.02,1.729 m -0.104,-2.534 c 0.154,-0.238 0.382,-0.473 0.67,-0.477 0.473,0.002 0.682,0.6 0.663,1.071 -0.031,0.539 -0.332,1.191 -0.88,1.187 -0.379,0.002 -0.696,-0.349 -0.743,-0.721 -0.068,-0.372 0.08,-0.749 0.29,-1.06"
                   style="fill:#bc1f3b;fill-opacity:1;fill-rule:nonzero;stroke:none"
                   id="path5228"
                   inkscape:connector-curvature="0" /><path
                   d="m 279.3503,590.5823 c -0.282,0.615 -0.566,1.305 -0.33,1.93 0.14,0.356 0.422,0.613 0.705,0.87 0.319,0.294 0.645,0.598 0.972,0.884 0.182,0.17 0.391,0.35 0.633,0.392 0.452,0.058 0.814,-0.362 1.054,-0.737 0.335,-0.522 0.653,-1.099 0.63,-1.71 -0.032,-1.041 -0.935,-1.792 -1.765,-2.394 -0.201,-0.153 -0.41,-0.297 -0.661,-0.33 -0.592,-0.068 -0.985,0.562 -1.238,1.095 m 1.92,2.953 c -0.381,0.002 -0.747,-0.21 -1.039,-0.458 -0.39,-0.352 -0.695,-0.822 -0.758,-1.343 -0.071,-0.512 0.126,-1.081 0.559,-1.388 0.113,-0.071 0.234,-0.134 0.374,-0.14 0.111,-0.015 0.232,0.014 0.333,0.044 0.765,0.23 1.503,0.775 1.7,1.549 0.186,0.784 -0.362,1.727 -1.169,1.736"
                   style="fill:#bc1f3b;fill-opacity:1;fill-rule:nonzero;stroke:none"
                   id="path5230"
                   inkscape:connector-curvature="0" /><path
                   d="m 258.5437,571.7672 c -0.479,-0.176 -1.09,-0.847 -1.454,-1.132 -0.108,0.427 -0.16,0.429 0.051,0.584 0.61,0.849 2.371,1.673 3.488,1.457 0.512,-0.11 0.964,-0.397 1.371,-0.731 0.462,-0.389 0.872,-0.872 1.042,-1.452 0.161,-0.589 0.027,-1.298 -0.446,-1.66 -0.41,-0.334 -1.022,-0.366 -1.472,-0.098 -0.123,0.498 -0.134,1.018 -0.052,1.52 0.343,0.017 0.705,-0.058 1.016,-0.228 0.234,0.32 0.176,0.811 -0.117,1.073 -1.05,-0.755 -2.725,-0.439 -3.427,0.667 m 0.778,-0.002 c 0.541,-0.479 1.376,-0.59 2.009,-0.251 -0.385,0.676 -1.455,0.811 -2.009,0.251"
                   style="fill:#bc1f3b;fill-opacity:1;fill-rule:nonzero;stroke:none"
                   id="path5232"
                   inkscape:connector-curvature="0" /><path
                   d="m 264.0541,583.3184 c -0.863,-0.92 -1.374,-1.504 -2.8,-2.71 -0.51,0.416 -0.702,1.088 -0.863,1.715 -0.241,0.847 -0.302,1.908 -0.837,2.463 -0.533,0.554 -0.952,0.922 -0.734,1.52 0.22,0.596 0.588,1.707 1.257,2.384 -0.115,-0.437 -0.088,-0.525 -0.153,-1.161 -0.065,-0.639 0.651,-1.599 1.326,-2.053 0.899,0.41 1.903,0.721 2.848,0.721 0.947,0 1.371,-0.184 1.936,-0.272 -0.42,-0.877 -1.117,-1.689 -1.98,-2.607"
                   style="fill:#bc1f3b;fill-opacity:1;fill-rule:nonzero;stroke:none"
                   id="path5234"
                   inkscape:connector-curvature="0" /><path
                   d="m 272.5157,581.2062 c 1.378,1.158 2.842,2.651 3.27,3.586 -0.033,-0.64 -0.476,-1.159 -0.901,-1.643 -0.914,-1.03 -2.095,-2.428 -3.019,-3.468 0.269,0.502 0.341,0.898 0.219,1.34 -0.25,0.711 -0.537,1.222 -1.154,1.448 -0.617,0.229 -1.311,0.148 -1.907,-0.134 -0.853,-0.398 -1.505,-1.209 -1.725,-2.124 -0.146,0.303 -0.098,0.694 0.109,0.967 -0.09,-0.169 -0.348,-0.175 -0.454,-0.02 1.438,1.729 3.302,3.868 4.381,5.175 1.081,1.309 1.382,1.813 1.767,2.879 0.158,0.049 0.328,-0.114 0.294,-0.263 -0.315,-0.897 -0.895,-1.677 -1.402,-2.349 -0.503,-0.673 -0.921,-1.296 -1.598,-1.981 -0.676,-0.684 -1,-1.075 -1.002,-1.644 0.487,0.205 1.47,0.163 1.93,-0.115 0.856,-0.555 1.137,-1.163 1.192,-1.654"
                   style="fill:#bc1f3b;fill-opacity:1;fill-rule:nonzero;stroke:none"
                   id="path5236"
                   inkscape:connector-curvature="0" /><path
                   d="m 259.0633,576.4803 c 0.234,0.701 0.47,1.401 0.713,2.093 1.825,0.16 3.306,1.52 4.546,2.873 1.026,1.106 2.01,2.25 2.94,3.448 0.767,0.971 1.514,1.979 1.963,3.129 0.579,1.497 0.634,3.186 0.174,4.715 0.443,0.539 0.799,2.064 0.816,2.996 0.3,-0.579 0.269,-0.612 0.693,-1.821 0.423,-1.211 0.563,-3.883 -0.346,-5.572 -0.392,-0.732 -0.916,-1.374 -1.441,-2.016 -1.914,-2.303 -3.821,-4.619 -5.727,-6.913 -1.157,-1.397 -2.533,-2.911 -4.331,-2.932"
                   style="fill:#bc1f3b;fill-opacity:1;fill-rule:nonzero;stroke:none"
                   id="path5238"
                   inkscape:connector-curvature="0" /><path
                   d="m 303.5546,568.764 c 0.747,-0.667 1.884,-0.824 2.827,-0.431 -0.472,1.138 -2.198,1.372 -2.944,0.469"
                   style="fill:#9c9f9f;fill-opacity:1;fill-rule:nonzero;stroke:none"
                   id="path5240"
                   inkscape:connector-curvature="0" /><path
                   d="m 327.7741,556.9102 c -0.826,0.51 -1.924,0.51 -2.71,0 0.276,-1.1 2.12,-1.177 2.513,-0.119"
                   style="fill:#9c9f9f;fill-opacity:1;fill-rule:nonzero;stroke:none"
                   id="path5242"
                   inkscape:connector-curvature="0" /><path
                   d="m 302.1823,588.5466 c 0.157,0.393 0.274,0.824 0.391,1.217 -0.667,0.079 -1.215,-0.59 -1.294,-1.257 -0.04,-0.667 0.234,-1.296 0.51,-1.884 0.763,-0.28 0.799,1.234 1.02,0.55"
                   style="fill:#9c9f9f;fill-opacity:1;fill-rule:nonzero;stroke:none"
                   id="path5244"
                   inkscape:connector-curvature="0" /><path
                   d="m 348.7451,515.2361 c -1.138,0.51 -2.052,0.932 -3.191,1.441 0.471,-0.431 0.746,-1.1 0.746,-1.727 1.021,-0.197 2.041,-0.471 2.984,-0.864 0.312,0.355 0.157,1.022 -0.236,1.257"
                   style="fill:#9c9f9f;fill-opacity:1;fill-rule:nonzero;stroke:none"
                   id="path5246"
                   inkscape:connector-curvature="0" /><path
                   d="m 342.4934,510.7899 c 1.294,0.431 2.394,1.374 3.022,2.551 0.391,0.707 0.196,1.962 -0.59,1.767 -0.235,-0.746 -0.469,-1.493 -0.746,-2.198 -1.059,0.078 -2,-1.1 -1.686,-2.12"
                   style="fill:#9c9f9f;fill-opacity:1;fill-rule:nonzero;stroke:none"
                   id="path5248"
                   inkscape:connector-curvature="0" /><path
                   d="m 335.5341,509.4887 c 2.199,-0.512 4.594,-0.119 6.517,1.02 -0.315,0.157 -0.51,0.509 -0.432,0.864 -2.041,-0.629 -4.082,-1.257 -6.085,-1.884"
                   style="fill:#9c9f9f;fill-opacity:1;fill-rule:nonzero;stroke:none"
                   id="path5250"
                   inkscape:connector-curvature="0" /><path
                   d="m 329.0351,567.4207 c -0.512,3.622 -0.661,5.892 -0.588,8.042 0.072,2.15 0.151,3.743 -0.006,4.448 -1.217,-3.806 -1.046,-6.511 -0.864,-11.932"
                   style="fill:#9c9f9f;fill-opacity:1;fill-rule:nonzero;stroke:none"
                   id="path5252"
                   inkscape:connector-curvature="0" /><path
                   d="m 314.8203,542.7792 c 1.61,-2.67 3.258,-5.299 4.868,-7.929 l 0.824,-1.296 c 0.784,0.591 0.431,1.806 0.038,2.709 -1.217,2.748 -2.825,5.809 -5.73,6.516"
                   style="fill:#9c9f9f;fill-opacity:1;fill-rule:nonzero;stroke:none"
                   id="path5254"
                   inkscape:connector-curvature="0" /><path
                   d="m 285.6958,570.0196 c 0.667,1.61 -1.295,2.984 -2.906,3.611 -2.274,0.824 -5.258,1.374 -6.711,-0.589 0.864,-0.981 2.513,-1.962 3.298,-0.902 0.746,0.981 2.315,0.745 3.375,0.04 1.02,-0.669 1.806,-1.689 2.944,-2.16"
                   style="fill:#9c9f9f;fill-opacity:1;fill-rule:nonzero;stroke:none"
                   id="path5256"
                   inkscape:connector-curvature="0" /><path
                   d="m 321.1005,577.6741 c 1.099,0 2.001,0.863 2.67,1.727 1.334,1.805 2.315,4.082 1.805,6.241 -0.392,1.688 -1.61,3.219 -1.335,4.906 -0.313,0.078 -0.51,-0.274 -0.627,-0.549 -1.336,-4.044 0.195,-9.028 -2.513,-12.325"
                   style="fill:#9c9f9f;fill-opacity:1;fill-rule:nonzero;stroke:none"
                   id="path5258"
                   inkscape:connector-curvature="0" /><path
                   d="m 316.8231,544.6633 c 1.372,0.353 2.944,-0.315 3.649,-1.531 1.1,0.354 2.198,0.668 3.298,1.021 0.51,-0.707 1.451,-1.177 2.354,-1.138 -0.667,0.274 0,1.295 0.707,1.412 0.667,0.079 1.61,0.119 1.767,0.786 -2.198,0.588 -4.475,-0.865 -6.752,-0.745 -2.394,0.116 -5.102,1.843 -6.907,0.273 0.353,-0.707 0.745,-1.374 1.138,-2.079 0.863,0.117 1.334,1.334 0.746,2.001"
                   style="fill:#9c9f9f;fill-opacity:1;fill-rule:nonzero;stroke:none"
                   id="path5260"
                   inkscape:connector-curvature="0" /><path
                   d="m 342.5719,524.5278 c 0.077,1.138 0.117,2.237 0.196,3.375 -0.393,0.354 -1.061,0.236 -1.375,-0.196 -0.628,0.746 -0.981,1.687 -1.019,2.63 -1.139,-0.196 -2.396,0.667 -2.592,1.845 0.472,1.059 1.296,1.923 2.316,2.433 -0.117,1.767 -0.274,3.494 -0.393,5.22 -0.117,1.885 -0.667,4.278 -2.551,4.593 -0.745,0.078 -1.451,-0.158 -2.12,-0.431 -2.589,-1.061 -5.18,-2.356 -7.143,-4.397 -4.356,-4.592 -4.239,-12.716 0.315,-17.153 0.981,-0.941 2.198,-1.844 2.629,-3.14 1.767,0.079 3.532,-0.235 5.142,-0.941 0.589,-0.276 1.255,-0.981 0.863,-1.493 1.767,-0.548 3.691,0.629 4.594,2.239 0.941,1.648 1.059,3.57 1.138,5.416 m -10.325,-0.236 c 0.434,0.551 1.022,0.981 1.727,1.177 0.157,-0.941 0.041,-2.079 -0.705,-2.747 -0.707,-0.666 -2.12,-0.509 -2.472,0.393 -0.119,0.313 -0.119,0.667 -0.079,0.982 0.079,1.765 0.155,3.492 0.234,5.219 1.414,-1.177 1.963,-3.297 1.295,-5.024 m 3.337,7.262 c -0.824,-1.531 -1.06,-3.375 -0.707,-5.063 -1.57,0.824 -2.394,2.825 -1.884,4.553 0.707,0.51 1.688,0.706 2.591,0.51 m 1.296,-3.651 c 0.195,0.55 0.352,1.1 0.55,1.648 1.06,-0.469 1.963,-1.412 2.079,-2.589 0.119,-1.178 -0.902,-2.396 -2.079,-2.239 -0.707,0.315 -0.198,1.727 0.548,1.453 0.393,0.708 -0.353,1.491 -1.098,1.727"
                   style="fill:#9c9f9f;fill-opacity:1;fill-rule:nonzero;stroke:none"
                   id="path5262"
                   inkscape:connector-curvature="0" /><path
                   d="m 332.3778,600.3912 c -0.274,0.274 -0.154,-0.928 -0.587,-4.834 -0.431,-3.907 -1.349,-5.558 -3.114,-12.977 3.046,6.547 4.442,11.398 5.035,17.462"
                   style="fill:#9c9f9f;fill-opacity:1;fill-rule:nonzero;stroke:none"
                   id="path5264"
                   inkscape:connector-curvature="0" /><path
                   d="m 294.4621,592.6617 c -0.044,6.004 0.259,11.781 1.357,13.822 -2.57,1.263 -2.53,-4.228 -2.373,-5.955 -2.468,3.769 -5.044,5.877 -7.635,5.014 -2.592,-0.902 -2.622,-3.877 -0.589,-6.123 2.364,-3.237 2.973,-5.539 4.709,-9.617 -1.412,-2.001 -3.532,-3.533 -5.887,-4.278 -5.652,-1.179 -10.794,-4.985 -13.227,-10.244 -2.395,-5.261 -1.924,-11.816 1.492,-16.448 6.947,-9.42 22.059,-8.439 30.301,-16.761 5.653,-5.69 6.713,-14.326 9.145,-21.941 4.947,-15.581 16.996,-28.771 32.109,-35.05 1.531,-0.628 3.217,-1.217 4.828,-0.864 3.572,0.786 4.632,5.299 4.789,8.948 0.195,5.378 0,10.794 -0.707,16.134 -0.157,1.334 -0.943,3.139 -2.277,2.747 0.981,-3.061 1.217,-6.319 0.745,-9.499 -2.903,2.787 -7.535,2.356 -11.46,3.258 -8.832,2.001 -14.21,10.794 -17.938,19.038 -3.768,8.242 -7.459,17.387 -15.388,21.783 7.498,0.315 14.955,0.629 22.452,0.981 3.14,0.119 6.712,0.119 8.872,-2.198 0.47,1.179 0.196,2.474 0,3.689 -0.864,4.828 -1.1,9.775 -0.707,14.681 -0.903,-0.707 -2.394,-0.314 -2.905,0.707 -1.963,-1.295 -4.552,0.079 -6.712,1.06 -3.337,1.53 -7.143,2.04 -10.794,1.492 -4.083,-0.668 -8.243,-2.592 -12.168,-1.296 -3.061,1.02 -5.394,3.597 -8.199,8.954 -2.806,5.357 -1.789,11.963 -1.833,17.966 m -8.613,-33.594 c -0.981,0.629 -1.962,1.296 -2.865,2.042 -2.589,2.119 -4.552,4.906 -6.514,7.654 -0.589,0.825 -1.218,1.727 -1.492,2.709 -0.785,2.707 1.256,5.73 4.002,6.359 2.748,0.626 5.692,-0.903 7.145,-3.299 0.706,-1.137 1.098,-2.432 1.453,-3.728 1.215,-4.67 1.922,-9.46 2.041,-14.288 -1.257,0.825 -2.513,1.689 -3.77,2.551 m 26.928,4.75 c 0.705,0.314 1.452,0.55 2.236,0.707 3.69,0.707 7.734,-1.02 9.813,-4.161 -1.138,-0.784 -2.708,-0.157 -4.042,0.393 -1.295,0.51 -3.141,0.745 -3.846,-0.471 -0.315,-0.55 -0.982,-0.706 -1.61,-0.825 -3.887,-0.666 -7.734,-1.334 -11.618,-2.001 -1.022,-0.197 -1.768,0.942 -2.199,1.844 -0.509,1.06 -0.981,2.12 -1.491,3.18 -0.786,1.767 -1.648,3.572 -1.845,5.495 2.943,-4.709 9.617,-6.634 14.602,-4.161 m 7.693,-4.592 c -0.393,-2.668 1.412,-5.534 4.004,-6.319 0.941,-0.274 0.705,-1.767 -0.079,-2.315 -0.786,-0.591 -1.884,-0.787 -2.513,-1.494 -0.55,-0.588 -1.334,0.393 -1.531,1.179 -0.51,2.356 -1.019,4.749 -1.569,7.143 -0.158,0.667 -0.275,1.453 0.118,2.041 0.391,0.55 1.53,0.472 1.57,-0.235 m 2.079,-2.511 c 0,0.195 0.119,0.391 0.236,0.548 1.06,1.374 3.023,2.041 4.711,1.57 0.784,-0.234 1.608,-0.903 1.53,-1.727 -0.039,-0.314 -0.234,-0.627 -0.391,-0.903 -0.668,-1.06 -1.336,-2.158 -2.003,-3.218 -1.217,1.06 -2.434,2.08 -3.65,3.101 -0.197,0.196 -0.392,0.353 -0.433,0.629 m 6.243,-4.711 c -0.157,0.707 0.116,1.453 0.469,2.079 0.512,0.943 1.179,1.806 1.963,2.553 1.493,-1.335 2.434,-3.298 2.512,-5.299 -0.862,-0.393 -1.766,-0.786 -2.708,-0.786 -0.981,0 -2.002,0.55 -2.236,1.453 m -41.958,51.408 c 2.651,0.864 3.513,0.115 3.827,-0.474 0.746,-1.333 1.492,-3.006 1.649,-4.536 0.157,-1.493 0.741,-9.247 -2.231,-4.991 -2.973,4.259 -5.893,9.138 -3.245,10.001 m 48.079,-43.519 c 1.1,-0.313 1.453,-1.727 1.257,-2.866 -0.197,-0.981 -0.745,-1.884 -1.452,-2.589 -1.02,0.824 -2.001,1.844 -2.12,3.139 -0.117,1.256 1.06,2.67 2.315,2.316 m -16.289,-10.361 c -0.352,-0.198 -0.667,-0.393 -0.981,-0.591 -0.862,2.985 -1.765,5.967 -2.63,8.951 0.353,-0.472 1.1,-0.667 1.649,-0.393 0.943,-2.591 1.61,-5.259 1.962,-7.967 m -20.371,1.295 c -1.019,1.294 -1.453,3.021 -1.217,4.631 1.374,-1.02 1.924,-3.061 1.217,-4.631 m -4.631,5.181 c -0.314,0.352 -0.275,0.981 0.078,1.295 1.216,-0.786 1.845,-2.395 1.493,-3.808 -0.865,0.472 -1.493,1.453 -1.493,2.472 m 3.415,-7.064 c -0.941,-0.471 -1.765,0.786 -2.042,1.805 0.198,0.55 1.061,0.51 1.453,0.079 0.353,-0.431 0.353,-1.06 0.393,-1.648 m 2.982,-2.198 c 0.276,-0.315 0.276,-0.865 0,-1.177 -0.705,0.588 -1.295,1.334 -1.765,2.158 0.353,0.314 0.705,0.667 1.02,1.019 l 0.707,-2"
                   style="fill:#9c9f9f;fill-opacity:1;fill-rule:nonzero;stroke:none"
                   id="path5266"
                   inkscape:connector-curvature="0" /></g></g></g></g></g></g></g></svg>